<svg width="24" height="24" viewBox="0 0 24 24" fill="none" xmlns="http://www.w3.org/2000/svg">
<path d="M12 4.5C16.1349 4.5 19.5 7.86514 19.5 12C19.5 16.1349 16.1349 19.5 12 19.5C7.86514 19.5 4.5 16.1349 4.5 12C4.5 7.86514 7.86514 4.5 12 4.5ZM12 7C11.1719 7 10.5 7.67186 10.5 8.5V10.5H8.5C7.67186 10.5 7 11.1719 7 12C7 12.8281 7.67186 13.5 8.5 13.5H10.5V15.5C10.5 16.3281 11.1719 17 12 17C12.8281 17 13.5 16.3281 13.5 15.5V13.5H15.5C16.3281 13.5 17 12.8281 17 12C17 11.1719 16.3281 10.5 15.5 10.5H13.5V8.5C13.5 7.67186 12.8281 7 12 7Z" fill="#B6B6B6" stroke="#B6B6B6"/>
</svg>
