<svg width="18" height="18" viewBox="0 0 18 18" fill="none" xmlns="http://www.w3.org/2000/svg">
<path fill-rule="evenodd" clip-rule="evenodd" d="M2.25 1.875H15.75V3H2.25V1.875Z" fill="#C6C6C6"/>
<path fill-rule="evenodd" clip-rule="evenodd" d="M0.375 4.125H17.625V16.125H0.375V4.125ZM1.5 5.25V15H16.5V5.25H1.5Z" fill="#C6C6C6"/>
<path fill-rule="evenodd" clip-rule="evenodd" d="M3.75 6.375C3.75 6.99634 3.24632 7.5 2.625 7.5V12.75C3.24632 12.75 3.75 13.2537 3.75 13.875H14.25C14.25 13.2537 14.7537 12.75 15.375 12.75V7.5C14.7537 7.5 14.25 6.99634 14.25 6.375H3.75ZM10.875 10.125C10.875 11.1605 10.0355 12 9 12C7.96447 12 7.125 11.1605 7.125 10.125C7.125 9.08947 7.96447 8.25 9 8.25C10.0355 8.25 10.875 9.08947 10.875 10.125ZM12.1875 9.5625H14.0625V10.6875H12.1875V9.5625ZM3.9375 9.5625V10.6875H5.8125V9.5625H3.9375Z" fill="#C6C6C6"/>
</svg>
