<svg width="21" height="20" viewBox="0 0 21 20" fill="none" xmlns="http://www.w3.org/2000/svg">
<path d="M14.7086 16.9C13.892 17.6917 13.0003 17.5667 12.142 17.1917C11.2336 16.8083 10.4003 16.7917 9.44197 17.1917C8.24197 17.7083 7.60863 17.5583 6.89197 16.9C2.8253 12.7083 3.4253 6.325 8.04197 6.09167C9.16697 6.15 9.9503 6.70833 10.6086 6.75833C11.592 6.55833 12.5336 5.98333 13.5836 6.05833C14.842 6.15833 15.792 6.65833 16.417 7.55833C13.817 9.11667 14.4336 12.5417 16.817 13.5C16.342 14.75 15.7253 15.9917 14.7003 16.9083L14.7086 16.9ZM10.5253 6.04167C10.4003 4.18333 11.9086 2.65 13.642 2.5C13.8836 4.65 11.692 6.25 10.5253 6.04167Z" fill="#1F1F1F"/>
</svg>
