<svg width="32" height="32" viewBox="0 0 32 32" fill="none" xmlns="http://www.w3.org/2000/svg">
<path fill-rule="evenodd" clip-rule="evenodd" d="M11 16C12.21 17.6821 13.7962 18.7778 16 18.7778C18.2038 18.7778 19.79 17.6821 21.0001 16L21.422 16.5867C21.9783 17.3602 22.6829 17.9771 23.4763 18.3977C24.238 18.8014 25.5894 18.7781 26.4999 18.7779L27 18.7778V25.9999L26.5002 26C25.4833 26.0003 23.9327 25.7541 22.9618 25.2394C22.2201 24.8463 21.557 24.3153 20.9999 23.6769C19.7546 25.1036 17.9289 25.9999 16 25.9999C14.0711 25.9999 12.2454 25.1036 11.0001 23.6769C10.443 24.3153 9.77989 24.8463 9.03821 25.2394C8.06729 25.7541 6.51667 26.0003 5.49986 26L5 25.9999V18.7778L5.50014 18.7779C6.41056 18.7781 7.76198 18.8014 8.52374 18.3977C9.31712 17.9771 10.0217 17.3602 10.578 16.5867L11 16Z" fill="#B6B6B6"/>
<path fill-rule="evenodd" clip-rule="evenodd" d="M11 6C12.21 7.68208 13.7962 8.69606 16 8.69606C18.2038 8.69606 19.79 7.68208 21.0001 6L21.422 6.58673C21.9783 7.36023 22.6829 7.9771 23.4763 8.39767C24.238 8.80144 25.5894 9.03261 26.4999 9.03239L27 9.03222V15.9999L26.5002 16C25.4833 16.0003 23.9327 15.7541 22.9618 15.2394C22.2201 14.8463 21.557 14.3153 20.9999 13.6769C19.7546 15.1036 17.9289 15.9999 16 15.9999C14.0711 15.9999 12.2454 15.1036 11.0001 13.6769C10.443 14.3153 9.77989 14.8463 9.03821 15.2394C8.06729 15.7541 6.51667 16.0003 5.49986 16L5 15.9999V9.03222L5.50014 9.03239C6.41056 9.03261 7.76198 8.80144 8.52374 8.39767C9.31712 7.9771 10.0217 7.36023 10.578 6.58673L11 6Z" fill="#B6B6B6"/>
</svg>
