<svg width="32" height="32" viewBox="0 0 32 32" fill="none" xmlns="http://www.w3.org/2000/svg">
<g clip-path="url(#clip0_5198_257939)">
<path d="M27.25 17.5H22V14.5C22 14.2577 21.883 14.0305 21.6857 13.8895L16.75 10.3637V7.75H20.5C20.914 7.75 21.25 7.414 21.25 7V4.75C21.25 4.336 20.914 4 20.5 4H16C15.586 4 15.25 4.336 15.25 4.75V10.3637L10.3142 13.8895C10.117 14.0305 10 14.2577 10 14.5V17.5H4.75C4.336 17.5 4 17.836 4 18.25V27.25C4 27.664 4.336 28 4.75 28H13.75V22.75C13.75 22.336 14.086 22 14.5 22H17.5C17.914 22 18.25 22.336 18.25 22.75V28H27.25C27.664 28 28 27.664 28 27.25V18.25C28 17.836 27.664 17.5 27.25 17.5ZM10 22.75C10 23.164 9.664 23.5 9.25 23.5H7.75C7.336 23.5 7 23.164 7 22.75V21.25C7 20.836 7.336 20.5 7.75 20.5H9.25C9.664 20.5 10 20.836 10 21.25V22.75ZM17.5 18.25C17.5 18.664 17.164 19 16.75 19H15.25C14.836 19 14.5 18.664 14.5 18.25V16.75C14.5 16.336 14.836 16 15.25 16H16.75C17.164 16 17.5 16.336 17.5 16.75V18.25ZM25 22.75C25 23.164 24.664 23.5 24.25 23.5H22.75C22.336 23.5 22 23.164 22 22.75V21.25C22 20.836 22.336 20.5 22.75 20.5H24.25C24.664 20.5 25 20.836 25 21.25V22.75Z" fill="#B6B6B6"/>
</g>
<defs>
<clipPath id="clip0_5198_257939">
<rect width="24" height="24" fill="white" transform="translate(4 4)"/>
</clipPath>
</defs>
</svg>
