<svg width="32" height="32" viewBox="0 0 32 32" fill="none" xmlns="http://www.w3.org/2000/svg">
<g clip-path="url(#clip0_5198_237626)">
<path d="M21.7775 6.19301C19.8177 4.26251 16.6415 4.27676 14.6975 6.22076L14.1777 6.74051L23.873 16.822L27.9267 12.7683L21.7775 6.19301Z" fill="#B6B6B6"/>
<path d="M15.3114 14.2489L12.2506 11.1882V7.28519L6.85289 4.58594L4.58789 6.85094L7.28714 12.2487H11.1901L14.2509 15.3094L15.3114 14.2489Z" fill="#B6B6B6"/>
<path d="M26.2037 21.5928L21.0962 16.8633L17.0215 21.2635L21.5935 26.2023C22.2025 26.8585 23.0305 27.2305 23.9245 27.247C23.9462 27.247 23.968 27.247 23.9897 27.247C24.8597 27.247 25.6765 26.9095 26.2937 26.2915C26.9267 25.6585 27.2657 24.817 27.2477 23.9223C27.2312 23.0275 26.8592 22.1995 26.2022 21.592L26.2037 21.5928Z" fill="#B6B6B6"/>
<path d="M16.6839 11.5117L5.79538 21.5932C5.13913 22.2015 4.76713 23.0295 4.75063 23.9242C4.73338 24.819 5.07238 25.6605 5.70538 26.2927C6.32263 26.9107 7.13863 27.2482 8.00938 27.2482C8.03038 27.2482 8.05213 27.2482 8.07388 27.2482C8.96863 27.2317 9.79663 26.8597 10.4049 26.2035L20.4151 15.3922L16.6839 11.5125V11.5117Z" fill="#B6B6B6"/>
</g>
<defs>
<clipPath id="clip0_5198_237626">
<rect width="24" height="24" fill="white" transform="translate(4 4)"/>
</clipPath>
</defs>
</svg>
