<svg width="32" height="32" viewBox="0 0 32 32" fill="none" xmlns="http://www.w3.org/2000/svg">
<path d="M22.3346 24.6654H19.668C19.116 24.6654 18.668 24.2174 18.668 23.6654C18.668 23.1134 19.116 22.6654 19.668 22.6654H22.3346C22.5186 22.6654 22.668 22.516 22.668 22.332V9.66536C22.668 9.48136 22.5186 9.33203 22.3346 9.33203H19.668C19.116 9.33203 18.668 8.88403 18.668 8.33203C18.668 7.78003 19.116 7.33203 19.668 7.33203H22.3346C23.6213 7.33203 24.668 8.3787 24.668 9.66536V22.332C24.668 23.6187 23.6213 24.6654 22.3346 24.6654Z" fill="#B6B6B6"/>
<path d="M16.5927 5.28032C16.1273 4.97099 15.5433 4.91365 15.026 5.12832L8.76998 7.73499C7.89798 8.09765 7.33398 8.94432 7.33398 9.88832V22.111C7.33398 23.055 7.89798 23.9017 8.76998 24.2643L15.0273 26.871C15.234 26.9563 15.4513 26.999 15.6687 26.999C15.9927 26.999 16.314 26.9043 16.5927 26.719C17.0567 26.4097 17.334 25.891 17.334 25.3323V6.66699C17.334 6.10832 17.0567 5.58965 16.5927 5.28032ZM14.0007 16.667C14.0007 17.219 13.5527 17.667 13.0007 17.667C12.4487 17.667 12.0007 17.219 12.0007 16.667V15.3337C12.0007 14.7817 12.4487 14.3337 13.0007 14.3337C13.5527 14.3337 14.0007 14.7817 14.0007 15.3337V16.667Z" fill="#B6B6B6"/>
</svg>
