<svg width="18" height="19" viewBox="0 0 18 19" fill="none" xmlns="http://www.w3.org/2000/svg">
<path d="M9.68769 3.49915L11.2888 6.74275L14.8699 7.26295C15.4981 7.35385 15.7492 8.12605 15.2947 8.56975L12.7036 11.0951L13.3156 14.661C13.4227 15.2865 12.7666 15.7635 12.2041 15.4683L9.00189 13.7853L5.79969 15.4683C5.23809 15.7635 4.58109 15.2865 4.68819 14.661L5.30019 11.0951L2.70909 8.56975C2.25459 8.12695 2.50569 7.35475 3.13389 7.26295L6.71499 6.74275L8.31609 3.49915C8.59689 2.92945 9.40869 2.92945 9.68949 3.49915H9.68769Z" fill="#D9D9D9"/>
<path fill-rule="evenodd" clip-rule="evenodd" d="M10.519 3.14988C10.5121 3.13352 10.5047 3.1173 10.4968 3.10126C9.88606 1.86224 8.12005 1.86208 7.50906 3.10078L6.11739 5.92011L3.00451 6.3723C1.64037 6.57164 1.0911 8.24973 2.08092 9.21427L4.33311 11.4093L3.80116 14.5087C3.56815 15.8696 4.99692 16.9069 6.2184 16.2649L9.00189 14.802L11.7854 16.2649C13.0075 16.9063 14.4357 15.8699 14.2027 14.5091L13.6707 11.4093L15.9229 9.21426C16.91 8.2506 16.3667 6.57054 14.9993 6.3723L11.8864 5.92011L10.519 3.14988ZM9.00189 4.14312L7.52203 7.14112C7.39092 7.40673 7.1375 7.59082 6.84437 7.6334L3.53158 8.11463L5.92837 10.4506C6.14053 10.6574 6.23734 10.9554 6.18722 11.2474L5.6212 14.5453L8.58318 12.9886C8.84532 12.8508 9.15846 12.8508 9.4206 12.9886L12.3826 14.5453L11.8166 11.2474C11.7664 10.9554 11.8633 10.6574 12.0754 10.4506L14.4722 8.11463L11.1594 7.6334C10.8663 7.59082 10.6129 7.40673 10.4818 7.14112L9.00189 4.14312Z" fill="#D9D9D9"/>
</svg>
