<svg width="36" height="37" viewBox="0 0 36 37" fill="none" xmlns="http://www.w3.org/2000/svg">
<path d="M19.3734 6.23268L22.5756 12.7199L29.7378 13.7603C30.9942 13.9421 31.4964 15.4865 30.5874 16.3739L25.4052 21.4247L26.6292 28.5563C26.8434 29.8073 25.5312 30.7613 24.4062 30.1709L18.0018 26.8049L11.5974 30.1709C10.4742 30.7613 9.16023 29.8073 9.37443 28.5563L10.5984 21.4247L5.41623 16.3739C4.50723 15.4883 5.00943 13.9439 6.26583 13.7603L13.428 12.7199L16.6302 6.23268C17.1918 5.09327 18.8154 5.09327 19.377 6.23268H19.3734Z" fill="white"/>
<path fill-rule="evenodd" clip-rule="evenodd" d="M21.036 5.53414C21.0222 5.50141 21.0074 5.46898 20.9916 5.43689C19.7702 2.95885 16.2382 2.95854 15.0162 5.43594L12.2328 11.0746L6.00708 11.979C3.27879 12.3777 2.18024 15.7338 4.15989 17.6629L8.66426 22.0531L7.60037 28.2518C7.13434 30.9736 9.99189 33.0483 12.4349 31.7642L18.0018 28.8383L23.5688 31.7642C26.0131 33.047 28.8694 30.9742 28.4034 28.2525L27.3394 22.0531L31.8438 17.6629C33.818 15.7356 32.7314 12.3755 29.9966 11.979L23.7708 11.0746L21.036 5.53414ZM18.0018 7.52062L15.0421 13.5166C14.7799 14.0478 14.2731 14.416 13.6868 14.5012L7.06121 15.4636L11.8548 20.1356C12.2791 20.5492 12.4727 21.1452 12.3725 21.7292L11.2404 28.325L17.1644 25.2115C17.6887 24.936 18.315 24.936 18.8393 25.2115L24.7632 28.325L23.6312 21.7292C23.5309 21.1452 23.7245 20.5492 24.1489 20.1356L28.9424 15.4636L22.3169 14.5012C21.7306 14.416 21.2238 14.0478 20.9616 13.5166L18.0018 7.52062Z" fill="white"/>
</svg>
