<svg width="224" height="224" viewBox="0 0 224 224" fill="none" xmlns="http://www.w3.org/2000/svg">
<path d="M144.537 169.778C163.597 162.319 179.457 148.443 189.382 130.542C199.308 112.642 202.676 91.8388 198.906 71.7209C195.137 51.603 184.465 33.431 168.732 20.3383C153 7.24555 133.192 0.0528041 112.724 0.000289354C92.2556 -0.0522253 72.4108 7.03879 56.611 20.0506C40.8113 33.0624 30.0469 51.1794 26.174 71.2777C22.3011 91.376 25.5625 112.196 35.3958 130.147C45.2291 148.098 61.0179 162.056 80.0398 169.613L93.4923 135.751C82.3542 131.326 73.1092 123.154 67.3514 112.642C61.5936 102.131 59.6839 89.9404 61.9517 78.172C64.2194 66.4036 70.5224 55.7953 79.7738 48.1763C89.0253 40.5573 100.645 36.4052 112.63 36.436C124.615 36.4667 136.213 40.6784 145.426 48.3447C154.638 56.0111 160.886 66.6516 163.094 78.4315C165.301 90.2113 163.329 102.392 157.517 112.874C151.705 123.355 142.419 131.48 131.258 135.848L144.537 169.778Z" fill="#E8E8E8"/>
<path d="M77.2347 216.248C88.3755 221.127 100.407 223.641 112.569 223.631C124.731 223.621 136.759 221.088 147.892 216.192L130.905 177.568C125.116 180.114 118.861 181.432 112.536 181.437C106.211 181.442 99.9537 180.135 94.1599 177.598L77.2347 216.248Z" fill="#E8E8E8"/>
</svg>
