<svg width="64" height="64" viewBox="0 0 64 64" fill="none" xmlns="http://www.w3.org/2000/svg">
<path d="M32 3.16406C41.4742 3.16406 51.5 10.2052 51.5 22.6162C51.4998 30.2525 46.9592 37.5688 42.4072 43.0059L41.9668 43.5264C39.899 45.9425 37.8326 47.9898 36.1631 49.5283L35.4736 50.1553C34.3522 51.1624 33.1933 52.1182 32 53.04C31.1299 52.3675 30.2776 51.6777 29.4463 50.9609L28.5264 50.1504C26.9783 48.7576 24.9769 46.8361 22.918 44.5264L22.0332 43.5127C17.3389 38.0231 12.5002 30.4814 12.5 22.6162C12.5 10.2052 22.5258 3.16406 32 3.16406ZM32 14.1641C27.3056 14.1641 23.5 17.9697 23.5 22.6641C23.5 27.3585 27.3056 31.1641 32 31.1641C36.6944 31.1641 40.5 27.3585 40.5 22.6641C40.5 17.9697 36.6944 14.1641 32 14.1641Z" fill="#FF603F" stroke="#FF603F"/>
<path d="M55.2371 43.9662C56.9293 44.7433 58.3855 45.649 59.4484 46.693C60.5061 47.7319 61.3327 49.0735 61.3327 50.6653C61.3327 52.7145 59.9833 54.3307 58.4405 55.4939C56.8447 56.6971 54.6512 57.7257 52.0893 58.5675C46.9433 60.2587 39.8912 61.3319 31.9993 61.3319C24.1092 61.3319 17.0573 60.2675 11.9108 58.5806C9.34871 57.7409 7.15402 56.7131 5.55703 55.5073C4.01014 54.3391 2.66602 52.7187 2.66602 50.6653V50.6071L2.6694 50.5491C2.76126 48.9711 3.60338 47.6471 4.69372 46.6039C5.78483 45.56 7.25598 44.6636 8.95555 43.8987C10.7503 43.091 12.9002 42.3852 15.3327 41.8027L16.4273 45.6541C14.1308 46.1953 12.1683 46.8393 10.5973 47.5463C9.1386 48.2029 8.10718 48.8741 7.45896 49.4942C6.86607 50.0614 6.70302 50.4749 6.66906 50.7174C6.69444 50.9479 6.89732 51.507 7.96743 52.315C9.07919 53.1545 10.8183 54.0131 13.1566 54.7795C17.8107 56.3051 24.4256 57.3319 31.9993 57.3319C39.5715 57.3319 46.186 56.2971 50.8405 54.7675C53.1791 53.999 54.9195 53.1391 56.0324 52.3001C57.1984 51.421 57.3327 50.8414 57.3327 50.6653C57.3327 50.5339 57.2665 50.1567 56.6455 49.5467C56.0295 48.9416 55.0205 48.2683 53.568 47.6014C51.9675 46.8666 49.9417 46.191 47.5527 45.628L48.666 41.7812C51.1915 42.387 53.4072 43.1262 55.2371 43.9662Z" fill="#FF603F"/>
</svg>
