<svg width="24" height="24" viewBox="0 0 24 24" fill="none" xmlns="http://www.w3.org/2000/svg">
<path d="M19.2 8.39922C19.2 7.07374 18.1255 5.99922 16.8 5.99922H7.20002C5.87454 5.99922 4.80002 7.07374 4.80002 8.39922V15.5992C4.80002 16.9247 5.87454 17.9992 7.20002 17.9992H16.8C18.1255 17.9992 19.2 16.9247 19.2 15.5992V8.39922ZM21.6 15.5992C21.6 18.2502 19.451 20.3992 16.8 20.3992H7.20002C4.54906 20.3992 2.40002 18.2502 2.40002 15.5992V8.39922C2.40002 5.74825 4.54906 3.59922 7.20002 3.59922H16.8C19.451 3.59922 21.6 5.74825 21.6 8.39922V15.5992Z" fill="#C6C6C6"/>
<path d="M20.4 8.39922C20.4 6.41094 18.7883 4.79922 16.8 4.79922H7.20002C5.21174 4.79922 3.60002 6.41094 3.60002 8.39922H20.4Z" fill="#C6C6C6"/>
<path d="M6.00002 4.79922V2.39922C6.00002 1.73648 6.53728 1.19922 7.20002 1.19922C7.86277 1.19922 8.40002 1.73648 8.40002 2.39922V4.79922C8.40002 5.46196 7.86277 5.99922 7.20002 5.99922C6.53728 5.99922 6.00002 5.46196 6.00002 4.79922Z" fill="#C6C6C6"/>
<path d="M15.6 4.79922V2.39922C15.6 1.73648 16.1373 1.19922 16.8 1.19922C17.4628 1.19922 18 1.73648 18 2.39922V4.79922C18 5.46196 17.4628 5.99922 16.8 5.99922C16.1373 5.99922 15.6 5.46196 15.6 4.79922Z" fill="#C6C6C6"/>
<path d="M7.50002 12.5992C8.32845 12.5992 9.00002 11.9276 9.00002 11.0992C9.00002 10.2708 8.32845 9.59922 7.50002 9.59922C6.6716 9.59922 6.00002 10.2708 6.00002 11.0992C6.00002 11.9276 6.6716 12.5992 7.50002 12.5992Z" fill="#C6C6C6"/>
<path d="M16.5 12.5992C17.3285 12.5992 18 11.9276 18 11.0992C18 10.2708 17.3285 9.59922 16.5 9.59922C15.6716 9.59922 15 10.2708 15 11.0992C15 11.9276 15.6716 12.5992 16.5 12.5992Z" fill="#C6C6C6"/>
<path d="M12 12.5992C12.8285 12.5992 13.5 11.9276 13.5 11.0992C13.5 10.2708 12.8285 9.59922 12 9.59922C11.1716 9.59922 10.5 10.2708 10.5 11.0992C10.5 11.9276 11.1716 12.5992 12 12.5992Z" fill="#C6C6C6"/>
<path d="M7.50002 16.7992C8.32845 16.7992 9.00002 16.1276 9.00002 15.2992C9.00002 14.4708 8.32845 13.7992 7.50002 13.7992C6.6716 13.7992 6.00002 14.4708 6.00002 15.2992C6.00002 16.1276 6.6716 16.7992 7.50002 16.7992Z" fill="#C6C6C6"/>
<path d="M12 16.7992C12.8285 16.7992 13.5 16.1276 13.5 15.2992C13.5 14.4708 12.8285 13.7992 12 13.7992C11.1716 13.7992 10.5 14.4708 10.5 15.2992C10.5 16.1276 11.1716 16.7992 12 16.7992Z" fill="#C6C6C6"/>
</svg>
