<svg width="24" height="24" viewBox="0 0 24 24" fill="none" xmlns="http://www.w3.org/2000/svg">
<g clip-path="url(#clip0_7323_34165)">
<path d="M19.0976 10.6666L20.2443 9.5199C21.0143 8.75156 21.4376 7.72656 21.4376 6.63823C21.4376 5.5499 21.0143 4.52656 20.2443 3.75656C18.7059 2.21656 16.0209 2.21656 14.4826 3.75656L13.3359 4.90323L19.0976 10.6666Z" fill="#B6B6B6"/>
<path d="M11.5682 6.67188L5.08821 13.1519C4.56987 13.6702 4.19654 14.3169 4.00821 15.0252L2.57321 20.4102C2.49654 20.6969 2.57821 21.0035 2.78821 21.2135C2.94654 21.3719 3.15987 21.4569 3.37821 21.4569C3.44987 21.4569 3.52154 21.4485 3.59321 21.4285L8.9782 19.9935C9.68654 19.8052 10.3332 19.4319 10.8515 18.9135L17.3315 12.4335L11.5682 6.67188Z" fill="#B6B6B6"/>
</g>
<defs>
<clipPath id="clip0_7323_34165">
<rect width="20" height="20" fill="white" transform="translate(2 2)"/>
</clipPath>
</defs>
</svg>
