<svg width="24" height="24" viewBox="0 0 24 24" fill="none" xmlns="http://www.w3.org/2000/svg">
<g clip-path="url(#clip0_7671_292797)">
<path d="M13.031 22.4956L13.2763 21.0636L12.2403 20.0529C11.427 19.2596 11.1297 18.0503 11.483 16.9729C11.8363 15.8836 12.7643 15.1009 13.9043 14.9356L15.3363 14.7276L15.975 13.4289C16.4737 12.4236 17.5043 11.8023 18.667 11.8023C19.815 11.8023 20.831 12.4129 21.3337 13.3929V9.32628C21.3337 8.60228 20.9897 7.90761 20.4123 7.46761L13.4123 2.15028C12.5803 1.51695 11.419 1.51828 10.5883 2.15028L3.58833 7.47028C3.01099 7.90895 2.66699 8.60361 2.66699 9.32761V18.9996C2.66699 21.0223 4.31099 22.6663 6.33366 22.6663H13.027C13.0337 22.6089 13.023 22.5529 13.0323 22.4956H13.031Z" fill="#B6B6B6"/>
<path d="M23.1429 16.9141L20.6696 16.5541L19.5642 14.3128C19.2256 13.6301 18.1082 13.6301 17.7696 14.3128L16.6642 16.5541L14.1909 16.9141C13.8136 16.9688 13.5002 17.2328 13.3842 17.5941C13.2656 17.9554 13.3642 18.3541 13.6362 18.6194L15.4269 20.3648L15.0042 22.8288C14.9402 23.2048 15.0936 23.5834 15.4029 23.8074C15.7082 24.0301 16.1189 24.0594 16.4549 23.8834L18.6682 22.7194L20.8816 23.8834C21.0269 23.9608 21.1869 23.9981 21.3469 23.9981C21.5536 23.9981 21.7616 23.9341 21.9336 23.8074C22.2416 23.5834 22.3962 23.2048 22.3322 22.8288L21.9096 20.3648L23.7002 18.6194C23.9722 18.3541 24.0709 17.9554 23.9522 17.5941C23.8349 17.2328 23.5229 16.9688 23.1456 16.9141H23.1429Z" fill="#B6B6B6"/>
</g>
<defs>
<clipPath id="clip0_7671_292797">
<rect width="24" height="24" fill="white"/>
</clipPath>
</defs>
</svg>
