<svg width="21" height="20" viewBox="0 0 21 20" fill="none" xmlns="http://www.w3.org/2000/svg">
<path d="M3.05268 6.25573C3.74633 4.87534 4.81003 3.71494 6.12502 2.90412C7.44 2.09329 8.95448 1.66396 10.4994 1.66406C12.7452 1.66406 14.6319 2.4899 16.0744 3.8349L13.6852 6.2249C12.821 5.39906 11.7227 4.97823 10.4994 4.97823C8.32852 4.97823 6.49102 6.4449 5.83685 8.41406C5.67018 8.91406 5.57518 9.4474 5.57518 9.9974C5.57518 10.5474 5.67018 11.0807 5.83685 11.5807C6.49185 13.5507 8.32852 15.0166 10.4994 15.0166C11.6202 15.0166 12.5744 14.7207 13.321 14.2207C13.7539 13.9357 14.1245 13.5659 14.4104 13.1336C14.6962 12.7014 14.8915 12.2156 14.9844 11.7057H10.4994V8.4824H18.3477C18.446 9.0274 18.4993 9.59573 18.4993 10.1866C18.4993 12.7249 17.591 14.8616 16.0143 16.3116C14.636 17.5849 12.7494 18.3307 10.4994 18.3307C9.40488 18.3312 8.32105 18.1159 7.3098 17.6973C6.29856 17.2787 5.37972 16.6648 4.60582 15.8909C3.83191 15.117 3.2181 14.1982 2.79946 13.1869C2.38083 12.1757 2.16558 11.0919 2.16602 9.9974C2.16602 8.6524 2.48768 7.38073 3.05268 6.25573Z" fill="#1F1F1F"/>
</svg>
