<svg width="24" height="24" viewBox="0 0 24 24" fill="none" xmlns="http://www.w3.org/2000/svg">
<path fill-rule="evenodd" clip-rule="evenodd" d="M23 6C23 8.7614 20.7614 11 18 11C15.2386 11 13 8.7614 13 6C13 3.23857 15.2386 1 18 1C20.7614 1 23 3.23857 23 6ZM18.75 3.25V5.25H20.75V6.75H18.75V8.75H17.25V6.75H15.25V5.25H17.25V3.25H18.75Z" fill="#B6B6B6"/>
<path d="M19.2174 12.3862C18.823 12.4609 18.4161 12.5 18 12.5C14.4102 12.5 11.5 9.58985 11.5 6C11.5 4.09377 12.3206 2.37919 13.6278 1.19023C13.1054 1.06585 12.5604 1 12 1C8.13385 1 5 4.13386 5 8V10C5 12.4124 4.39793 14.0792 3.81292 15.1322C3.47083 15.748 3.052 16.3181 2.5 16.7597V18.9011C8.77255 20.2952 15.2246 20.2958 21.5 18.9011V16.7597C20.948 16.3181 20.5292 15.748 20.1871 15.1322C19.8193 14.4703 19.4449 13.5659 19.2174 12.3862Z" fill="#B6B6B6"/>
<path d="M8.96069 20.9023C9.42619 22.1276 10.6115 22.9986 11.9999 22.9986C13.3883 22.9986 14.5736 22.1276 15.0391 20.9023C13.0144 21.0307 10.9851 21.0307 8.96069 20.9023Z" fill="#B6B6B6"/>
</svg>
