<svg width="64" height="64" viewBox="0 0 64 64" fill="none" xmlns="http://www.w3.org/2000/svg">
<path d="M57.3487 43.7581L33.9873 45.7888C31.8247 45.9768 29.6561 45.5005 27.7713 44.4235L21.3327 40.7448H36.3567C37.3228 40.7448 38.2493 40.361 38.9324 39.6779C39.6156 38.9948 39.9993 38.0682 39.9993 37.1021C39.9996 36.2522 39.7026 35.429 39.1598 34.775C38.6171 34.1209 37.8627 33.6773 37.0273 33.5208L23.538 30.9875C20.2967 30.381 17.0062 30.0766 13.7087 30.0781H2.66602V49.3835L24.598 58.5261C27.0413 59.3799 29.6861 59.4728 32.1833 58.7928L61.3327 47.4115C61.3327 46.9032 61.2271 46.4004 61.0225 45.9351C60.8179 45.4698 60.5188 45.0521 60.1442 44.7086C59.7695 44.3651 59.3276 44.1032 58.8463 43.9395C58.3651 43.7759 57.8551 43.7141 57.3487 43.7581Z" fill="#949494"/>
<path d="M55.6964 10.5713C55.5714 10.4188 55.4141 10.296 55.2359 10.2116C55.0577 10.1272 54.863 10.0834 54.6658 10.0833H30.8404C29.7979 8.10756 28.1238 6.53775 26.0852 5.62426C24.0465 4.71077 21.7607 4.50622 19.5923 5.04322C17.4238 5.58022 15.4976 6.82785 14.1209 8.58714C12.7441 10.3464 11.9961 12.5161 11.9961 14.75C11.9961 16.984 12.7441 19.1536 14.1209 20.9129C15.4976 22.6722 17.4238 23.9198 19.5923 24.4568C21.7607 24.9938 24.0465 24.7892 26.0852 23.8758C28.1238 22.9623 29.7979 21.3925 30.8404 19.4167H35.6844L38.0698 20.61C38.2798 20.7145 38.5136 20.7618 38.7477 20.747C38.9818 20.7323 39.2079 20.6561 39.4031 20.526L42.6658 18.35L45.9258 20.5233C46.121 20.6534 46.347 20.7296 46.5811 20.7444C46.8153 20.7591 47.0491 20.7119 47.2591 20.6073L49.6471 19.4167H53.3324C53.6398 19.4167 53.9378 19.3106 54.1759 19.1162C54.414 18.9218 54.5776 18.6512 54.6391 18.35L55.9724 11.6833C56.012 11.4891 56.0077 11.2885 55.96 11.0962C55.9122 10.9038 55.8222 10.7245 55.6964 10.5713ZM19.3324 18.0833C18.6732 18.0833 18.0287 17.8878 17.4805 17.5216C16.9324 17.1553 16.5051 16.6347 16.2528 16.0256C16.0005 15.4165 15.9345 14.7463 16.0631 14.0997C16.1918 13.4531 16.5092 12.8592 16.9754 12.393C17.4416 11.9268 18.0355 11.6093 18.6821 11.4807C19.3287 11.3521 19.999 11.4181 20.608 11.6704C21.2171 11.9227 21.7377 12.3499 22.104 12.8981C22.4703 13.4463 22.6658 14.0907 22.6658 14.75C22.6658 15.6341 22.3146 16.4819 21.6894 17.107C21.0643 17.7322 20.2165 18.0833 19.3324 18.0833Z" fill="#949494"/>
</svg>
