<svg width="20" height="20" viewBox="0 0 20 20" fill="none" xmlns="http://www.w3.org/2000/svg">
<path d="M10.0013 14.1665C10.2374 14.1665 10.4355 14.0865 10.5955 13.9265C10.7555 13.7665 10.8352 13.5687 10.8346 13.3332V9.99984C10.8346 9.76373 10.7546 9.56595 10.5946 9.4065C10.4346 9.24706 10.2369 9.16706 10.0013 9.1665C9.76575 9.16595 9.56797 9.24595 9.40797 9.4065C9.24797 9.56706 9.16797 9.76484 9.16797 9.99984V13.3332C9.16797 13.5693 9.24797 13.7673 9.40797 13.9273C9.56797 14.0873 9.76575 14.1671 10.0013 14.1665ZM10.0013 7.49984C10.2374 7.49984 10.4355 7.41984 10.5955 7.25984C10.7555 7.09984 10.8352 6.90206 10.8346 6.6665C10.8341 6.43095 10.7541 6.23317 10.5946 6.07317C10.4352 5.91317 10.2374 5.83317 10.0013 5.83317C9.76519 5.83317 9.56741 5.91317 9.40797 6.07317C9.24853 6.23317 9.16852 6.43095 9.16797 6.6665C9.16741 6.90206 9.24741 7.10012 9.40797 7.26067C9.56852 7.42123 9.7663 7.50095 10.0013 7.49984ZM10.0013 18.3332C8.84853 18.3332 7.76519 18.1143 6.7513 17.6765C5.73741 17.2387 4.85547 16.6451 4.10547 15.8957C3.35547 15.1462 2.76186 14.2643 2.32464 13.2498C1.88741 12.2354 1.66853 11.1521 1.66797 9.99984C1.66741 8.84762 1.8863 7.76428 2.32464 6.74984C2.76297 5.73539 3.35658 4.85345 4.10547 4.104C4.85436 3.35456 5.7363 2.76095 6.7513 2.32317C7.7663 1.88539 8.84964 1.6665 10.0013 1.6665C11.153 1.6665 12.2363 1.88539 13.2513 2.32317C14.2663 2.76095 15.1482 3.35456 15.8971 4.104C16.646 4.85345 17.2399 5.73539 17.6788 6.74984C18.1177 7.76428 18.3363 8.84762 18.3346 9.99984C18.333 11.1521 18.1141 12.2354 17.678 13.2498C17.2419 14.2643 16.6482 15.1462 15.8971 15.8957C15.146 16.6451 14.2641 17.239 13.2513 17.6773C12.2385 18.1157 11.1552 18.3343 10.0013 18.3332Z" fill="#C94629"/>
</svg>
