<svg width="20" height="20" viewBox="0 0 20 20" fill="none" xmlns="http://www.w3.org/2000/svg">
<path d="M16.9447 8.88883H12.778C12.318 8.88883 11.9447 8.5155 11.9447 8.0555C11.9447 7.5955 12.318 7.22217 12.778 7.22217H16.6669V4.16661C16.6669 3.09439 15.7947 2.22217 14.7224 2.22217H7.778V7.22217H9.16688C9.62688 7.22217 10.0002 7.5955 10.0002 8.0555C10.0002 8.5155 9.62688 8.88883 9.16688 8.88883H7.778V11.9444C7.778 12.4044 7.40466 12.7777 6.94466 12.7777C6.48466 12.7777 6.11133 12.4044 6.11133 11.9444V2.22217H3.05577C1.98355 2.22217 1.11133 3.09439 1.11133 4.16661V15.8333C1.11133 16.9055 1.98355 17.7777 3.05577 17.7777H6.11133V15.5555C6.11133 15.0955 6.48466 14.7222 6.94466 14.7222C7.40466 14.7222 7.778 15.0955 7.778 15.5555V17.7777H16.9447C18.0169 17.7777 18.8891 16.9055 18.8891 15.8333V10.8333C18.8891 9.76106 18.0169 8.88883 16.9447 8.88883Z" fill="#949494"/>
</svg>
