<svg width="18" height="18" viewBox="0 0 18 18" fill="none" xmlns="http://www.w3.org/2000/svg">
<path d="M9.26562 1.25293L9.31348 1.26367C10.2155 1.5649 10.7741 2.52245 10.5879 3.46094L10.541 3.64746L9.77734 6.12891L9.57812 6.77637H14.748C15.3269 6.77637 15.843 7.16208 15.9678 7.7002L15.9873 7.80957C16.0253 8.10712 15.9507 8.38342 15.8018 8.6084L15.5449 8.99609L15.9131 9.28027C16.1934 9.4972 16.3721 9.83313 16.3721 10.2139C16.372 10.6755 16.1086 11.0723 15.7207 11.2676L15.2744 11.4922L15.498 11.9385C15.5772 12.0962 15.6221 12.274 15.6221 12.4639C15.622 12.9104 15.3763 13.299 15.0098 13.502L14.6143 13.7207L14.792 14.1367C14.825 14.2136 14.8486 14.2952 14.8613 14.3809L14.8711 14.4678C14.9043 15.0366 14.3984 15.5263 13.8018 15.5264H9.37207C7.88852 15.5263 6.76759 15.2455 6.01953 14.9668L5.88477 14.9248C5.45497 12.2683 5.45511 9.64438 5.8877 6.9873L5.9834 6.43555C5.99928 6.34969 6.02759 6.2672 6.06641 6.19043L6.10938 6.11523C6.25361 5.88756 6.40275 5.66123 6.55469 5.43652L7.01562 4.76562L7.10449 4.63574L7.10547 4.63672C7.77399 3.67368 8.43946 2.71911 8.8418 1.81055L8.99805 1.4248C9.04126 1.30461 9.15388 1.23942 9.26562 1.25293Z" fill="#1F1F1F" stroke="#1F1F1F"/>
<path d="M2.79883 7.15137H3.71289C3.29195 10.0748 3.35333 12.9715 3.89648 15.9014H2.79883C2.55731 15.9014 2.33982 15.7648 2.23828 15.5576L2.20215 15.4648C1.48463 13.0279 1.4333 10.5454 2.06641 8.08105L2.20215 7.58789C2.26887 7.36176 2.46447 7.19668 2.69727 7.15918L2.79883 7.15137Z" fill="#1F1F1F" stroke="#1F1F1F"/>
</svg>
