<svg width="36" height="36" viewBox="0 0 36 36" fill="none" xmlns="http://www.w3.org/2000/svg">
<path d="M23.229 27.2858C26.2922 26.087 28.8412 23.8568 30.4363 20.98C32.0315 18.1031 32.5728 14.7598 31.9669 11.5266C31.3611 8.29334 29.6461 5.37284 27.1176 3.26865C24.5891 1.16446 21.4056 0.00848637 18.1161 4.65033e-05C14.8267 -0.00839336 11.6373 1.13123 9.09807 3.22242C6.55882 5.3136 4.82883 8.22527 4.2064 11.4553C3.58397 14.6854 4.10813 18.0315 5.68848 20.9165C7.26882 23.8015 9.80631 26.0447 12.8634 27.2592L15.0254 21.8172C13.2354 21.106 11.7496 19.7925 10.8242 18.1032C9.89883 16.4139 9.59192 14.4547 9.95638 12.5634C10.3208 10.672 11.3338 8.9671 12.8207 7.74262C14.3075 6.51814 16.175 5.85084 18.1011 5.85578C20.0273 5.86073 21.8913 6.5376 23.3718 7.76969C24.8524 9.00178 25.8566 10.7119 26.2113 12.6051C26.5661 14.4983 26.2491 16.4559 25.3151 18.1404C24.3811 19.825 22.8886 21.1308 21.0949 21.8327L23.229 27.2858Z" fill="#FF603F"/>
<path d="M12.4126 34.7549C14.2031 35.5389 16.1367 35.943 18.0914 35.9414C20.046 35.9398 21.979 35.5327 23.7682 34.7458L21.0382 28.5384C20.1077 28.9477 19.1024 29.1594 18.0859 29.1602C17.0694 29.161 16.0638 28.9509 15.1327 28.5432L12.4126 34.7549Z" fill="#FF603F"/>
</svg>
