<svg width="64" height="65" viewBox="0 0 64 65" fill="none" xmlns="http://www.w3.org/2000/svg">
<path d="M17.3336 60.7636C17.0699 60.7635 16.8122 60.6853 16.593 60.5388C16.3738 60.3923 16.2029 60.184 16.102 59.9404C16.0011 59.6968 15.9747 59.4288 16.0262 59.1702C16.0776 58.9116 16.2045 58.674 16.3909 58.4876C23.3669 51.5116 16.6789 44.6609 16.3909 44.3729C13.2976 41.2809 9.31626 33.5622 16.3909 26.4876C16.6424 26.2447 16.9792 26.1103 17.3288 26.1133C17.6784 26.1164 18.0128 26.2566 18.26 26.5038C18.5072 26.751 18.6475 27.0854 18.6505 27.435C18.6535 27.7846 18.5191 28.1214 18.2763 28.3729C11.3003 35.3489 17.9883 42.1996 18.2763 42.4876C21.3696 45.5796 25.3509 53.2982 18.2763 60.3729C18.0263 60.623 17.6872 60.7635 17.3336 60.7636Z" fill="#FF603F"/>
<path d="M32.0016 60.7636C31.7379 60.7635 31.4802 60.6853 31.261 60.5388C31.0417 60.3923 30.8709 60.184 30.77 59.9404C30.6691 59.6968 30.6427 59.4288 30.6941 59.1702C30.7455 58.9116 30.8725 58.674 31.0589 58.4876C38.0349 51.5116 31.3469 44.6609 31.0589 44.3729C27.9656 41.2809 23.9842 33.5622 31.0589 26.4876C31.3104 26.2447 31.6472 26.1103 31.9968 26.1133C32.3464 26.1164 32.6808 26.2566 32.928 26.5038C33.1752 26.751 33.3154 27.0854 33.3185 27.435C33.3215 27.7846 33.1871 28.1214 32.9442 28.3729C25.9682 35.3489 32.6562 42.1996 32.9442 42.4876C36.0376 45.5796 40.0189 53.2982 32.9442 60.3729C32.6942 60.623 32.3552 60.7635 32.0016 60.7636Z" fill="#FF603F"/>
<path d="M61.8033 10.1817C61.358 10.015 50.6953 6.09766 32.0006 6.09766C13.306 6.09766 2.64332 10.015 2.19798 10.1817C1.94392 10.2772 1.72507 10.448 1.57068 10.6713C1.41629 10.8945 1.33371 11.1596 1.33399 11.431V46.0977C1.33385 46.3132 1.38595 46.5255 1.48582 46.7164C1.5857 46.9074 1.73037 47.0713 1.90744 47.1941C2.08452 47.3169 2.28873 47.395 2.50257 47.4216C2.71642 47.4482 2.93353 47.4226 3.13532 47.347C6.46155 46.2552 9.87288 45.4422 13.334 44.9163C11.5847 42.7137 10.4198 40.1051 9.94732 37.3323C9.603 34.9988 9.83921 32.6163 10.635 30.3958C11.4309 28.1753 12.7618 26.1852 14.51 24.6017C15.2644 23.873 16.2748 23.4698 17.3236 23.479C18.3724 23.4881 19.3756 23.9088 20.1173 24.6504C20.8589 25.392 21.2796 26.3953 21.2887 27.4441C21.2978 28.4928 20.8946 29.5033 20.166 30.2577C15.2553 35.1683 19.3047 39.735 20.166 40.6017C21.1108 41.5576 21.9327 42.6276 22.6126 43.787C24.0073 43.679 25.4913 43.6003 27.0193 43.539C25.8057 41.6548 24.9891 39.5429 24.6193 37.3323C24.275 34.9988 24.5112 32.6163 25.307 30.3958C26.1029 28.1753 27.4338 26.1852 29.182 24.6017C29.9364 23.873 30.9468 23.4698 31.9956 23.479C33.0444 23.4881 34.0476 23.9088 34.7893 24.6504C35.5309 25.392 35.9516 26.3953 35.9607 27.4441C35.9698 28.4928 35.5666 29.5033 34.838 30.2577C29.9273 35.1683 33.9767 39.735 34.838 40.6017C35.7182 41.4896 36.4919 42.4771 37.1433 43.5443C38.7993 43.6137 40.3873 43.707 41.886 43.8297C40.5663 41.8735 39.6802 39.6577 39.2873 37.331C38.943 34.9974 39.1792 32.615 39.975 30.3945C40.7709 28.174 42.1018 26.1839 43.85 24.6003C44.6044 23.8717 45.6148 23.4685 46.6636 23.4776C47.7124 23.4867 48.7156 23.9074 49.4573 24.649C50.1989 25.3907 50.6196 26.3939 50.6287 27.4427C50.6378 28.4915 50.2346 29.5019 49.506 30.2563C44.5953 35.167 48.6446 39.7337 49.506 40.6003C50.8448 41.9636 51.9382 43.5477 52.738 45.283C55.4954 45.7722 58.2137 46.4612 60.8713 47.3443C61.0726 47.4188 61.2889 47.4436 61.5018 47.4166C61.7147 47.3896 61.918 47.3115 62.0943 47.1892C62.2706 47.0668 62.4148 46.9036 62.5145 46.7136C62.6143 46.5236 62.6667 46.3123 62.6673 46.0977V11.431C62.6676 11.1596 62.585 10.8945 62.4306 10.6713C62.2762 10.448 62.0574 10.2772 61.8033 10.1817Z" fill="#FF603F"/>
<path d="M46.6676 60.7636C46.4039 60.7635 46.1462 60.6853 45.927 60.5388C45.7078 60.3923 45.5369 60.184 45.436 59.9404C45.3351 59.6968 45.3087 59.4288 45.3601 59.1702C45.4116 58.9116 45.5385 58.674 45.7249 58.4876C52.7009 51.5116 46.0129 44.6609 45.7249 44.3729C42.6316 41.2809 38.6502 33.5622 45.7249 26.4876C45.9764 26.2447 46.3132 26.1103 46.6628 26.1133C47.0124 26.1164 47.3468 26.2566 47.594 26.5038C47.8412 26.751 47.9814 27.0854 47.9845 27.435C47.9875 27.7846 47.8531 28.1214 47.6103 28.3729C40.6343 35.3489 47.3223 42.1996 47.6103 42.4876C50.7036 45.5796 54.6849 53.2982 47.6103 60.3729C47.3603 60.623 47.0212 60.7635 46.6676 60.7636Z" fill="#FF603F"/>
</svg>
