<svg width="64" height="65" viewBox="0 0 64 65" fill="none" xmlns="http://www.w3.org/2000/svg">
<path fill-rule="evenodd" clip-rule="evenodd" d="M41.332 20.7638C41.332 26.8703 45.7439 31.4305 51.332 31.4305C56.9202 31.4305 61.332 26.8703 61.332 20.7638C61.332 18.2673 60.3063 15.3814 58.7066 12.6579C57.0927 9.91056 54.8223 7.20351 52.1702 5.06009L51.332 4.38281L50.4939 5.06009C47.8418 7.20351 45.5714 9.91056 43.9575 12.6579C42.3578 15.3814 41.332 18.2673 41.332 20.7638Z" fill="#B6B6B6"/>
<path fill-rule="evenodd" clip-rule="evenodd" d="M2.66602 20.7638C2.66602 26.8703 7.07786 31.4305 12.666 31.4305C18.2541 31.4305 22.666 26.8703 22.666 20.7638C22.666 18.2673 21.6403 15.3814 20.0406 12.6579C18.4267 9.91056 16.1563 7.20351 13.5041 5.06009L12.666 4.38281L11.8279 5.06009C9.17571 7.20351 6.90531 9.91056 5.29152 12.6579C3.69172 15.3814 2.66602 18.2673 2.66602 20.7638Z" fill="#B6B6B6"/>
<path fill-rule="evenodd" clip-rule="evenodd" d="M31.9993 62.097C24.5861 62.097 18.666 56.0326 18.666 48.097C18.666 44.8613 20.0521 41.1392 22.2471 37.5982C24.4573 34.0325 27.5639 30.526 31.1804 27.7114L31.9993 27.0742L32.8183 27.7114C36.4348 30.526 39.5413 34.0325 41.7516 37.5982C43.9465 41.1392 45.3327 44.8613 45.3327 48.097C45.3327 56.0326 39.4125 62.097 31.9993 62.097ZM28.666 48.7637V46.7637H24.666V48.7637C24.666 52.8138 27.9492 56.097 31.9993 56.097H33.9993V52.097H31.9993C30.1584 52.097 28.666 50.6046 28.666 48.7637Z" fill="#B6B6B6"/>
</svg>
