<svg width="75" height="77" viewBox="0 0 75 77" fill="none" xmlns="http://www.w3.org/2000/svg">
<path fill-rule="evenodd" clip-rule="evenodd" d="M52 4C56.4182 4 60 7.58172 60 12V52C60 56.4182 56.4182 60 52 60H12C7.58172 60 4 56.4182 4 52V12C4 7.58172 7.58172 4 12 4H52ZM22 36H18V42H12V46H18V52H22V46H28V42H22V36ZM51.8284 15L49 12.1716L44 17.1716L39 12.1716L36.1716 15L41.1716 20L36.1716 25L39 27.8284L44 22.8284L49 27.8284L51.8284 25L46.8284 20L51.8284 15ZM12 18V22H28V18H12ZM36 38H52V42H36V38ZM36 46V50H52V46H36Z" fill="#E6EBFF"/>
<rect x="31.5" y="33.5" width="41" height="41" rx="20.5" fill="#E6EBFF"/>
<rect x="31.5" y="33.5" width="41" height="41" rx="20.5" stroke="#293464" stroke-width="5"/>
<path fill-rule="evenodd" clip-rule="evenodd" d="M55.7199 43.4697L62.7699 48.7572L61.8699 49.9572L55.7199 45.3447L49.5699 49.9572L48.6699 48.7572L55.7199 43.4697Z" fill="#293464"/>
<path d="M50.7207 50.9697V54.1572C50.7207 55.1237 51.5042 55.9072 52.4707 55.9072H54.2207V52.4072H57.2207V55.9072H58.9707C59.9372 55.9072 60.7207 55.1237 60.7207 54.1572V50.9697L55.7207 47.2197L50.7207 50.9697Z" fill="#293464"/>
<path d="M60.1613 61.1133L52.7521 64.0272C52.077 64.276 51.3474 64.338 50.64 64.2068L44.7207 63.1092V58.2822L45.2419 57.8412C45.9546 57.2381 46.858 56.9072 47.7916 56.9072C48.715 56.9072 49.6092 57.231 50.3186 57.8221L50.7207 58.1572H52.2207C53.3246 58.1572 54.2197 59.0516 54.2207 60.1553V60.4072H49.9707V60.6572L54.0685 61.067C54.5804 61.1182 55.0477 60.7726 55.1486 60.2681L55.2207 59.9072L59.8183 59.4574C60.3084 59.4301 60.7207 59.8202 60.7207 60.311C60.7207 60.6693 60.4974 60.9895 60.1613 61.1133Z" fill="#293464"/>
<path d="M43.2207 56.9072V64.4072H41.2207V56.9072H43.2207Z" fill="#293464"/>
</svg>
