<svg width="64" height="64" viewBox="0 0 64 64" fill="none" xmlns="http://www.w3.org/2000/svg">
<g clip-path="url(#clip0_1907_132059)">
<path d="M32 3.16699C32.4374 3.16707 32.8629 3.29977 33.2217 3.54492L33.3711 3.65625L62.7041 27.6562L62.7109 27.6611L62.7617 27.7021H62.7627C63.147 28.0265 63.4051 28.4727 63.4961 28.9629L63.5244 29.1758C63.5668 29.677 63.4337 30.175 63.1514 30.5859L63.0215 30.7559C62.6972 31.1402 62.2509 31.3982 61.7607 31.4893L61.5479 31.5186C61.0468 31.561 60.5486 31.4277 60.1377 31.1455L59.9678 31.0146L59.9619 31.0098L56.3164 28.0293L55.5 27.3613V58.667C55.4999 59.2413 55.2713 59.792 54.8652 60.1982C54.4589 60.6046 53.9076 60.833 53.333 60.833H10.666C10.1633 60.8329 9.67845 60.6586 9.29297 60.3428L9.13379 60.1982C8.72782 59.792 8.50011 59.2413 8.5 58.667V27.3613L7.68262 28.0293L4.03809 31.0098C3.64908 31.316 3.16874 31.4782 2.67773 31.4736L2.46582 31.4619C1.97102 31.4085 1.51138 31.1864 1.16309 30.8369L1.02051 30.6787C0.705615 30.2935 0.53418 29.8136 0.53125 29.3203L0.540039 29.1074C0.585961 28.6118 0.801244 28.1495 1.14551 27.7959L1.30078 27.6514L30.6279 3.65625C31.015 3.33979 31.5001 3.16699 32 3.16699ZM38.7402 34.1143L31.999 40.8555L26.666 35.5225L14.1885 48L18.666 52.4775L19.0195 52.124L26.666 44.4766L32 49.8105L43.2178 38.5928L47.6465 43.0205L48.5 43.874V28.833H33.459L38.7402 34.1143Z" fill="#B6B6B6" stroke="#B6B6B6"/>
</g>
<defs>
<clipPath id="clip0_1907_132059">
<rect width="64" height="64" fill="white"/>
</clipPath>
</defs>
</svg>
