<svg width="64" height="64" viewBox="0 0 64 64" fill="none" xmlns="http://www.w3.org/2000/svg">
<path d="M41.333 15.166H54.667C54.8164 15.166 54.9632 15.2061 55.0918 15.2822C55.2205 15.3586 55.3267 15.4692 55.3984 15.6006L63.3984 30.2666C63.4652 30.3891 63.5 30.5266 63.5 30.666V49.333C63.4999 49.5539 63.4121 49.7657 63.2559 49.9219C63.0997 50.0781 62.8879 50.1659 62.667 50.166H59.1553C59.0636 48.0724 58.3844 46.0432 57.1895 44.3135C55.8994 42.4462 54.0699 41.0166 51.9463 40.2158C49.8228 39.4152 47.5053 39.2814 45.3037 39.832C43.5079 40.2812 41.8591 41.1686 40.5 42.4062V15.999L40.5039 15.917C40.5228 15.7262 40.6074 15.5469 40.7441 15.4102C40.9003 15.254 41.1121 15.1661 41.333 15.166ZM43.5 31.166H60.4707L60.0674 30.4268L53.5215 18.4268L53.3799 18.166H43.5V31.166Z" fill="#FF603F" stroke="#FF603F"/>
<path d="M46.5371 43.3105C47.9919 43.0212 49.4997 43.1697 50.8701 43.7373C52.2405 44.305 53.4122 45.2657 54.2363 46.499C55.0604 47.7324 55.5 49.1827 55.5 50.666C55.4979 52.6545 54.7069 54.5607 53.3008 55.9668C51.8946 57.373 49.9877 58.1631 47.999 58.165C46.516 58.1648 45.0661 57.7263 43.833 56.9023C42.5997 56.0783 41.639 54.9065 41.0713 53.5361C40.5037 52.1657 40.3552 50.6579 40.6445 49.2031C40.9339 47.7483 41.6474 46.4112 42.6963 45.3623C43.7452 44.3134 45.0823 43.5999 46.5371 43.3105ZM48 47.499C47.3737 47.499 46.761 47.6852 46.2402 48.0332C45.7197 48.3811 45.3138 48.8756 45.0742 49.4541C44.8345 50.0327 44.7723 50.6699 44.8945 51.2842C45.0168 51.8983 45.318 52.4625 45.7607 52.9053C46.2035 53.348 46.7677 53.6492 47.3818 53.7715C47.9961 53.8937 48.6333 53.8315 49.2119 53.5918C49.7904 53.3522 50.2849 52.9463 50.6328 52.4258C50.9808 51.905 51.167 51.2923 51.167 50.666C51.167 49.8262 50.8331 49.0206 50.2393 48.4268C49.6454 47.8329 48.8398 47.499 48 47.499Z" fill="#FF603F" stroke="#FF603F"/>
<path d="M14.5371 43.3105C15.9919 43.0212 17.4997 43.1697 18.8701 43.7373C20.2405 44.305 21.4122 45.2657 22.2363 46.499C23.0604 47.7324 23.5 49.1827 23.5 50.666C23.4979 52.6545 22.7069 54.5607 21.3008 55.9668C19.8946 57.373 17.9877 58.1631 15.999 58.165C14.516 58.1648 13.0661 57.7263 11.833 56.9023C10.5997 56.0783 9.63895 54.9065 9.07129 53.5361C8.50366 52.1657 8.35519 50.6579 8.64453 49.2031C8.93392 47.7483 9.6474 46.4112 10.6963 45.3623C11.7452 44.3134 13.0823 43.5999 14.5371 43.3105ZM16 47.499C15.3737 47.499 14.761 47.6852 14.2402 48.0332C13.7197 48.3811 13.3138 48.8756 13.0742 49.4541C12.8345 50.0327 12.7723 50.6699 12.8945 51.2842C13.0168 51.8983 13.318 52.4625 13.7607 52.9053C14.2035 53.348 14.7677 53.6492 15.3818 53.7715C15.9961 53.8937 16.6333 53.8315 17.2119 53.5918C17.7904 53.3522 18.2849 52.9463 18.6328 52.4258C18.9808 51.905 19.167 51.2923 19.167 50.666C19.167 49.8262 18.8331 49.0206 18.2393 48.4268C17.6454 47.8329 16.8399 47.499 16 47.499Z" fill="#FF603F" stroke="#FF603F"/>
<path d="M2.66699 5.83301H34.667C35.2414 5.83309 35.792 6.06162 36.1982 6.46777C36.6046 6.8741 36.833 7.42536 36.833 8V49.333C36.833 49.554 36.7451 49.7656 36.5889 49.9219C36.4326 50.0782 36.221 50.166 36 50.166H27.1543C27.0297 47.3866 25.8722 44.7464 23.8965 42.7705C21.8023 40.6764 18.9616 39.5 16 39.5C13.0384 39.5 10.1977 40.6764 8.10352 42.7705C6.1278 44.7464 4.97027 47.3866 4.8457 50.166H2.66699C2.09251 50.166 1.54106 49.9384 1.13477 49.5322C0.728514 49.126 0.500086 48.5745 0.5 48V8C0.5 7.42536 0.728437 6.8741 1.13477 6.46777C1.54109 6.06144 2.09236 5.83301 2.66699 5.83301ZM18.667 15.5C18.1808 15.5 17.7139 15.6933 17.3701 16.0371C17.0265 16.3809 16.833 16.8469 16.833 17.333V22.166H12C11.5139 22.166 11.0479 22.3595 10.7041 22.7031C10.3603 23.0469 10.167 23.5138 10.167 24C10.1671 24.4861 10.3604 24.9522 10.7041 25.2959C11.0479 25.6396 11.5138 25.833 12 25.833H16.833V30.666C16.833 31.1522 17.0263 31.6191 17.3701 31.9629C17.7139 32.3067 18.1808 32.5 18.667 32.5C19.153 32.4999 19.6192 32.3065 19.9629 31.9629C20.3067 31.6191 20.5 31.1522 20.5 30.666V25.833H25.333C25.8192 25.833 26.2861 25.6397 26.6299 25.2959C26.9735 24.9522 27.1669 24.486 27.167 24C27.167 23.5138 26.9737 23.0469 26.6299 22.7031C26.2861 22.3593 25.8192 22.166 25.333 22.166H20.5V17.333C20.5 16.8469 20.3066 16.3809 19.9629 16.0371C19.6192 15.6934 19.1531 15.5001 18.667 15.5Z" fill="#FF603F" stroke="#FF603F"/>
</svg>
