<svg width="64" height="65" viewBox="0 0 64 65" fill="none" xmlns="http://www.w3.org/2000/svg">
<path d="M51.5605 50.7295V50.7285C51.7369 50.8073 51.879 50.9451 51.9648 51.1162L51.999 51.1914C52.0682 51.3718 52.0719 51.5701 52.0117 51.752L51.9814 51.8291L47.6416 61.5723C47.563 61.7486 47.4259 61.8915 47.2549 61.9775L47.1797 62.0107C47.0776 62.0499 46.9687 62.0693 46.8594 62.0664L46.7773 62.0596C46.7233 62.0528 46.6698 62.0416 46.6182 62.0244L46.542 61.9941L40.7822 59.4287C42.3184 58.1708 43.5668 56.5959 44.4385 54.8086L44.6309 54.3965C45.5071 52.4382 45.9111 50.3065 45.8184 48.1709L51.5605 50.7295Z" fill="#FF603F" stroke="#FF603F"/>
<path d="M18.666 48.7657C18.6661 48.3011 18.6906 47.837 18.7393 47.375L12.2353 50.2723C11.9125 50.4164 11.6602 50.6827 11.5337 51.0127C11.4071 51.3427 11.4168 51.7095 11.5606 52.0323L15.9006 61.7763C16.0443 62.0987 16.31 62.3509 16.6393 62.4777C16.8029 62.5406 16.9774 62.5706 17.1526 62.566C17.3279 62.5615 17.5005 62.5224 17.6606 62.451L24.1846 59.5443C22.4778 58.3122 21.0877 56.6928 20.1283 54.8191C19.169 52.9453 18.6678 50.8707 18.666 48.7657Z" fill="#FF603F"/>
<path d="M31.9987 38.0977C29.889 38.0977 27.8267 38.7232 26.0726 39.8953C24.3185 41.0674 22.9513 42.7333 22.144 44.6824C21.3367 46.6314 21.1254 48.7762 21.537 50.8453C21.9486 52.9144 22.9645 54.815 24.4562 56.3068C25.948 57.7985 27.8486 58.8145 29.9177 59.226C31.9869 59.6376 34.1316 59.4264 36.0807 58.619C38.0297 57.8117 39.6956 56.4445 40.8677 54.6904C42.0398 52.9363 42.6654 50.874 42.6654 48.7643C42.6654 45.9353 41.5416 43.2222 39.5412 41.2218C37.5408 39.2215 34.8277 38.0977 31.9987 38.0977ZM25.9987 50.7643C25.6031 50.7643 25.2165 50.647 24.8876 50.4273C24.5587 50.2075 24.3023 49.8951 24.1509 49.5297C23.9996 49.1642 23.96 48.7621 24.0371 48.3741C24.1143 47.9862 24.3048 47.6298 24.5845 47.3501C24.8642 47.0704 25.2206 46.8799 25.6085 46.8028C25.9965 46.7256 26.3986 46.7652 26.7641 46.9166C27.1295 47.0679 27.4419 47.3243 27.6616 47.6532C27.8814 47.9821 27.9987 48.3688 27.9987 48.7643C27.9987 49.2948 27.788 49.8035 27.4129 50.1785C27.0378 50.5536 26.5291 50.7643 25.9987 50.7643ZM31.9987 56.7643C31.6031 56.7643 31.2165 56.647 30.8876 56.4273C30.5587 56.2075 30.3023 55.8951 30.1509 55.5297C29.9996 55.1642 29.96 54.7621 30.0371 54.3741C30.1143 53.9862 30.3048 53.6298 30.5845 53.3501C30.8642 53.0704 31.2206 52.8799 31.6085 52.8028C31.9965 52.7256 32.3986 52.7652 32.7641 52.9166C33.1295 53.0679 33.4419 53.3243 33.6616 53.6532C33.8814 53.9821 33.9987 54.3688 33.9987 54.7643C33.9987 55.2948 33.788 55.8035 33.4129 56.1785C33.0378 56.5536 32.5291 56.7643 31.9987 56.7643ZM31.9987 44.7643C31.6031 44.7643 31.2165 44.647 30.8876 44.4273C30.5587 44.2075 30.3023 43.8951 30.1509 43.5297C29.9996 43.1642 29.96 42.7621 30.0371 42.3741C30.1143 41.9862 30.3048 41.6298 30.5845 41.3501C30.8642 41.0704 31.2206 40.8799 31.6085 40.8028C31.9965 40.7256 32.3986 40.7652 32.7641 40.9166C33.1295 41.0679 33.4419 41.3243 33.6616 41.6532C33.8814 41.9821 33.9987 42.3688 33.9987 42.7643C33.9987 43.2948 33.788 43.8035 33.4129 44.1785C33.0378 44.5536 32.5291 44.7643 31.9987 44.7643ZM37.9987 50.7643C37.6031 50.7643 37.2165 50.647 36.8876 50.4273C36.5587 50.2075 36.3023 49.8951 36.1509 49.5297C35.9996 49.1642 35.96 48.7621 36.0371 48.3741C36.1143 47.9862 36.3048 47.6298 36.5845 47.3501C36.8642 47.0704 37.2206 46.8799 37.6085 46.8028C37.9965 46.7256 38.3986 46.7652 38.7641 46.9166C39.1295 47.0679 39.4419 47.3243 39.6616 47.6532C39.8814 47.9821 39.9987 48.3688 39.9987 48.7643C39.9987 49.2948 39.788 49.8035 39.4129 50.1785C39.0378 50.5536 38.5291 50.7643 37.9987 50.7643Z" fill="#FF603F"/>
<path d="M50.838 15.4482C49.4675 11.5458 46.9188 8.16524 43.5442 5.7737C40.1696 3.38216 36.1355 2.09766 31.9994 2.09766C27.8632 2.09766 23.8292 3.38216 20.4545 5.7737C17.0799 8.16524 14.5312 11.5458 13.1607 15.4482C11.4256 15.493 9.7763 16.2128 8.5635 17.4544C7.35069 18.6961 6.66997 20.3619 6.66603 22.0976V27.4309C6.66383 28.4377 6.8901 29.4319 7.32779 30.3385C7.76548 31.2452 8.40319 32.0407 9.19289 32.6652C9.98259 33.2897 10.9037 33.7269 11.8868 33.9438C12.87 34.1608 13.8895 34.1518 14.8687 33.9176L15.2874 33.8189L19.5127 44.1323C20.4552 41.5796 22.1574 39.3772 24.39 37.8216C26.6226 36.2661 29.2783 35.4321 31.9994 35.4321C34.7204 35.4321 37.3761 36.2661 39.6087 37.8216C41.8413 39.3772 43.5435 41.5796 44.486 44.1323L48.7114 33.8189L49.13 33.9176C50.109 34.1494 51.1277 34.1566 52.1099 33.9387C53.092 33.7208 54.0121 33.2835 54.8013 32.6595C55.5904 32.0354 56.228 31.2409 56.6664 30.3354C57.1048 29.4299 57.3326 28.437 57.3327 27.4309V22.0976C57.3288 20.3619 56.648 18.6961 55.4352 17.4544C54.2224 16.2128 52.5732 15.493 50.838 15.4482ZM30.666 25.3256C30.666 25.9259 30.4634 26.5087 30.091 26.9796C29.7186 27.4504 29.1982 27.7819 28.614 27.9203L14.254 31.3242C13.5748 31.4856 12.8653 31.4663 12.1958 31.2684C11.5264 31.0706 10.9204 30.7009 10.438 30.1962C9.70384 29.3989 9.30759 28.3478 9.3327 27.2643V22.0976C9.3327 21.0367 9.75413 20.0193 10.5043 19.2692C11.2544 18.519 12.2718 18.0976 13.3327 18.0976H27.9994C28.7066 18.0976 29.3849 18.3785 29.885 18.8786C30.3851 19.3787 30.666 20.057 30.666 20.7643V25.3256ZM54.666 27.4309C54.6666 28.1302 54.4838 28.8175 54.136 29.4241C53.7881 30.0307 53.2872 30.5356 52.6834 30.8883C51.735 31.418 50.6188 31.5613 49.5674 31.2882L35.3847 27.9203C34.8005 27.7819 34.2801 27.4504 33.9077 26.9796C33.5354 26.5087 33.3327 25.9259 33.3327 25.3256V20.7643C33.3327 20.057 33.6136 19.3787 34.1137 18.8786C34.6138 18.3785 35.2921 18.0976 35.9994 18.0976H50.666C51.7269 18.0976 52.7443 18.519 53.4945 19.2692C54.2446 20.0193 54.666 21.0367 54.666 22.0976V27.4309Z" fill="#FF603F"/>
</svg>
