<svg width="64" height="65" viewBox="0 0 64 65" fill="none" xmlns="http://www.w3.org/2000/svg">
<path d="M35.6826 34.5732L34.5791 36.2324C27.7313 46.5249 17.4104 53.9919 5.52246 57.2852L4.36719 57.5908L2.91211 57.957L2.17871 55.0479L3.63379 54.6816C14.921 51.8354 24.7903 45.0185 31.4473 35.5L32.082 34.5703L33.1846 32.9111L35.6826 34.5732Z" fill="#FF603F" stroke="#FF603F"/>
<path d="M16.5889 53.3487C16.1693 52.9873 15.7585 52.6099 15.3573 52.2166C6.0863 43.1257 5.49778 28.9634 14.0428 20.5843C19.7947 14.9443 26.5628 14.4454 34.0203 13.8957C36.5383 13.7101 39.1349 13.5187 41.7975 13.1217C50.9465 11.7574 56.4551 6.09766 56.4551 6.09766C56.4551 6.09766 65.2989 36.1665 47.6164 53.5055C40.7561 60.2325 30.0947 61.1869 21.3599 56.5978C31.2397 49.7507 35.3431 39.5483 36.3759 34.4361L34.9953 36.511C30.2848 43.5913 23.9464 49.3473 16.5889 53.3487Z" fill="#FF603F"/>
</svg>
