<svg width="44" height="20" viewBox="0 0 44 20" fill="none" xmlns="http://www.w3.org/2000/svg">
<path d="M18.4078 18.549L18.725 16.5287L18.0183 16.5122H14.6436L16.9888 1.6044C16.9958 1.55885 17.0189 1.51733 17.0538 1.48741C17.0888 1.45749 17.1333 1.44117 17.1793 1.44141H22.8696C24.7587 1.44141 26.0623 1.8355 26.743 2.61333C27.0621 2.97823 27.2653 3.35955 27.3636 3.77918C27.4667 4.21949 27.4685 4.74554 27.3678 5.38715L27.3605 5.43398V5.8451L27.6796 6.02633C27.9232 6.15005 28.1422 6.31742 28.3257 6.52016C28.5987 6.83214 28.7752 7.22866 28.8498 7.69877C28.9269 8.18226 28.9014 8.75758 28.7752 9.40892C28.6296 10.1582 28.3943 10.8107 28.0764 11.3447C27.7959 11.823 27.4188 12.2373 26.9693 12.561C26.547 12.8614 26.0454 13.0895 25.4781 13.2355C24.9285 13.379 24.3019 13.4514 23.6145 13.4514H23.1717C22.855 13.4514 22.5475 13.5657 22.306 13.7706C22.0649 13.9778 21.905 14.264 21.8547 14.5783L21.8213 14.7601L21.2608 18.3209L21.2353 18.4517C21.2286 18.493 21.2171 18.5137 21.2001 18.5277C21.1837 18.5412 21.1631 18.5487 21.1419 18.549H18.4078Z" fill="#253B80"/>
<path d="M27.9816 5.48438C27.9647 5.59324 27.9452 5.70453 27.9234 5.81886C27.173 9.68129 24.6057 11.0156 21.3268 11.0156H19.6573C19.2563 11.0156 18.9184 11.3075 18.856 11.704L18.0012 17.1385L17.7592 18.679C17.7495 18.7401 17.7532 18.8026 17.7699 18.8621C17.7867 18.9217 17.8161 18.9769 17.8562 19.0239C17.8963 19.071 17.946 19.1088 18.0021 19.1347C18.0581 19.1606 18.1191 19.174 18.1808 19.1741H21.1418C21.4924 19.1741 21.7903 18.9186 21.8455 18.572L21.8746 18.4212L22.4321 14.8744L22.4679 14.6798C22.5225 14.3319 22.821 14.0765 23.1716 14.0765H23.6144C26.4832 14.0765 28.729 12.9088 29.3854 9.52986C29.6596 8.11832 29.5177 6.9397 28.7921 6.11078C28.5622 5.85436 28.2875 5.64209 27.9816 5.48438Z" fill="#179BD7"/>
<path d="M27.1966 5.16868C26.957 5.09919 26.7133 5.04496 26.4669 5.0063C25.9799 4.93128 25.4878 4.89528 24.9952 4.89865H20.5351C20.3654 4.89852 20.2012 4.95927 20.0723 5.06992C19.9433 5.18056 19.8581 5.33381 19.832 5.50195L18.8833 11.5264L18.856 11.7021C18.8855 11.5104 18.9826 11.3355 19.1296 11.2092C19.2765 11.083 19.4638 11.0136 19.6573 11.0137H21.3268C24.6057 11.0137 27.173 9.67879 27.9234 5.81698C27.9458 5.70264 27.9647 5.59135 27.9816 5.48249C27.7836 5.37839 27.5773 5.29112 27.3647 5.22159C27.309 5.20305 27.2529 5.18541 27.1966 5.16868Z" fill="#222D65"/>
<path d="M19.8322 5.50254C19.858 5.33435 19.9432 5.18103 20.0722 5.07044C20.2012 4.95985 20.3655 4.89932 20.5353 4.89985H24.9953C25.5237 4.89985 26.0169 4.93452 26.467 5.0075C26.7716 5.05549 27.072 5.12727 27.3654 5.22218C27.5869 5.29576 27.7925 5.38273 27.9824 5.48308C28.2056 4.05573 27.9806 3.08388 27.2107 2.20388C26.3621 1.23508 24.8303 0.820312 22.8702 0.820312H17.18C16.7796 0.820312 16.438 1.11223 16.3762 1.50936L14.006 16.5704C13.995 16.6404 13.9992 16.7119 14.0183 16.78C14.0375 16.8482 14.0711 16.9113 14.117 16.9652C14.1628 17.019 14.2197 17.0623 14.2838 17.092C14.3479 17.1217 14.4177 17.1372 14.4883 17.1373H18.0013L18.8834 11.527L19.8322 5.50254Z" fill="#253B80"/>
</svg>
