<svg width="40" height="40" viewBox="0 0 40 40" fill="none" xmlns="http://www.w3.org/2000/svg">
<path fill-rule="evenodd" clip-rule="evenodd" d="M36.666 19.1641C36.666 28.8291 28.831 36.6641 19.166 36.6641C9.50103 36.6641 1.66602 28.8291 1.66602 19.1641C1.66602 9.49907 9.50103 1.66406 19.166 1.66406C28.831 1.66406 36.666 9.49907 36.666 19.1641ZM20.416 7.91406H17.916V10.4141C15.1546 10.4141 12.916 12.6527 12.916 15.4141C12.916 18.1754 15.1546 20.4141 17.916 20.4141H20.416C21.7968 20.4141 22.916 21.5333 22.916 22.9141C22.916 24.2948 21.7968 25.4141 20.416 25.4141H14.5826V27.9141H17.916V30.4141H20.416V27.9141C23.1774 27.9141 25.416 25.6754 25.416 22.9141C25.416 20.1527 23.1774 17.9141 20.416 17.9141H17.916C16.5353 17.9141 15.416 16.7948 15.416 15.4141C15.416 14.0333 16.5353 12.9141 17.916 12.9141H23.7494V10.4141H20.416V7.91406Z" fill="#B6B6B6"/>
</svg>
