<svg width="40" height="40" viewBox="0 0 40 40" fill="none" xmlns="http://www.w3.org/2000/svg">
<path fill-rule="evenodd" clip-rule="evenodd" d="M33.5193 12.5377L22.2693 4.08945C20.9321 3.08371 19.0657 3.08582 17.7307 4.08945L6.48071 12.5377C5.55286 13.2343 5 14.3375 5 15.4872V30.8465C5 34.0586 7.64214 36.6693 10.8929 36.6693H29.1071C32.3579 36.6693 35 34.0586 35 30.8465V15.4872C35 14.3375 34.4471 13.2364 33.5193 12.5377ZM16.6169 28.4489C14.1789 26.6535 11.3158 24.5452 11.3158 20.8907C11.3158 16.8552 16.0921 13.9932 20 17.8734C23.9079 13.9932 28.6842 16.8569 28.6842 20.8915C28.6842 24.5482 25.8173 26.6576 23.3775 28.4527C23.1253 28.6382 22.8777 28.8204 22.6383 29.0006C21.7368 29.6811 20.8684 30.3201 20 30.3201C19.1316 30.3201 18.2632 29.6803 17.3617 29.0015C17.1206 28.8197 16.8711 28.636 16.6169 28.4489Z" fill="#B6B6B6"/>
</svg>
