<svg width="40" height="40" viewBox="0 0 40 40" fill="none" xmlns="http://www.w3.org/2000/svg">
<path d="M21.999 33.3366C22.1784 33.3296 22.3574 33.3589 22.5252 33.4228C22.693 33.4867 22.8461 33.5837 22.9755 33.7082C23.1049 33.8327 23.2078 33.982 23.2781 34.1472C23.3484 34.3123 23.3847 34.49 23.3847 34.6696C23.3847 34.8491 23.3484 35.0268 23.2781 35.192C23.2078 35.3572 23.1049 35.5065 22.9755 35.6309C22.8461 35.7554 22.693 35.8525 22.5252 35.9163C22.3574 35.9802 22.1784 36.0095 21.999 36.0026C21.6452 36.0026 21.3059 35.862 21.0557 35.6118C20.8056 35.3617 20.665 35.0224 20.665 34.6686C20.665 34.3148 20.8056 33.9755 21.0557 33.7253C21.3059 33.4751 21.6452 33.3366 21.999 33.3366ZM17.333 32.0026C17.5124 31.9956 17.6914 32.0249 17.8592 32.0888C18.027 32.1527 18.1801 32.2497 18.3095 32.3742C18.4389 32.4987 18.5418 32.648 18.6121 32.8132C18.6824 32.9783 18.7187 33.156 18.7187 33.3356C18.7187 33.5151 18.6824 33.6928 18.6121 33.858C18.5418 34.0232 18.4389 34.1725 18.3095 34.2969C18.1801 34.4214 18.027 34.5185 17.8592 34.5823C17.6914 34.6462 17.5124 34.6755 17.333 34.6686C16.9884 34.6552 16.6624 34.5089 16.4233 34.2604C16.1842 34.0119 16.0507 33.6804 16.0507 33.3356C16.0507 32.9907 16.1842 32.6592 16.4233 32.4107C16.6624 32.1622 16.9884 32.0159 17.333 32.0026ZM26.665 32.0026C26.8444 31.9956 27.0234 32.0249 27.1912 32.0888C27.359 32.1527 27.5121 32.2497 27.6415 32.3742C27.7709 32.4987 27.8738 32.648 27.9441 32.8132C28.0144 32.9783 28.0507 33.156 28.0507 33.3356C28.0507 33.5151 28.0144 33.6928 27.9441 33.858C27.8738 34.0232 27.7709 34.1725 27.6415 34.2969C27.5121 34.4214 27.359 34.5185 27.1912 34.5823C27.0234 34.6462 26.8444 34.6755 26.665 34.6686C26.3204 34.6552 25.9944 34.5089 25.7553 34.2604C25.5162 34.0119 25.3827 33.6804 25.3827 33.3356C25.3827 32.9907 25.5162 32.6592 25.7553 32.4107C25.9944 32.1622 26.3204 32.0159 26.665 32.0026ZM21.999 12.0026C26.927 12.0026 29.725 15.1486 30.131 18.9506H30.255C33.427 18.9506 35.999 21.4246 35.999 24.4766C35.999 27.5286 33.427 30.0026 30.255 30.0026H13.743C10.571 30.0026 7.99903 27.5286 7.99903 24.4766C7.99903 21.4246 10.571 18.9506 13.743 18.9506H13.867C14.275 15.1226 17.069 12.0026 21.999 12.0026ZM7.60503 17.4026C7.68191 17.6243 7.67836 17.866 7.595 18.0854C7.51163 18.3048 7.35377 18.4878 7.14903 18.6026L6.98503 18.6746L5.38303 19.2266C5.14661 19.3093 4.88776 19.3003 4.65766 19.2013C4.42757 19.1024 4.24298 18.9207 4.14042 18.6922C4.03785 18.4637 4.02478 18.205 4.10377 17.9673C4.18277 17.7296 4.34808 17.5302 4.56703 17.4086L4.73103 17.3366L6.33503 16.7846C6.58566 16.6986 6.86019 16.7155 7.09831 16.8318C7.33643 16.948 7.51868 17.154 7.60503 17.4046M17.839 9.00256C18.503 9.32656 19.089 9.74856 19.585 10.2426C16.061 10.9706 13.525 13.3086 12.499 16.5546L12.369 17.0026L12.277 17.3766L11.945 17.4366C11.0583 17.6209 10.2116 17.9623 9.44503 18.4446C8.67198 17.2404 8.31387 15.8165 8.42528 14.3899C8.53669 12.9633 9.11151 11.6122 10.0621 10.5427C11.0127 9.4731 12.287 8.7437 13.6907 8.46565C15.0944 8.18761 16.5505 8.37615 17.837 9.00256M5.83103 9.34256L5.99903 9.40656L7.52303 10.1486C7.74769 10.2578 7.92335 10.4471 8.01542 10.6793C8.1075 10.9116 8.10932 11.1698 8.02054 11.4033C7.93175 11.6368 7.75879 11.8286 7.53569 11.941C7.31259 12.0534 7.0555 12.0782 6.81503 12.0106L6.64503 11.9466L5.12303 11.2046C4.89836 11.0953 4.7227 10.906 4.63063 10.6738C4.53856 10.4416 4.53673 10.1833 4.62552 9.94978C4.7143 9.71629 4.88726 9.52447 5.11037 9.4121C5.33347 9.29972 5.59055 9.27491 5.83103 9.34256ZM19.977 4.59256C20.1876 4.6953 20.3554 4.86871 20.4512 5.08255C20.5469 5.29638 20.5646 5.53705 20.501 5.76256L20.437 5.93056L19.695 7.45456C19.5858 7.67923 19.3965 7.85488 19.1642 7.94696C18.932 8.03903 18.6737 8.04085 18.4403 7.95207C18.2068 7.86329 18.0149 7.69032 17.9026 7.46722C17.7902 7.24412 17.7654 6.98703 17.833 6.74656L17.897 6.57656L18.639 5.05256C18.6966 4.93421 18.777 4.82839 18.8756 4.74117C18.9742 4.65396 19.089 4.58707 19.2135 4.54433C19.338 4.50159 19.4697 4.48385 19.6011 4.49213C19.7324 4.50041 19.8589 4.53454 19.977 4.59256ZM12.399 4.52856L12.473 4.69256L13.025 6.29656C13.1062 6.53267 13.0961 6.79059 12.9967 7.01963C12.8973 7.24866 12.7158 7.43223 12.488 7.53426C12.2601 7.63629 12.0023 7.64938 11.7653 7.57098C11.5282 7.49257 11.3291 7.32834 11.207 7.11056L11.133 6.94656L10.583 5.34456C10.5032 5.109 10.5139 4.85214 10.6133 4.6241C10.7126 4.39607 10.8933 4.21324 11.1202 4.11129C11.3471 4.00935 11.6038 3.99561 11.8403 4.07276C12.0767 4.14992 12.2759 4.31242 12.399 4.52856Z" fill="#B6B6B6"/>
</svg>
