<svg width="40" height="40" viewBox="0 0 40 40" fill="none" xmlns="http://www.w3.org/2000/svg">
<path fill-rule="evenodd" clip-rule="evenodd" d="M14.9373 30.7818C10.0323 27.0235 3.33398 20.8152 3.33398 14.9452C3.33398 5.1385 12.5007 1.47683 20.0007 9.05016C27.5007 1.47683 36.6673 5.1385 36.6673 14.9452C36.6673 20.8152 29.9673 27.0235 25.064 30.7818C22.844 32.4818 21.734 33.3335 20.0007 33.3335C18.2673 33.3335 17.1573 32.4835 14.9373 30.7818ZM27.5007 10.4168C27.8322 10.4168 28.1501 10.5485 28.3845 10.7829C28.619 11.0174 28.7507 11.3353 28.7507 11.6668V13.7502H30.834C31.1655 13.7502 31.4834 13.8819 31.7179 14.1163C31.9523 14.3507 32.084 14.6686 32.084 15.0002C32.084 15.3317 31.9523 15.6496 31.7179 15.884C31.4834 16.1185 31.1655 16.2502 30.834 16.2502H28.7507V18.3335C28.7507 18.665 28.619 18.983 28.3845 19.2174C28.1501 19.4518 27.8322 19.5835 27.5007 19.5835C27.1691 19.5835 26.8512 19.4518 26.6168 19.2174C26.3823 18.983 26.2507 18.665 26.2507 18.3335V16.2502H24.1673C23.8358 16.2502 23.5179 16.1185 23.2834 15.884C23.049 15.6496 22.9173 15.3317 22.9173 15.0002C22.9173 14.6686 23.049 14.3507 23.2834 14.1163C23.5179 13.8819 23.8358 13.7502 24.1673 13.7502H26.2507V11.6668C26.2507 11.3353 26.3823 11.0174 26.6168 10.7829C26.8512 10.5485 27.1691 10.4168 27.5007 10.4168Z" fill="#B6B6B6"/>
</svg>
