<svg width="18" height="18" viewBox="0 0 18 18" fill="none" xmlns="http://www.w3.org/2000/svg">
<path d="M4.5 9L13.5 4.5" stroke="#1F1F1F" stroke-width="2" stroke-linecap="round" stroke-linejoin="round"/>
<path d="M13.5 13.5L4.5 9" stroke="#1F1F1F" stroke-width="2" stroke-linecap="round" stroke-linejoin="round"/>
<path d="M4.49922 10.8002C5.49333 10.8002 6.29922 9.99431 6.29922 9.0002C6.29922 8.00608 5.49333 7.2002 4.49922 7.2002C3.50511 7.2002 2.69922 8.00608 2.69922 9.0002C2.69922 9.99431 3.50511 10.8002 4.49922 10.8002Z" fill="#1F1F1F" stroke="#1F1F1F" stroke-width="2" stroke-linecap="round" stroke-linejoin="round"/>
<path d="M13.4992 15.3002C14.4933 15.3002 15.2992 14.4943 15.2992 13.5002C15.2992 12.5061 14.4933 11.7002 13.4992 11.7002C12.5051 11.7002 11.6992 12.5061 11.6992 13.5002C11.6992 14.4943 12.5051 15.3002 13.4992 15.3002Z" fill="#1F1F1F" stroke="#1F1F1F" stroke-width="2" stroke-linecap="round" stroke-linejoin="round"/>
<path d="M13.4992 6.3002C14.4933 6.3002 15.2992 5.49431 15.2992 4.5002C15.2992 3.50608 14.4933 2.7002 13.4992 2.7002C12.5051 2.7002 11.6992 3.50608 11.6992 4.5002C11.6992 5.49431 12.5051 6.3002 13.4992 6.3002Z" fill="#1F1F1F" stroke="#1F1F1F" stroke-width="2" stroke-linecap="round" stroke-linejoin="round"/>
</svg>
