<svg width="18" height="18" viewBox="0 0 18 18" fill="none" xmlns="http://www.w3.org/2000/svg">
<path d="M3.65625 17.4375C4.74356 17.4375 5.625 16.5561 5.625 15.4688C5.625 14.3814 4.74356 13.5 3.65625 13.5C2.56894 13.5 1.6875 14.3814 1.6875 15.4688C1.6875 16.5561 2.56894 17.4375 3.65625 17.4375Z" fill="#B6B6B6"/>
<path d="M14.3438 17.4375C15.4311 17.4375 16.3125 16.5561 16.3125 15.4688C16.3125 14.3814 15.4311 13.5 14.3438 13.5C13.2564 13.5 12.375 14.3814 12.375 15.4688C12.375 16.5561 13.2564 17.4375 14.3438 17.4375Z" fill="#B6B6B6"/>
<path d="M3.18937 11.0898C3.16631 11.042 3.12356 10.9171 3.22312 10.7923L4.2075 9.56152H12.807C13.8082 9.56152 14.6739 8.9169 14.9625 7.95784L16.506 2.81152H3.62194L3.47287 1.76921C3.375 1.08071 2.7765 0.561523 2.08069 0.561523H0.5625V1.68652H2.08069C2.21962 1.68652 2.33944 1.79059 2.35912 1.9284L3.34575 8.83815L2.3445 10.0897C2.00363 10.5155 1.93894 11.0859 2.17519 11.5775C2.41144 12.0691 2.89744 12.3746 3.4425 12.3746H16.3119V11.2496H3.44306C3.28331 11.2496 3.21244 11.1382 3.18937 11.0898Z" fill="#B6B6B6"/>
</svg>
