<svg width="48" height="48" viewBox="0 0 48 48" fill="none" xmlns="http://www.w3.org/2000/svg">
<path d="M24.001 11.6992C30.783 11.6992 36.3007 17.217 36.3008 23.999C36.3008 30.7811 30.7831 36.2988 24.001 36.2988C17.219 36.2987 11.7012 30.7811 11.7012 23.999C11.7013 17.2171 17.219 11.6993 24.001 11.6992ZM30.2861 17.7139C29.517 16.945 28.3004 16.8972 27.4756 17.5703L27.3164 17.7139L17.7168 27.3145C16.948 28.0834 16.8996 29.2991 17.5723 30.124L17.7168 30.2842C18.1267 30.6939 18.6647 30.8994 19.2012 30.8994C19.6708 30.8994 20.1414 30.7417 20.5264 30.4277L20.6855 30.2842L30.2861 20.6836C31.0546 19.9147 31.1034 18.6989 30.4307 17.874L30.2861 17.7139ZM28.001 25.0996C26.3995 25.0997 25.1017 26.3976 25.1016 27.999C25.1016 29.6005 26.3995 30.8993 28.001 30.8994C29.6026 30.8994 30.9014 29.6006 30.9014 27.999C30.9013 26.3975 29.6025 25.0996 28.001 25.0996ZM20.001 17.0996C18.3995 17.0997 17.1017 18.3976 17.1016 19.999C17.1016 21.6005 18.3995 22.8993 20.001 22.8994C21.6026 22.8994 22.9014 21.6006 22.9014 19.999C22.9013 18.3975 21.6025 17.0996 20.001 17.0996Z" fill="#B6B6B6" stroke="#B6B6B6"/>
</svg>
