<svg width="48" height="48" viewBox="0 0 48 48" fill="none" xmlns="http://www.w3.org/2000/svg">
<path d="M35.2001 20.8005V19.2005C35.2001 16.5496 33.0511 14.4005 30.4001 14.4005H17.6001C14.9492 14.4005 12.8001 16.5496 12.8001 19.2005V20.8005H35.2001Z" fill="#B6B6B6"/>
<path fill-rule="evenodd" clip-rule="evenodd" d="M17.6001 9.86719C18.3365 9.86719 18.9335 10.4641 18.9335 11.2005V13.0672H29.0668L29.0668 11.2005C29.0668 10.4641 29.6638 9.86719 30.4001 9.86719C31.1365 9.86719 31.7335 10.4641 31.7335 11.2005V13.2125C34.4797 13.8213 36.5335 16.2711 36.5335 19.2005V28.8005C36.5335 32.1879 33.7875 34.9339 30.4001 34.9339H17.6001C14.2128 34.9339 11.4668 32.1879 11.4668 28.8005V19.2005C11.4668 16.2711 13.5206 13.8213 16.2668 13.2125V11.2005C16.2668 10.4641 16.8638 9.86719 17.6001 9.86719ZM14.1335 19.2005V19.4672H33.8668V19.2005C33.8668 17.2859 32.3147 15.7339 30.4001 15.7339H17.6001C15.6855 15.7339 14.1335 17.2859 14.1335 19.2005ZM33.8668 22.1339H14.1335V28.8005C14.1335 30.7151 15.6855 32.2672 17.6001 32.2672H30.4001C32.3147 32.2672 33.8668 30.7151 33.8668 28.8005V22.1339Z" fill="#B6B6B6"/>
</svg>
