<svg width="48" height="48" viewBox="0 0 48 48" fill="none" xmlns="http://www.w3.org/2000/svg">
<g clip-path="url(#clip0_7396_111546)">
<path d="M25.499 28.501V38.668C25.499 38.7122 25.4814 38.7549 25.4502 38.7861C25.419 38.8171 25.3769 38.8349 25.333 38.835H22.666C22.6441 38.835 22.6225 38.8305 22.6025 38.8223L22.5479 38.7861C22.5166 38.7549 22.499 38.7122 22.499 38.668V28.501H25.499ZM9.33301 12.501H38.666C38.688 12.501 38.7096 12.5055 38.7295 12.5137L38.7842 12.5498C38.8154 12.5811 38.833 12.6238 38.833 12.668V26.001C38.833 26.0231 38.8287 26.0453 38.8203 26.0654L38.7842 26.1191C38.7529 26.1504 38.7102 26.168 38.666 26.168H9.33301C9.3108 26.168 9.28867 26.1637 9.26855 26.1553L9.21484 26.1191C9.18359 26.0879 9.16602 26.0452 9.16602 26.001V12.668C9.16602 12.646 9.17048 12.6245 9.17871 12.6045L9.21484 12.5498C9.24608 12.5187 9.28888 12.501 9.33301 12.501ZM15.5273 15.9795H13.3691V22.6924H15.5811V20.7158L16.6641 22.4541L16.8105 22.6904H23.0195V20.6904H20.9424V20.2178H22.875V18.2256H20.9424V17.9717H23.0195V15.9795H18.7305V21.7354C18.4787 21.3685 18.0566 20.7464 17.4658 19.8652C17.6042 19.7606 17.7324 19.6422 17.8447 19.5088L17.9443 19.3818L17.9482 19.375C18.1633 19.07 18.2896 18.7121 18.3135 18.3418L18.3174 18.1826C18.3291 17.9539 18.3032 17.7254 18.2383 17.5068L18.1553 17.2783C18.0258 16.9802 17.8254 16.7177 17.5723 16.5137L17.5488 16.4951L17.5234 16.4795L17.292 16.3467C16.7499 16.0655 16.1396 15.9385 15.5273 15.9795ZM23.291 22.6875H25.373V19.8086L26.8848 22.4395L27.0293 22.6904H29.3584V17.9873H30.8672V22.6904H33.0791V17.9873H34.6328V15.9795H27.2676V18.8438L25.751 16.2285L25.6064 15.9795H23.291V22.6875ZM15.5811 17.9707C15.7451 17.9738 15.9062 18.0095 16.0557 18.0781C16.0582 18.0805 16.0612 18.0824 16.0635 18.085L16.082 18.1123C16.0918 18.1325 16.0958 18.1554 16.0938 18.1777L16.0898 18.2188L16.0938 18.2607C16.0961 18.2915 16.0899 18.3225 16.0771 18.3506C16.0681 18.3704 16.0543 18.387 16.0391 18.4023C15.8972 18.4769 15.7409 18.5155 15.5811 18.5156V17.9707ZM22.666 9.16797H25.333C25.355 9.16801 25.3765 9.1724 25.3965 9.18066L25.4502 9.2168C25.4815 9.24805 25.499 9.29076 25.499 9.33496V10.168H22.499V9.33496C22.499 9.31279 22.5034 9.29059 22.5117 9.27051L22.5479 9.2168C22.5791 9.18554 22.6218 9.16797 22.666 9.16797Z" fill="#B6B6B6" stroke="#B6B6B6"/>
</g>
<defs>
<clipPath id="clip0_7396_111546">
<rect width="32" height="32" fill="white" transform="translate(8 8)"/>
</clipPath>
</defs>
</svg>
