<svg width="48" height="48" viewBox="0 0 48 48" fill="none" xmlns="http://www.w3.org/2000/svg">
<path d="M18.3988 24.0008C20.1661 24.0008 21.5988 22.5681 21.5988 20.8008C21.5988 19.0335 20.1661 17.6008 18.3988 17.6008C16.6315 17.6008 15.1988 19.0335 15.1988 20.8008C15.1988 22.5681 16.6315 24.0008 18.3988 24.0008Z" fill="#B6B6B6"/>
<path d="M29.5988 19.2008C31.3661 19.2008 32.7988 17.7681 32.7988 16.0008C32.7988 14.2335 31.3661 12.8008 29.5988 12.8008C27.8315 12.8008 26.3988 14.2335 26.3988 16.0008C26.3988 17.7681 27.8315 19.2008 29.5988 19.2008Z" fill="#B6B6B6"/>
<path d="M37.0548 27.5624C35.8644 24.4264 32.938 22.4008 29.5988 22.4008C27.1844 22.4008 24.9972 23.4712 23.514 25.2424C25.9108 26.4744 27.8324 28.556 28.8452 31.2264C28.938 31.4712 28.9924 31.7208 29.0484 31.9704C29.2324 31.9784 29.4148 32.0024 29.5988 32.0024C31.674 32.0024 33.7492 31.524 35.8084 30.5656C36.946 30.036 37.4932 28.7176 37.0532 27.564L37.0548 27.5624Z" fill="#B6B6B6"/>
<path d="M25.8548 32.3624C24.6644 29.2264 21.738 27.2008 18.3988 27.2008C15.0596 27.2008 12.1332 29.2264 10.9428 32.3624C10.5028 33.5176 11.05 34.836 12.1876 35.3656C14.2484 36.324 16.322 36.8024 18.3972 36.8024C20.4724 36.8024 22.5476 36.324 24.6068 35.3656C25.7444 34.836 26.2916 33.5176 25.8516 32.364L25.8548 32.3624Z" fill="#B6B6B6"/>
</svg>
