<svg width="48" height="48" viewBox="0 0 48 48" fill="none" xmlns="http://www.w3.org/2000/svg">
<path d="M22.4189 11.2646C23.2898 10.602 24.4877 10.5599 25.4004 11.1406L25.5791 11.2646L34.9121 18.3584C35.558 18.8508 35.9433 19.6279 35.9434 20.4365V33.333C35.9433 35.7537 33.9754 37.7217 31.5547 37.7217H27.166V31.1104C27.1659 29.3623 25.7471 27.9443 23.999 27.9443C22.251 27.9444 20.8322 29.3624 20.832 31.1104V37.7217H16.4434C14.0228 37.7216 12.0548 35.7536 12.0547 33.333V20.4365C12.0548 19.6781 12.3939 18.9465 12.9678 18.4541L13.0859 18.3584L22.4189 11.2646Z" fill="#B6B6B6" stroke="#B6B6B6"/>
</svg>
