<svg width="48" height="48" viewBox="0 0 48 48" fill="none" xmlns="http://www.w3.org/2000/svg">
<path d="M31.6994 10.9261C29.0864 8.35213 24.8514 8.37113 22.2594 10.9631L21.5664 11.6561L34.4934 25.0981L39.8984 19.6931L31.6994 10.9261Z" fill="#B6B6B6"/>
<path d="M23.0793 21.6672L18.9983 17.5862V12.3822L11.8012 8.7832L8.78125 11.8032L12.3802 19.0002H17.5843L21.6652 23.0812L23.0793 21.6672Z" fill="#B6B6B6"/>
<path d="M37.6024 31.4603L30.7924 25.1543L25.3594 31.0213L31.4554 37.6063C32.2674 38.4813 33.3714 38.9773 34.5634 38.9993C34.5924 38.9993 34.6214 38.9993 34.6504 38.9993C35.8104 38.9993 36.8994 38.5493 37.7224 37.7253C38.5664 36.8813 39.0184 35.7593 38.9944 34.5663C38.9724 33.3733 38.4764 32.2693 37.6004 31.4593L37.6024 31.4603Z" fill="#B6B6B6"/>
<path d="M24.9118 18.0181L10.3938 31.4601C9.51884 32.2711 9.02284 33.3751 9.00084 34.5681C8.97784 35.7611 9.42984 36.8831 10.2738 37.7261C11.0968 38.5501 12.1848 39.0001 13.3458 39.0001C13.3738 39.0001 13.4028 39.0001 13.4318 39.0001C14.6248 38.9781 15.7288 38.4821 16.5398 37.6071L29.8868 23.1921L24.9118 18.0191V18.0181Z" fill="#B6B6B6"/>
</svg>
