<svg width="48" height="48" viewBox="0 0 48 48" fill="none" xmlns="http://www.w3.org/2000/svg">
<g clip-path="url(#clip0_6001_36854)">
<path d="M39 26H32V22C32 21.677 31.844 21.374 31.581 21.186L25 16.485V13H30C30.552 13 31 12.552 31 12V9C31 8.448 30.552 8 30 8H24C23.448 8 23 8.448 23 9V16.485L16.419 21.186C16.156 21.374 16 21.677 16 22V26H9C8.448 26 8 26.448 8 27V39C8 39.552 8.448 40 9 40H21V33C21 32.448 21.448 32 22 32H26C26.552 32 27 32.448 27 33V40H39C39.552 40 40 39.552 40 39V27C40 26.448 39.552 26 39 26ZM16 33C16 33.552 15.552 34 15 34H13C12.448 34 12 33.552 12 33V31C12 30.448 12.448 30 13 30H15C15.552 30 16 30.448 16 31V33ZM26 27C26 27.552 25.552 28 25 28H23C22.448 28 22 27.552 22 27V25C22 24.448 22.448 24 23 24H25C25.552 24 26 24.448 26 25V27ZM36 33C36 33.552 35.552 34 35 34H33C32.448 34 32 33.552 32 33V31C32 30.448 32.448 30 33 30H35C35.552 30 36 30.448 36 31V33Z" fill="#B6B6B6"/>
</g>
<defs>
<clipPath id="clip0_6001_36854">
<rect width="32" height="32" fill="white" transform="translate(8 8)"/>
</clipPath>
</defs>
</svg>
