<svg width="18" height="19" viewBox="0 0 18 19" fill="none" xmlns="http://www.w3.org/2000/svg">
<path d="M8.99967 4.99844C9.99378 4.99844 10.7997 4.19255 10.7997 3.19844C10.7997 2.20432 9.99378 1.39844 8.99967 1.39844C8.00555 1.39844 7.19967 2.20432 7.19967 3.19844C7.19967 4.19255 8.00555 4.99844 8.99967 4.99844Z" fill="#C6C6C6"/>
<path d="M14.2002 5.02041C14.645 4.91877 15.1032 5.1694 15.2522 5.61104C15.401 6.0525 15.1884 6.52885 14.7732 6.71758L14.6871 6.75098C11.0658 7.973 7.38669 8.01391 3.67701 6.86787L3.31842 6.75361L3.23228 6.72021C2.81567 6.53456 2.59894 6.05973 2.74449 5.61719C2.89026 5.17464 3.34673 4.92142 3.79215 5.01953L3.88092 5.04326L4.53131 5.24453C7.77575 6.18119 10.9614 6.10924 14.1123 5.0459L14.2002 5.02041Z" fill="#C6C6C6"/>
<path d="M7.6901 5.89932C8.18649 5.92188 8.57111 6.34251 8.54879 6.83887L8.09879 16.7389C8.07622 17.2353 7.65559 17.6199 7.15924 17.5976C6.66284 17.575 6.27822 17.1544 6.30055 16.658L6.75055 6.75801C6.77311 6.26161 7.19374 5.87699 7.6901 5.89932Z" fill="#C6C6C6"/>
<path d="M10.3092 5.89932C10.7745 5.87839 11.1733 6.21465 11.24 6.66572L11.2488 6.75801L11.6988 16.658L11.6979 16.7494C11.6726 17.205 11.3057 17.5764 10.8401 17.5976C10.3748 17.6185 9.97602 17.2822 9.90934 16.8312L9.90055 16.7389L9.45055 6.83887L9.45142 6.74746C9.47673 6.29188 9.84364 5.92048 10.3092 5.89932Z" fill="#C6C6C6"/>
<path d="M9.89967 7.69844H8.09967V11.2984H9.89967V7.69844Z" fill="#C6C6C6"/>
<path d="M9.89967 6.79844L9.99195 6.80283C10.4457 6.84903 10.7997 7.23253 10.7997 7.69844V11.2984C10.7997 11.7955 10.3967 12.1984 9.89967 12.1984H8.09967C7.60261 12.1984 7.19967 11.7955 7.19967 11.2984V7.69844L7.20406 7.60615C7.25026 7.15244 7.63376 6.79844 8.09967 6.79844H9.89967Z" fill="#C6C6C6"/>
</svg>
