<svg width="18" height="19" viewBox="0 0 18 19" fill="none" xmlns="http://www.w3.org/2000/svg">
<path d="M13.9087 4.59091C15.0384 4.59091 15.9542 3.67513 15.9542 2.54545C15.9542 1.41578 15.0384 0.5 13.9087 0.5C12.7791 0.5 11.8633 1.41578 11.8633 2.54545C11.8633 3.67513 12.7791 4.59091 13.9087 4.59091Z" fill="#C6C6C6"/>
<path d="M4.09038 4.59091C2.9607 4.59091 2.04492 3.67513 2.04492 2.54545C2.04492 1.41578 2.9607 0.5 4.09038 0.5C5.22004 0.5 6.13583 1.41578 6.13583 2.54545C6.13583 3.67513 5.22004 4.59091 4.09038 4.59091Z" fill="#C6C6C6"/>
<path d="M0 9.49716C0 7.23779 1.83156 5.40625 4.09091 5.40625C5.6961 5.40625 7.0846 6.33084 7.75432 7.67462L8.72161 9.51806C7.837 9.65225 7.15909 10.416 7.15909 11.3381C7.15909 12.3548 7.98329 13.179 9 13.179C10.0167 13.179 10.8409 12.3548 10.8409 11.3381C10.8409 10.4194 10.1679 9.65781 9.28804 9.51958L10.2727 7.67335C10.9426 6.33022 12.3308 5.40625 13.9355 5.40625C16.1948 5.40625 18 7.23783 18 9.49716V14.3845L16.3636 14.8153V18.4972H11.4545V16.5682L14.0199 13.1656C14.1946 12.9337 14.1869 12.6121 14.0012 12.389C13.7596 12.0988 13.3192 12.0885 13.0506 12.354C11.9727 13.4194 10.613 14.4063 8.99996 14.4063C7.38552 14.4063 6.02378 13.4148 4.94403 12.3471C4.67227 12.0783 4.22534 12.0927 3.98614 12.3907C3.80712 12.6138 3.80225 12.9298 3.97424 13.1583L6.54545 16.573V18.4972H1.63636V14.7674L0 14.4063V9.49716Z" fill="#C6C6C6"/>
</svg>
