<svg width="18" height="19" viewBox="0 0 18 19" fill="none" xmlns="http://www.w3.org/2000/svg">
<path fill-rule="evenodd" clip-rule="evenodd" d="M0.5625 9.5C0.5625 4.8401 4.3401 1.0625 9 1.0625C13.6599 1.0625 17.4375 4.8401 17.4375 9.5C17.4375 14.1599 13.6599 17.9375 9 17.9375C4.3401 17.9375 0.5625 14.1599 0.5625 9.5ZM5.76467 11.027L5.60423 10.4879L4.52597 10.8088L4.68642 11.3479C5.23952 13.2064 6.96066 14.5625 9 14.5625C11.0393 14.5625 12.7605 13.2064 13.3136 11.3479L13.474 10.8088L12.3958 10.4879L12.2353 11.027C11.8203 12.4216 10.528 13.4375 9 13.4375C7.47197 13.4375 6.17974 12.4216 5.76467 11.027ZM11.8125 6.6875C11.1912 6.6875 10.6875 7.19116 10.6875 7.8125C10.6875 8.43384 11.1912 8.9375 11.8125 8.9375C12.4338 8.9375 12.9375 8.43384 12.9375 7.8125C12.9375 7.19116 12.4338 6.6875 11.8125 6.6875ZM6.1875 6.6875C5.56618 6.6875 5.0625 7.19116 5.0625 7.8125C5.0625 8.43384 5.56618 8.9375 6.1875 8.9375C6.80884 8.9375 7.3125 8.43384 7.3125 7.8125C7.3125 7.19116 6.80884 6.6875 6.1875 6.6875Z" fill="#C6C6C6"/>
</svg>
