<svg width="19" height="19" viewBox="0 0 19 19" fill="none" xmlns="http://www.w3.org/2000/svg">
<path fill-rule="evenodd" clip-rule="evenodd" d="M6.14879 9.08171C6.46046 9.62735 6.27079 10.3223 5.72516 10.634L2.76924 12.3225C2.63953 12.3966 2.63951 12.5833 2.76924 12.6574L9.40269 16.4486C9.4622 16.4826 9.53449 16.4829 9.594 16.4489L16.2278 12.6575C16.3575 12.5834 16.3577 12.3966 16.228 12.3225L13.272 10.634C12.7264 10.3223 12.5367 9.62735 12.8484 9.08171C13.1601 8.53608 13.8551 8.34641 14.4007 8.65808L17.3567 10.3465C19.0154 11.2941 19.0155 13.6855 17.3569 14.6332M17.3569 14.6332L10.7242 18.4239C9.96474 18.8583 9.03298 18.8586 8.27355 18.4242L1.64052 14.6333C-0.0181239 13.6856 -0.0182628 11.2941 1.64052 10.3466L4.59649 8.65808C5.14213 8.34641 5.83711 8.53608 6.14879 9.08171" fill="#1F1F1F"/>
<path d="M10.1591 1.85568L16.7923 5.64676C17.6866 6.15762 17.6866 7.44672 16.7923 7.95758L10.1591 11.7487C9.74948 11.9819 9.24772 11.9819 8.83812 11.7487L2.20488 7.95758C1.31058 7.44672 1.31058 6.15762 2.20488 5.64676L8.83812 1.85568C9.24772 1.62244 9.74948 1.62244 10.1591 1.85568Z" fill="#1F1F1F"/>
<path fill-rule="evenodd" clip-rule="evenodd" d="M9.40114 2.84439L2.76945 6.63458C2.63971 6.70869 2.6395 6.89553 2.76924 6.96964L9.40114 10.7599C9.46147 10.7941 9.53528 10.7944 9.59562 10.7602L16.2278 6.96976C16.3575 6.89564 16.3577 6.70881 16.228 6.6347L9.59607 2.84439C9.53571 2.8102 9.4615 2.8102 9.40114 2.84439ZM8.2751 0.866968C9.03374 0.434969 9.96347 0.434969 10.7221 0.866968L10.7237 0.867853L17.3567 4.65881C19.0153 5.60646 19.0155 7.99776 17.3569 8.94541L10.7221 12.7374C9.96347 13.1694 9.03374 13.1694 8.2751 12.7374L1.64052 8.94553C-0.0180544 7.99787 -0.0182626 5.60658 1.64031 4.65893L8.2751 0.866968Z" fill="#1F1F1F"/>
</svg>
