<svg width="24" height="24" viewBox="0 0 24 24" fill="none" xmlns="http://www.w3.org/2000/svg">
<g clip-path="url(#clip0_12014_318587)">
<circle cx="12" cy="12" r="11" fill="#848484" stroke="#F5F5F5" stroke-width="2"/>
<path fill-rule="evenodd" clip-rule="evenodd" d="M12.0006 7.47656C11.1307 7.47656 10.4256 8.18171 10.4256 9.05156V10.8016C10.4256 11.2848 10.0338 11.6766 9.55059 11.6766C9.06734 11.6766 8.67559 11.2848 8.67559 10.8016V9.05156C8.67559 7.21521 10.1642 5.72656 12.0006 5.72656C13.8369 5.72656 15.3256 7.21521 15.3256 9.05156V10.8016C15.3256 11.2848 14.9338 11.6766 14.4506 11.6766C13.9673 11.6766 13.5756 11.2848 13.5756 10.8016V9.05156C13.5756 8.18171 12.8704 7.47656 12.0006 7.47656Z" fill="white"/>
<path d="M14.8006 10.1016H9.20059C8.04258 10.1016 7.10059 11.0436 7.10059 12.2016V15.0016C7.10059 16.1596 8.04258 17.1016 9.20059 17.1016H14.8006C15.9586 17.1016 16.9006 16.1596 16.9006 15.0016V12.2016C16.9006 11.0436 15.9586 10.1016 14.8006 10.1016ZM12.7006 13.9516C12.7006 14.3381 12.3875 14.6516 12.0006 14.6516C11.6137 14.6516 11.3006 14.3381 11.3006 13.9516V13.2516C11.3006 12.865 11.6137 12.5516 12.0006 12.5516C12.3875 12.5516 12.7006 12.865 12.7006 13.2516V13.9516Z" fill="white"/>
</g>
<defs>
<clipPath id="clip0_12014_318587">
<rect width="24" height="24" fill="white"/>
</clipPath>
</defs>
</svg>
