<svg width="335" height="345" viewBox="0 0 335 345" fill="none" xmlns="http://www.w3.org/2000/svg">
<mask id="path-1-outside-1_10630_381567" maskUnits="userSpaceOnUse" x="-5" y="-0.900391" width="346" height="346" fill="black">
<rect fill="white" x="-5" y="-0.900391" width="346" height="346"/>
<path d="M337 172.1C337 78.7635 261.336 3.09961 168 3.09961C74.6639 3.09961 -1 78.7635 -1 172.1C-1 265.436 74.6639 341.1 168 341.1C261.336 341.1 337 265.436 337 172.1ZM78.768 172.1C78.768 122.818 118.719 82.8676 168 82.8676C217.281 82.8676 257.232 122.818 257.232 172.1C257.232 221.381 217.281 261.332 168 261.332C118.719 261.332 78.768 221.381 78.768 172.1Z"/>
</mask>
<path d="M337 172.1C337 78.7635 261.336 3.09961 168 3.09961C74.6639 3.09961 -1 78.7635 -1 172.1C-1 265.436 74.6639 341.1 168 341.1C261.336 341.1 337 265.436 337 172.1ZM78.768 172.1C78.768 122.818 118.719 82.8676 168 82.8676C217.281 82.8676 257.232 122.818 257.232 172.1C257.232 221.381 217.281 261.332 168 261.332C118.719 261.332 78.768 221.381 78.768 172.1Z" fill="#FF785C"/>
<path d="M337 172.1C337 78.7635 261.336 3.09961 168 3.09961C74.6639 3.09961 -1 78.7635 -1 172.1C-1 265.436 74.6639 341.1 168 341.1C261.336 341.1 337 265.436 337 172.1ZM78.768 172.1C78.768 122.818 118.719 82.8676 168 82.8676C217.281 82.8676 257.232 122.818 257.232 172.1C257.232 221.381 217.281 261.332 168 261.332C118.719 261.332 78.768 221.381 78.768 172.1Z" stroke="#FF603F" stroke-width="6.19858" mask="url(#path-1-outside-1_10630_381567)"/>
<mask id="path-2-outside-2_10630_381567" maskUnits="userSpaceOnUse" x="215" y="138.1" width="126" height="176" fill="black">
<rect fill="white" x="215" y="138.1" width="126" height="176"/>
<path d="M266.268 309.593C292.292 290.993 312.503 265.39 324.552 235.758C336.601 206.127 339.993 173.684 334.334 142.201L255.824 156.313C258.812 172.936 257.021 190.066 250.66 205.711C244.298 221.357 233.626 234.875 219.886 244.696L266.268 309.593Z"/>
</mask>
<path d="M266.268 309.593C292.292 290.993 312.503 265.39 324.552 235.758C336.601 206.127 339.993 173.684 334.334 142.201L255.824 156.313C258.812 172.936 257.021 190.066 250.66 205.711C244.298 221.357 233.626 234.875 219.886 244.696L266.268 309.593Z" fill="#FF785C"/>
<path d="M266.268 309.593C292.292 290.993 312.503 265.39 324.552 235.758C336.601 206.127 339.993 173.684 334.334 142.201L255.824 156.313C258.812 172.936 257.021 190.066 250.66 205.711C244.298 221.357 233.626 234.875 219.886 244.696L266.268 309.593Z" stroke="#FF603F" stroke-width="6.19858" mask="url(#path-2-outside-2_10630_381567)"/>
<mask id="path-3-outside-3_10630_381567" maskUnits="userSpaceOnUse" x="226" y="48.0996" width="113" height="114" fill="black">
<rect fill="white" x="226" y="48.0996" width="113" height="114"/>
<path d="M334.882 145.43C329.284 110.396 312.801 78.0122 287.77 52.8683L231.239 109.145C244.455 122.421 253.158 139.52 256.114 158.018L334.882 145.43Z"/>
</mask>
<path d="M334.882 145.43C329.284 110.396 312.801 78.0122 287.77 52.8683L231.239 109.145C244.455 122.421 253.158 139.52 256.114 158.018L334.882 145.43Z" fill="#FF785C"/>
<path d="M334.882 145.43C329.284 110.396 312.801 78.0122 287.77 52.8683L231.239 109.145C244.455 122.421 253.158 139.52 256.114 158.018L334.882 145.43Z" stroke="#FF603F" stroke-width="6.19858" mask="url(#path-3-outside-3_10630_381567)"/>
<mask id="path-4-outside-4_10630_381567" maskUnits="userSpaceOnUse" x="-5" y="48.0996" width="279" height="297" fill="black">
<rect fill="white" x="-5" y="48.0996" width="279" height="297"/>
<path d="M48.499 52.5986C18.3127 82.7848 0.668816 123.277 -0.887636 165.938C-2.44409 208.599 12.2023 250.269 40.1085 282.575C68.0148 314.88 107.113 335.428 149.548 340.089C191.982 344.75 234.609 333.179 268.862 307.701L221.255 243.697C203.169 257.15 180.663 263.259 158.257 260.798C135.852 258.337 115.208 247.488 100.473 230.431C85.7388 213.373 78.0055 191.371 78.8273 168.846C79.6491 146.321 88.9651 124.941 104.903 109.003L48.499 52.5986Z"/>
</mask>
<path d="M48.499 52.5986C18.3127 82.7848 0.668816 123.277 -0.887636 165.938C-2.44409 208.599 12.2023 250.269 40.1085 282.575C68.0148 314.88 107.113 335.428 149.548 340.089C191.982 344.75 234.609 333.179 268.862 307.701L221.255 243.697C203.169 257.15 180.663 263.259 158.257 260.798C135.852 258.337 115.208 247.488 100.473 230.431C85.7388 213.373 78.0055 191.371 78.8273 168.846C79.6491 146.321 88.9651 124.941 104.903 109.003L48.499 52.5986Z" fill="#FF785C"/>
<path d="M48.499 52.5986C18.3127 82.7848 0.668816 123.277 -0.887636 165.938C-2.44409 208.599 12.2023 250.269 40.1085 282.575C68.0148 314.88 107.113 335.428 149.548 340.089C191.982 344.75 234.609 333.179 268.862 307.701L221.255 243.697C203.169 257.15 180.663 263.259 158.257 260.798C135.852 258.337 115.208 247.488 100.473 230.431C85.7388 213.373 78.0055 191.371 78.8273 168.846C79.6491 146.321 88.9651 124.941 104.903 109.003L48.499 52.5986Z" stroke="#FF603F" stroke-width="6.19858" mask="url(#path-4-outside-4_10630_381567)"/>
<mask id="path-5-outside-5_10630_381567" maskUnits="userSpaceOnUse" x="44" y="-0.900391" width="183" height="115" fill="black">
<rect fill="white" x="44" y="-0.900391" width="183" height="115"/>
<path d="M222.447 12.1103C192.559 1.93912 160.42 0.343201 129.671 7.50339C98.923 14.6636 70.7951 30.2936 48.4754 52.6221L104.891 109.015C116.676 97.226 131.527 88.9734 147.762 85.1928C163.998 81.4122 180.967 82.2549 196.748 87.6253L222.447 12.1103Z"/>
</mask>
<path d="M222.447 12.1103C192.559 1.93912 160.42 0.343201 129.671 7.50339C98.923 14.6636 70.7951 30.2936 48.4754 52.6221L104.891 109.015C116.676 97.226 131.527 88.9734 147.762 85.1928C163.998 81.4122 180.967 82.2549 196.748 87.6253L222.447 12.1103Z" fill="#FF785C"/>
<path d="M222.447 12.1103C192.559 1.93912 160.42 0.343201 129.671 7.50339C98.923 14.6636 70.7951 30.2936 48.4754 52.6221L104.891 109.015C116.676 97.226 131.527 88.9734 147.762 85.1928C163.998 81.4122 180.967 82.2549 196.748 87.6253L222.447 12.1103Z" stroke="#FF603F" stroke-width="6.19858" mask="url(#path-5-outside-5_10630_381567)"/>
</svg>
