<svg width="17" height="16" viewBox="0 0 17 16" fill="none" xmlns="http://www.w3.org/2000/svg">
<path d="M3.93286 2.44336L4.01196 2.68066L5.21313 3.08105L4.01196 3.48145L3.93286 3.71875L3.6106 4.68359L3.29028 3.71875L3.21118 3.48145L2.97388 3.40234L2.00903 3.08105L2.97388 2.75977L3.21118 2.68066L3.29028 2.44336L3.61157 1.47852L3.93286 2.44336Z" fill="#1F1F1F" stroke="#1F1F1F"/>
<path d="M8.94385 2.32031C9.00173 2.32031 9.03928 2.33378 9.06299 2.34863L9.09912 2.38574L10.6929 6.41699L10.772 6.61816L10.9741 6.69727L15.0054 8.29199C15.0681 8.3167 15.1099 8.37755 15.1099 8.44629C15.1098 8.51294 15.0684 8.57522 15.0044 8.60059L10.9731 10.1943L10.772 10.2744L10.6919 10.4756L9.09814 14.5068C9.07324 14.5699 9.01163 14.6122 8.94385 14.6123C8.87594 14.6123 8.81352 14.57 8.78857 14.5068L7.19482 10.4756L7.11572 10.2744L6.91357 10.1943L2.8833 8.60059H2.88232C2.81858 8.57549 2.77694 8.51382 2.77686 8.44629C2.77686 8.37971 2.81847 8.31749 2.88232 8.29199H2.8833L6.91357 6.69727L7.11572 6.61816L7.19482 6.41699L8.78857 2.38574C8.79386 2.37285 8.8287 2.32035 8.94385 2.32031Z" fill="#1B244A" stroke="#1F1F1F"/>
</svg>
