<svg width="12" height="12" viewBox="0 0 12 12" fill="none" xmlns="http://www.w3.org/2000/svg">
<path d="M7.63648 1.09082L8.39169 3.60835L10.9092 4.36357L8.39169 5.11878L7.63648 7.63631L6.88127 5.11878L4.36377 4.36357L6.88127 3.60835L7.63648 1.09082Z" fill="white" stroke="white" stroke-width="1.33333" stroke-linecap="round" stroke-linejoin="round"/>
<path d="M5.35437 8.13974L4.25429 7.7243L3.84134 6.61674C3.69812 6.23062 3.06538 6.23062 2.92216 6.61674L2.50921 7.7243L1.40912 8.13974C1.218 8.21214 1.09082 8.39652 1.09082 8.60244C1.09082 8.80836 1.218 8.99275 1.40912 9.06514L2.50921 9.48059L2.92216 10.5881C2.99377 10.7812 3.17717 10.9089 3.38172 10.9089C3.58626 10.9089 3.76973 10.7812 3.84127 10.5881L4.25422 9.48059L5.35431 9.06514C5.54544 8.99275 5.67261 8.80836 5.67261 8.60244C5.67261 8.39652 5.5455 8.21214 5.35437 8.13974Z" fill="white"/>
</svg>
