<svg width="38" height="18" viewBox="0 0 38 18" fill="none" xmlns="http://www.w3.org/2000/svg">
<path d="M9.73507 7.45407C9.7583 9.57597 11.6396 10.2807 11.6551 10.2885C11.6396 10.3355 11.3531 11.2985 10.6641 12.2851C10.068 13.1386 9.44862 13.992 8.47314 14.0077C7.51314 14.0234 7.20346 13.4518 6.11185 13.4518C5.0125 13.4518 4.67185 13.992 3.76605 14.0234C2.82153 14.0547 2.10927 13.0994 1.5054 12.246C0.274437 10.5077 -0.662336 7.32879 0.599598 5.18339C1.22669 4.11853 2.34927 3.44516 3.56476 3.42167C4.48605 3.40601 5.36088 4.0324 5.92604 4.0324C6.49121 4.0324 7.55185 3.28073 8.66669 3.39035C9.1312 3.40601 10.4473 3.57826 11.2835 4.78407C11.2138 4.82322 9.71959 5.67668 9.73507 7.45407ZM7.9312 2.23935C8.43443 1.64428 8.76733 0.822139 8.67443 0C7.95443 0.0313196 7.07959 0.469794 6.56862 1.06487C6.10411 1.58947 5.70153 2.42727 5.80992 3.23375C6.61508 3.29639 7.43572 2.83442 7.9312 2.23935ZM15.1739 1.22264C15.5421 1.16078 15.9572 1.10652 16.4037 1.05234C16.8503 0.998156 17.3437 0.97498 17.8763 0.97498C18.644 0.97498 19.302 1.06784 19.8582 1.24589C20.4144 1.43154 20.8687 1.68695 21.229 2.03515C21.5345 2.33699 21.7773 2.70069 21.9497 3.11082C22.122 3.5287 22.2082 4.00852 22.2082 4.55019C22.2082 5.20798 22.0906 5.78066 21.8557 6.2759C21.6207 6.77114 21.2995 7.18135 20.8922 7.51412C20.4849 7.84689 19.9992 8.09455 19.4352 8.26477C18.8712 8.42724 18.2602 8.51243 17.5944 8.51243C16.9913 8.51243 16.4899 8.466 16.0825 8.38089V13.8289H15.1818V1.22264H15.1739ZM16.0747 7.58373C16.294 7.64566 16.5369 7.69209 16.8032 7.71527C17.0695 7.73845 17.3593 7.75403 17.6649 7.75403C18.8164 7.75403 19.7015 7.49094 20.336 6.95694C20.9705 6.43078 21.2838 5.64912 21.2838 4.62755C21.2838 4.13231 21.1977 3.70675 21.0332 3.34298C20.8687 2.9792 20.6337 2.67743 20.3282 2.44536C20.0227 2.21328 19.6545 2.03515 19.2394 1.91911C18.8164 1.80299 18.3542 1.74113 17.8372 1.74113C17.4299 1.74113 17.0774 1.75656 16.7797 1.78757C16.482 1.81857 16.247 1.85725 16.0747 1.88818V7.58373ZM29.3678 11.6697C29.3678 12.0335 29.3756 12.4049 29.3834 12.7686C29.3991 13.1324 29.4382 13.4883 29.5009 13.8288H28.655L28.5218 12.5443H28.4826C28.3651 12.7223 28.224 12.9003 28.0439 13.0705C27.8578 13.2554 27.65 13.4166 27.4251 13.5503C27.1901 13.6973 26.9238 13.8134 26.6183 13.8985C26.3206 13.9837 25.9916 14.0301 25.6313 14.0301C25.1848 14.0301 24.7931 13.9604 24.4563 13.8134C24.1194 13.6665 23.8375 13.4807 23.6259 13.2485C23.4066 13.0163 23.2421 12.7455 23.1403 12.4437C23.0307 12.1419 22.9758 11.8401 22.9758 11.5383C22.9758 10.4626 23.4302 9.64229 24.3466 9.06193C25.2631 8.48158 26.6339 8.20299 28.4747 8.22617V7.97851C28.4747 7.7386 28.4513 7.46777 28.4043 7.15825C28.3573 6.84874 28.2633 6.55457 28.1066 6.27606C27.9499 5.99755 27.7227 5.76523 27.4172 5.57951C27.1118 5.39378 26.6966 5.29325 26.1718 5.29325C25.7723 5.29325 25.3806 5.3551 24.9968 5.47122C24.6184 5.58293 24.2592 5.75256 23.9315 5.97421L23.6417 5.30867C24.0489 5.03008 24.472 4.83661 24.9028 4.71282C25.3336 4.5967 25.788 4.53484 26.2658 4.53484C26.9081 4.53484 27.4251 4.64321 27.8246 4.85978C28.224 5.07636 28.5452 5.3551 28.7724 5.69563C28.9995 6.03615 29.1562 6.41535 29.2424 6.84091C29.3286 7.26646 29.3678 7.68442 29.3678 8.1023V11.6697ZM28.4669 8.96899C27.9812 8.95349 27.4721 8.97674 26.9472 9.02318C26.4146 9.07728 25.9289 9.18565 25.4825 9.35595C25.036 9.52625 24.6678 9.77383 24.3701 10.1065C24.0803 10.4315 23.9314 10.8727 23.9314 11.4143C23.9314 12.0567 24.1195 12.5287 24.4876 12.8305C24.8558 13.1324 25.271 13.2871 25.7331 13.2871C26.1013 13.2871 26.4381 13.2329 26.728 13.1324C27.0178 13.0318 27.2763 12.8925 27.4956 12.7222C27.7149 12.5519 27.8951 12.3585 28.0439 12.1418C28.1927 11.9252 28.3025 11.7084 28.3807 11.4763C28.4434 11.221 28.4747 11.0429 28.4747 10.9269L28.4669 8.96899ZM31.1224 4.74367L33.4567 10.6482C33.582 10.9733 33.7073 11.3137 33.8249 11.662C33.9424 12.0103 34.0442 12.3276 34.1304 12.6216H34.1695C34.2557 12.343 34.3575 12.0335 34.475 11.6853C34.5925 11.337 34.7179 10.981 34.8589 10.6173L37.0443 4.75142H38L35.3367 11.4143C35.0704 12.1186 34.8118 12.7609 34.5768 13.3335C34.3419 13.9061 34.099 14.4247 33.8562 14.889C33.6134 15.3533 33.3706 15.7558 33.1199 16.1117C32.8692 16.4677 32.595 16.7773 32.2896 17.0404C31.9292 17.3576 31.6002 17.5898 31.3025 17.7291C31.0049 17.8761 30.8012 17.969 30.6994 18L30.3939 17.2648C30.6211 17.1642 30.8796 17.0326 31.1616 16.8701C31.4435 16.7077 31.7177 16.4909 31.9841 16.2278C32.2112 16.0034 32.4697 15.7016 32.7439 15.3301C33.018 14.9586 33.2609 14.5098 33.4802 13.9758C33.5585 13.7746 33.5977 13.6431 33.5977 13.5812C33.5977 13.4961 33.5585 13.3568 33.4802 13.1866L30.1668 4.76684H31.1225L31.1224 4.74367Z" fill="#010101"/>
</svg>
