<svg width="24" height="25" viewBox="0 0 24 25" fill="none" xmlns="http://www.w3.org/2000/svg">
<path d="M18.0851 13.1906C18.0582 10.4066 20.3905 9.06903 20.4954 9.00534C19.1826 7.11308 17.1436 6.85299 16.4172 6.8238C14.6821 6.64864 13.0304 7.8323 12.1481 7.8323C11.2657 7.8323 9.90726 6.84769 8.46807 6.87688C6.57426 6.90342 4.8284 7.96234 3.8519 9.63432C1.88815 12.9942 3.35155 17.9836 5.26957 20.7145C6.20841 22.0494 7.3221 23.5542 8.79088 23.4985C10.2059 23.4428 10.7385 22.5962 12.444 22.5962C14.1495 22.5962 14.631 23.4985 16.124 23.472C17.6439 23.4428 18.607 22.1078 19.5377 20.7676C20.6084 19.215 21.0522 17.7156 21.0791 17.6359C21.0442 17.6227 18.1174 16.516 18.0851 13.1906Z" fill="black"/>
<path d="M15.2793 5.01381C16.0595 4.08228 16.584 2.78981 16.4415 1.5C15.3197 1.54512 13.9612 2.23779 13.1569 3.16933C12.4359 3.99205 11.8038 5.3084 11.9759 6.57168C13.2214 6.66722 14.5019 5.94269 15.2793 5.01381Z" fill="black"/>
</svg>
