<svg width="12" height="13" viewBox="0 0 12 13" fill="none" xmlns="http://www.w3.org/2000/svg">
<path d="M6.45846 2.08798L7.52586 4.25038L9.91326 4.59718C10.3321 4.65778 10.4995 5.17258 10.1965 5.46838L8.46906 7.15198L8.87706 9.52918C8.94846 9.94618 8.51106 10.2642 8.13606 10.0674L6.00126 8.94538L3.86646 10.0674C3.49206 10.2642 3.05406 9.94618 3.12546 9.52918L3.53346 7.15198L1.80606 5.46838C1.50306 5.17318 1.67046 4.65838 2.08926 4.59718L4.47666 4.25038L5.54406 2.08798C5.73126 1.70818 6.27246 1.70818 6.45966 2.08798H6.45846Z" fill="#FF603F"/>
<path fill-rule="evenodd" clip-rule="evenodd" d="M7.01264 1.85513C7.00805 1.84422 7.00311 1.83341 6.99784 1.82271C6.59071 0.996701 5.41337 0.996596 5.00604 1.8224L4.07826 3.70195L2.00301 4.00341C1.09358 4.1363 0.727398 5.25503 1.38728 5.89805L2.88874 7.36144L2.53411 9.42768C2.37876 10.3349 3.33128 11.0265 4.1456 10.5985L6.00126 9.6232L7.85692 10.5985C8.6717 11.0261 9.6238 10.3352 9.46845 9.42791L9.11378 7.36144L10.6152 5.89805C11.2733 5.25561 10.9111 4.13557 9.99951 4.00341L7.92427 3.70195L7.01264 1.85513ZM6.00126 2.51729L5.01468 4.51595C4.92728 4.69303 4.75834 4.81576 4.56291 4.84414L2.35439 5.16496L3.95224 6.7223C4.09369 6.86016 4.15823 7.0588 4.12482 7.25347L3.74746 9.4521L5.72212 8.41426C5.89688 8.32241 6.10564 8.32241 6.2804 8.41426L8.25506 9.4521L7.87771 7.25347C7.8443 7.0588 7.90883 6.86016 8.05028 6.7223L9.64813 5.16496L7.43961 4.84414C7.24419 4.81576 7.07525 4.69303 6.98784 4.51595L6.00126 2.51729Z" fill="#FF603F"/>
</svg>
