<svg width="133" height="50" viewBox="0 0 133 50" fill="none" xmlns="http://www.w3.org/2000/svg">
<g clip-path="url(#clip0_9315_328409)">
<path d="M92.7116 19.0914L110.48 11.5146" stroke="white" stroke-width="1.60964" stroke-linecap="round"/>
<path d="M18.3574 19.5195C14.7638 27.7484 11.1702 35.9773 9.6419 39.5083C8.11357 43.0394 8.75938 41.6232 10.778 38.6023C12.7966 35.5815 16.1683 30.9989 19.8638 27.095C23.5594 23.1912 27.4764 20.105 30.5658 18.0609C33.6552 16.0169 35.7983 15.1084 37.3788 14.6725C39.847 13.9917 41.5083 14.4801 42.5801 14.5176C43.3943 14.546 44.2543 12.4811 45.2729 9.7398C46.1634 7.34329 45.6946 5.55808 45.3987 4.94534C45.2892 4.71848 44.9706 4.87407 41.7552 9.92369C38.5397 14.9733 32.3625 24.9664 28.8815 30.4651C25.4005 35.9638 24.8028 36.6654 24.4204 36.8901C24.038 37.1149 23.8889 36.8416 23.8782 36.4301C23.8532 35.4698 24.7817 33.5031 26.0981 30.7819C27.3178 28.2606 28.5602 26.953 29.2472 26.7927C29.6955 26.688 29.5458 27.8338 29.9074 29.3922C30.0144 29.8535 30.466 30.1901 30.8989 30.4162C31.3318 30.6422 31.8543 30.7013 34.0063 29.4229C36.1584 28.1445 39.9242 25.5267 44.4094 21.7414C48.8946 17.956 53.985 13.0824 56.9342 9.80411C59.8834 6.52582 60.5373 4.99053 60.6574 4.04145C60.7776 3.09237 60.3442 2.77601 55.4551 10.2432C50.5659 17.7104 41.234 32.9708 36.4562 40.5709C31.6784 48.1711 31.7376 47.6486 32.1245 46.3506C32.5115 45.0526 33.2244 42.9948 34.9433 39.6329C36.6622 36.271 39.3654 31.6672 41.5463 28.4274C43.7272 25.1877 45.3039 23.4513 46.2893 22.4728C47.2747 21.4943 47.6211 21.3262 47.7119 21.6525C48.0215 22.7653 47.3614 25.2767 47.3026 27.9296C47.2798 28.9612 47.4703 29.3535 49.8489 27.4736C52.2275 25.5937 56.8393 21.4296 59.0274 19.7624C61.2154 18.0952 60.8399 19.051 60.5713 20.3041C59.9831 23.0476 60.1874 25.3767 60.9028 26.1776C61.2559 26.5728 62.283 25.6354 63.5198 24.3326C64.7566 23.0298 66.3493 21.0553 67.3251 19.5102C68.3008 17.965 68.6112 16.9091 68.5735 16.2801C68.5358 15.651 68.1404 15.4808 67.684 15.7709C67.2276 16.061 66.722 16.8166 65.8822 18.8778C65.0425 20.939 63.8839 24.2828 63.0271 27.5553C62.1702 30.8277 61.6503 33.9274 61.5991 35.6825C61.5479 37.4375 61.9812 37.7538 65.8303 34.5358C69.6794 31.3178 76.931 24.5558 80.3924 21.5923C83.8538 18.6288 83.3051 19.6686 83.0144 20.3234C82.7238 20.9782 82.7077 21.2164 82.6912 21.4619" stroke="white" stroke-width="1.60964" stroke-linecap="round"/>
</g>
<defs>
<clipPath id="clip0_9315_328409">
<rect width="50" height="132.857" fill="white" transform="matrix(0 1 -1 0 133 0)"/>
</clipPath>
</defs>
</svg>
