<svg width="32" height="42" viewBox="0 0 32 42" fill="none" xmlns="http://www.w3.org/2000/svg">
<rect x="0.5" y="41.5" width="41" height="31" rx="7.95825" transform="rotate(-90 0.5 41.5)" fill="#16203B" stroke="url(#paint0_linear_13007_167021)"/>
<path d="M10.6164 41.2979V28.1376M10.6164 28.1376L5.44834 24.4385L0.710938 27.0705M10.6164 28.1376L15.8563 24.4385L21.3115 28.1376M21.3115 28.1376V41.2979M21.3115 28.1376L26.982 24.4385L31.2887 27.0705" stroke="url(#paint1_linear_13007_167021)"/>
<path d="M10.6164 0.553711V13.714M10.6164 13.714L5.44834 17.4131L0.710938 14.781M10.6164 13.714L15.8563 17.4131L21.3115 13.714M21.3115 13.714V0.553711M21.3115 13.714L26.982 17.4131L31.2887 14.781" stroke="url(#paint2_linear_13007_167021)"/>
<defs>
<linearGradient id="paint0_linear_13007_167021" x1="21" y1="42" x2="21" y2="74" gradientUnits="userSpaceOnUse">
<stop stop-color="#627AD0"/>
<stop offset="1" stop-color="#293769"/>
</linearGradient>
<linearGradient id="paint1_linear_13007_167021" x1="0.710937" y1="32.8682" x2="31.2887" y2="32.8682" gradientUnits="userSpaceOnUse">
<stop stop-color="#627AD0"/>
<stop offset="1" stop-color="#293769"/>
</linearGradient>
<linearGradient id="paint2_linear_13007_167021" x1="0.710937" y1="8.98339" x2="31.2887" y2="8.98339" gradientUnits="userSpaceOnUse">
<stop stop-color="#627AD0"/>
<stop offset="1" stop-color="#293769"/>
</linearGradient>
</defs>
</svg>
