<svg width="32" height="32" viewBox="0 0 32 32" fill="none" xmlns="http://www.w3.org/2000/svg">
<path d="M0 16C0 7.16344 7.16344 0 16 0C24.8366 0 32 7.16344 32 16C32 24.8366 24.8366 32 16 32C7.16344 32 0 24.8366 0 16Z" fill="white"/>
<path d="M20.2 16.0004C20.2 13.6808 18.3195 11.8005 16 11.8004C14.8244 11.8004 13.7631 12.2819 12.9997 13.0609L12.5 12.5708L11.9996 12.0813C13.0155 11.0446 14.433 10.4004 16 10.4004C19.0927 10.4005 21.6 12.9076 21.6 16.0004C21.6 19.0932 19.0927 21.6003 16 21.6004C13.7653 21.6004 11.837 20.291 10.9393 18.4005C10.7736 18.0513 10.9224 17.6339 11.2716 17.4681C11.5988 17.3128 11.986 17.4335 12.1698 17.7367L12.204 17.8003L12.3393 18.0614C13.0603 19.3394 14.4305 20.2004 16 20.2004C18.3195 20.2003 20.2 18.32 20.2 16.0004ZM12.9997 13.0609C12.7291 13.337 12.286 13.3417 12.0098 13.0712C11.7338 12.8007 11.7293 12.3575 11.9996 12.0813L12.9997 13.0609Z" fill="#FF603F"/>
<path d="M12.0568 11.1312L11.6396 13.759L14.2611 13.3019L12.0568 11.1312Z" fill="#FF603F"/>
<path d="M11.8378 10.4661C12.0869 10.3841 12.3612 10.4482 12.5481 10.6322L14.752 12.8033C14.9388 12.9873 15.0071 13.2605 14.929 13.5108C14.8508 13.7609 14.6396 13.9463 14.3815 13.9913L11.7599 14.4487C11.5372 14.4875 11.3091 14.4166 11.1481 14.2579C10.9871 14.0994 10.9131 13.8727 10.9484 13.6495L11.3654 11.0211L11.3873 10.9268C11.4531 10.7111 11.6199 10.5378 11.8378 10.4661ZM12.4845 12.901L12.8003 12.8456L12.5344 12.5845L12.4845 12.901Z" fill="#FF603F"/>
</svg>
