<svg width="20" height="20" viewBox="0 0 20 20" fill="none" xmlns="http://www.w3.org/2000/svg">
<path d="M9.99936 1.66406C14.6019 1.66406 18.3327 5.3949 18.3327 9.9974C18.3327 14.5999 14.6019 18.3307 9.99936 18.3307C8.52666 18.3333 7.07985 17.9435 5.80769 17.2016L1.66936 18.3307L2.79603 14.1907C2.05349 12.9182 1.66345 11.4707 1.66603 9.9974C1.66603 5.3949 5.39686 1.66406 9.99936 1.66406ZM7.15936 6.08073L6.99269 6.0874C6.88494 6.09482 6.77965 6.12312 6.68269 6.17073C6.59234 6.22199 6.50983 6.28598 6.4377 6.36073C6.3377 6.4549 6.28103 6.53656 6.22019 6.61573C5.91196 7.01648 5.74601 7.50849 5.74853 8.01406C5.7502 8.4224 5.85686 8.8199 6.02353 9.19156C6.36436 9.94323 6.92519 10.7391 7.66519 11.4766C7.84353 11.6541 8.01853 11.8324 8.20686 11.9982C9.12639 12.8077 10.2221 13.3915 11.4069 13.7032L11.8802 13.7757C12.0344 13.7841 12.1885 13.7724 12.3435 13.7649C12.5862 13.7521 12.8231 13.6864 13.0377 13.5724C13.1467 13.516 13.2532 13.4548 13.3569 13.3891C13.3569 13.3891 13.3921 13.3652 13.461 13.3141C13.5735 13.2307 13.6427 13.1716 13.736 13.0741C13.806 13.0018 13.8644 12.918 13.911 12.8224C13.976 12.6866 14.041 12.4274 14.0677 12.2116C14.0877 12.0466 14.0819 11.9566 14.0794 11.9007C14.076 11.8116 14.0019 11.7191 13.921 11.6799L13.436 11.4624C13.436 11.4624 12.711 11.1466 12.2677 10.9449C12.2213 10.9247 12.1716 10.9131 12.121 10.9107C12.064 10.9048 12.0064 10.9111 11.952 10.9294C11.8977 10.9476 11.8479 10.9774 11.806 11.0166C11.8019 11.0149 11.746 11.0624 11.1435 11.7924C11.1089 11.8389 11.0613 11.874 11.0067 11.8933C10.9521 11.9126 10.893 11.9152 10.8369 11.9007C10.7826 11.8863 10.7294 11.8679 10.6777 11.8457C10.5744 11.8024 10.5385 11.7857 10.4677 11.7557C9.98926 11.5473 9.5464 11.2653 9.1552 10.9199C9.0502 10.8282 8.9527 10.7282 8.8527 10.6316C8.52487 10.3176 8.23915 9.96238 8.00269 9.5749L7.95353 9.49573C7.91875 9.44223 7.89023 9.38491 7.86853 9.3249C7.83686 9.2024 7.91936 9.10406 7.91936 9.10406C7.91936 9.10406 8.12186 8.8824 8.21603 8.7624C8.30769 8.64573 8.38519 8.5324 8.43519 8.45156C8.53353 8.29323 8.56436 8.13073 8.5127 8.0049C8.27936 7.4349 8.03825 6.86795 7.78936 6.30406C7.74019 6.1924 7.59436 6.1124 7.46186 6.09656C7.41686 6.09101 7.37186 6.08656 7.32686 6.08323C7.21497 6.07681 7.10277 6.07792 6.99103 6.08656L7.15936 6.08073Z" fill="#949494"/>
</svg>
