<svg width="20" height="21" viewBox="0 0 20 21" fill="none" xmlns="http://www.w3.org/2000/svg">
<path d="M14 3.5H6C4.3431 3.5 3 4.8431 3 6.5V8.5H17V6.5C17 4.8431 15.6569 3.5 14 3.5ZM6 6.5C5.4477 6.5 5 6.0522 5 5.5C5 4.9478 5.4477 4.5 6 4.5C6.5523 4.5 7 4.9477 7 5.5C7 6.0523 6.5523 6.5 6 6.5ZM9 6.5C8.4477 6.5 8 6.0522 8 5.5C8 4.9478 8.4477 4.5 9 4.5C9.5523 4.5 10 4.9477 10 5.5C10 6.0523 9.5523 6.5 9 6.5Z" fill="#B6B6B6"/>
<path d="M3 6.5L3 14.5C3 16.1569 4.34315 17.5 6 17.5H14C15.6569 17.5 17 16.1569 17 14.5V6.5C17 4.84315 15.6569 3.5 14 3.5H6C4.34315 3.5 3 4.84315 3 6.5Z" stroke="#B6B6B6" stroke-width="2" stroke-linecap="round" stroke-linejoin="round"/>
</svg>
