<svg width="20" height="20" viewBox="0 0 20 20" fill="none" xmlns="http://www.w3.org/2000/svg">
<path d="M19.5819 5.15375C19.3519 4.2875 18.6744 3.60562 17.8138 3.37375C16.2537 2.95312 10 2.95312 10 2.95312C10 2.95312 3.74562 2.95312 2.18625 3.37375C1.32562 3.605 0.648125 4.2875 0.418125 5.15375C0 6.72375 0 9.99875 0 9.99875C0 9.99875 0 13.2744 0.418125 14.8438C0.648125 15.71 1.32562 16.3919 2.18625 16.6231C3.74625 17.0437 10 17.0437 10 17.0437C10 17.0437 16.2544 17.0437 17.8138 16.6231C18.6744 16.3919 19.3519 15.7094 19.5819 14.8438C20 13.2738 20 9.99875 20 9.99875C20 9.99875 20 6.72375 19.5819 5.15375ZM7.95437 12.9725V7.025L13.1819 9.99875L7.95437 12.9725Z" fill="#949494"/>
</svg>
