<svg width="20" height="20" viewBox="0 0 20 20" fill="none" xmlns="http://www.w3.org/2000/svg">
<path d="M10.8565 1.66406C11.794 1.66656 12.2698 1.67156 12.6807 1.68323L12.8423 1.68906C13.029 1.69573 13.2132 1.70406 13.4357 1.71406C14.3223 1.75573 14.9273 1.89573 15.4582 2.10156C16.0082 2.31323 16.4715 2.5999 16.9348 3.0624C17.3587 3.47884 17.6866 3.98279 17.8957 4.53906C18.1015 5.0699 18.2415 5.6749 18.2832 6.5624C18.2932 6.78406 18.3015 6.96823 18.3082 7.15573L18.3132 7.3174C18.3257 7.7274 18.3307 8.20323 18.3323 9.14073L18.3332 9.7624V10.8541C18.3352 11.4619 18.3288 12.0697 18.314 12.6774L18.309 12.8391C18.3023 13.0266 18.294 13.2107 18.284 13.4324C18.2423 14.3199 18.1007 14.9241 17.8957 15.4557C17.6866 16.012 17.3587 16.516 16.9348 16.9324C16.5184 17.3563 16.0144 17.6842 15.4582 17.8932C14.9273 18.0991 14.3223 18.2391 13.4357 18.2807L12.8423 18.3057L12.6807 18.3107C12.2698 18.3224 11.794 18.3282 10.8565 18.3299L10.2348 18.3307H9.14399C8.53587 18.3329 7.92776 18.3265 7.31982 18.3116L7.15816 18.3066C6.96033 18.2991 6.76255 18.2905 6.56482 18.2807C5.67816 18.2391 5.07316 18.0991 4.54149 17.8932C3.98551 17.6841 3.48186 17.3562 3.06566 16.9324C2.64144 16.516 2.31325 16.0121 2.10399 15.4557C1.89816 14.9249 1.75816 14.3199 1.71649 13.4324L1.69149 12.8391L1.68732 12.6774C1.67196 12.0697 1.66502 11.4619 1.66649 10.8541V9.14073C1.66418 8.5329 1.67029 7.92506 1.68482 7.3174L1.69066 7.15573C1.69732 6.96823 1.70566 6.78406 1.71566 6.5624C1.75732 5.6749 1.89732 5.07073 2.10316 4.53906C2.3129 3.98256 2.64168 3.47859 3.06649 3.0624C3.48245 2.63869 3.98581 2.31079 4.54149 2.10156C5.07316 1.89573 5.67732 1.75573 6.56482 1.71406C6.78649 1.70406 6.97149 1.69573 7.15816 1.68906L7.31982 1.68406C7.92748 1.66926 8.53532 1.66287 9.14316 1.6649L10.8565 1.66406ZM9.99982 5.83073C8.89475 5.83073 7.83495 6.26972 7.05355 7.05112C6.27214 7.83252 5.83316 8.89233 5.83316 9.9974C5.83316 11.1025 6.27214 12.1623 7.05355 12.9437C7.83495 13.7251 8.89475 14.1641 9.99982 14.1641C11.1049 14.1641 12.1647 13.7251 12.9461 12.9437C13.7275 12.1623 14.1665 11.1025 14.1665 9.9974C14.1665 8.89233 13.7275 7.83252 12.9461 7.05112C12.1647 6.26972 11.1049 5.83073 9.99982 5.83073ZM9.99982 7.4974C10.3281 7.49734 10.6532 7.56195 10.9566 7.68754C11.2599 7.81312 11.5355 7.99723 11.7677 8.22933C11.9999 8.46144 12.1841 8.73701 12.3098 9.0403C12.4355 9.3436 12.5002 9.66867 12.5002 9.99698C12.5003 10.3253 12.4357 10.6504 12.3101 10.9537C12.1845 11.2571 12.0004 11.5327 11.7683 11.7649C11.5362 11.9971 11.2606 12.1812 10.9573 12.3069C10.654 12.4326 10.329 12.4973 10.0007 12.4974C9.33762 12.4974 8.70173 12.234 8.23289 11.7652C7.76405 11.2963 7.50066 10.6604 7.50066 9.9974C7.50066 9.33435 7.76405 8.69847 8.23289 8.22963C8.70173 7.76079 9.33762 7.4974 10.0007 7.4974M14.3757 4.58073C14.0994 4.58073 13.8344 4.69048 13.6391 4.88583C13.4437 5.08118 13.334 5.34613 13.334 5.6224C13.334 5.89866 13.4437 6.16361 13.6391 6.35897C13.8344 6.55432 14.0994 6.66406 14.3757 6.66406C14.6519 6.66406 14.9169 6.55432 15.1122 6.35897C15.3076 6.16361 15.4173 5.89866 15.4173 5.6224C15.4173 5.34613 15.3076 5.08118 15.1122 4.88583C14.9169 4.69048 14.6519 4.58073 14.3757 4.58073Z" fill="#949494"/>
</svg>
