<svg width="20" height="21" viewBox="0 0 20 21" fill="none" xmlns="http://www.w3.org/2000/svg">
<path d="M7.08116 13.4185C9.23556 15.5729 12.0727 17.0445 15.2497 17.4905C15.7387 17.5585 16.2017 17.2495 16.3267 16.7715L16.9687 14.2965C17.0877 13.8375 16.8577 13.3595 16.4237 13.1665L14.5377 12.3288C14.1357 12.1498 13.6627 12.2648 13.3877 12.6088L11.3281 14.9545C10.1061 14.2912 8.99206 13.4565 8.01776 12.4821C7.04336 11.5077 6.20866 10.3937 5.54536 9.17179L7.89106 7.11219C8.23506 6.83719 8.35006 6.36419 8.17106 5.96219L7.33336 4.07619C7.14036 3.64219 6.66236 3.41219 6.20336 3.53119L3.72836 4.17319C3.25036 4.29819 2.94136 4.76119 3.00936 5.25019C3.45536 8.42719 4.92676 11.2641 7.08116 13.4185Z" fill="#B6B6B6" stroke="#B6B6B6" stroke-width="2" stroke-linecap="round" stroke-linejoin="round"/>
</svg>
