<svg width="14" height="14" viewBox="0 0 14 14" fill="none" xmlns="http://www.w3.org/2000/svg">
<path fill-rule="evenodd" clip-rule="evenodd" d="M1.16669 2.91797C1.16669 1.95147 1.95019 1.16797 2.91669 1.16797H8.16669C9.13318 1.16797 9.91669 1.95147 9.91669 2.91797V4.66797H9.33335V2.91797C9.33335 2.27364 8.81101 1.7513 8.16669 1.7513H2.91669C2.27236 1.7513 1.75002 2.27364 1.75002 2.91797V8.16797C1.75002 8.81229 2.27236 9.33463 2.91669 9.33463H4.66669V9.91797H2.91669C1.95019 9.91797 1.16669 9.13446 1.16669 8.16797V2.91797Z" fill="white"/>
<path fill-rule="evenodd" clip-rule="evenodd" d="M4.08337 5.83594C4.08337 4.86945 4.86688 4.08594 5.83337 4.08594H11.0834C12.0499 4.08594 12.8334 4.86945 12.8334 5.83594V11.0859C12.8334 12.0524 12.0499 12.8359 11.0834 12.8359H5.83337C4.86688 12.8359 4.08337 12.0524 4.08337 11.0859V5.83594ZM5.83337 4.66927C5.18905 4.66927 4.66671 5.19161 4.66671 5.83594V11.0859C4.66671 11.7303 5.18905 12.2526 5.83337 12.2526H11.0834C11.7277 12.2526 12.25 11.7303 12.25 11.0859V5.83594C12.25 5.19161 11.7277 4.66927 11.0834 4.66927H5.83337Z" fill="white"/>
</svg>
