<svg width="24" height="24" viewBox="0 0 24 24" fill="none" xmlns="http://www.w3.org/2000/svg">
<path d="M13.2 3.60156H5.99998C4.67449 3.60156 3.59998 4.67608 3.59998 6.00156V13.2016C3.59998 14.527 4.67449 15.6016 5.99998 15.6016H13.2C14.5255 15.6016 15.6 14.527 15.6 13.2016V6.00156C15.6 4.67608 14.5255 3.60156 13.2 3.60156Z" fill="#FF603F"/>
<path d="M19.3998 18.002V9.60156C19.3998 9.04934 19.8476 8.60167 20.3998 8.60156C20.9521 8.60156 21.3998 9.04928 21.3998 9.60156V18.002C21.3996 19.8799 19.8783 21.4012 18.0004 21.4014H9.59998C9.04769 21.4014 8.59998 20.9537 8.59998 20.4014C8.60008 19.8492 9.04776 19.4014 9.59998 19.4014H18.0004C18.7738 19.4012 19.3996 18.7754 19.3998 18.002ZM14.6 6.00195C14.6 5.27707 14.0491 4.68008 13.3431 4.6084L13.1996 4.60156H6.00037C5.22717 4.60156 4.59998 5.22875 4.59998 6.00195V13.2012L4.60681 13.3447C4.6785 14.0507 5.27549 14.6016 6.00037 14.6016H13.1996C13.9728 14.6016 14.6 13.9744 14.6 13.2012V6.00195ZM16.6 13.2012C16.6 15.0789 15.0774 16.6016 13.1996 16.6016H6.00037C4.18143 16.6016 2.69615 15.1732 2.60486 13.377L2.59998 13.2012V6.00195C2.59998 4.12418 4.1226 2.60156 6.00037 2.60156H13.1996L13.3754 2.60645C15.1716 2.69773 16.6 4.18302 16.6 6.00195V13.2012Z" fill="#FF603F"/>
</svg>
