<svg width="40" height="40" viewBox="0 0 40 40" fill="none" xmlns="http://www.w3.org/2000/svg">
<path fill-rule="evenodd" clip-rule="evenodd" d="M11.0665 9.45714C11.5182 9.00492 12.1309 8.75056 12.7701 8.75H22.4129C22.5185 8.74981 22.6231 8.77044 22.7208 8.8107C22.8184 8.85096 22.9071 8.91007 22.9819 8.98464L29.4104 15.4132C29.485 15.488 29.5441 15.5767 29.5844 15.6743C29.6247 15.7719 29.6453 15.8765 29.6451 15.9821V28.8393C29.6451 29.4786 29.3911 30.0918 28.939 30.5439C28.4869 30.996 27.8737 31.25 27.2344 31.25H12.7701C12.1307 31.25 11.5176 30.996 11.0655 30.5439C10.6134 30.0918 10.3594 29.4786 10.3594 28.8393V11.1607C10.3594 10.5211 10.6133 9.90714 11.0665 9.45714ZM18.5172 14.1613C18.6458 14.7045 18.694 15.4293 18.6908 16.2104C19.7981 17.9782 21.6094 20.18 23.1217 21.5621C23.8208 21.5139 24.499 21.53 25.0342 21.6746C25.3492 21.7598 25.7815 21.9318 26.074 22.3288C26.4196 22.798 26.3987 23.338 26.2331 23.7688C26.1508 23.9948 26.0156 24.1978 25.839 24.3611C25.6623 24.5243 25.4492 24.643 25.2174 24.7073C24.7771 24.8263 24.3544 24.7298 24.0474 24.6173C23.5379 24.4309 22.9931 24.0709 22.4644 23.645C20.711 23.8892 18.9918 24.3352 17.3408 24.9741C17.1319 25.5591 16.8763 26.1055 16.5613 26.4977C16.3653 26.742 16.0535 27.0441 15.6019 27.155C15.3719 27.2087 15.1323 27.2065 14.9033 27.1487C14.6743 27.0908 14.4625 26.9789 14.2856 26.8223C13.9562 26.5459 13.6765 26.1152 13.7183 25.5607C13.7537 25.0738 14.0237 24.7089 14.2454 24.4791C14.6038 24.1079 15.131 23.7832 15.6999 23.5036C16.2319 21.6039 16.6128 18.8364 16.6738 16.7536C16.3171 16.1348 16.0229 15.5321 15.8703 15.005C15.7672 14.6808 15.7317 14.339 15.7658 14.0005C15.791 13.7681 15.8741 13.5457 16.0074 13.3536C16.1408 13.1616 16.3202 13.006 16.5292 12.9013C16.7836 12.7723 17.0736 12.7316 17.3537 12.7855C17.6259 12.8409 17.8729 12.983 18.0576 13.1905C18.3308 13.4895 18.4513 13.8816 18.5172 14.1613ZM18.4883 19.4118C19.1601 20.2829 19.8978 21.1507 20.629 21.9221C19.7352 22.1081 18.8512 22.3388 17.9804 22.6132C18.1942 21.5991 18.3662 20.4918 18.4883 19.4118Z" fill="#B6B6B6"/>
</svg>
