<svg width="20" height="20" viewBox="0 0 20 20" fill="none" xmlns="http://www.w3.org/2000/svg">
<g clip-path="url(#clip0_11672_272867)">
<path d="M11.1055 1.33594L11.6885 2.98926L11.7725 3.22754L12.0156 3.30078C12.4694 3.43802 12.9037 3.61859 13.3125 3.83887L13.5361 3.95898L13.7656 3.84961L15.3477 3.09277L16.9092 4.6543L16.1533 6.2373L16.043 6.4668L16.1641 6.69043C16.3842 7.09814 16.5639 7.53274 16.7012 7.9873L16.7744 8.22949L17.0137 8.31445L18.667 8.89648V11.1055L17.0137 11.6895L16.7744 11.7734L16.7012 12.0166C16.564 12.4703 16.3843 12.9048 16.1641 13.3135L16.043 13.5371L16.1533 13.7666L16.9092 15.3486L15.3477 16.9102L13.7656 16.1543L13.5361 16.0439L13.3125 16.165C12.9048 16.3852 12.4702 16.5649 12.0156 16.7021L11.7725 16.7754L11.6885 17.0146L11.1045 18.668H8.89648L8.31348 17.0146L8.22852 16.7754L7.98633 16.7021C7.53246 16.5649 7.09731 16.3854 6.68848 16.165L6.46484 16.0439L6.23633 16.1543L4.65332 16.9102L3.0918 15.3486L3.84863 13.7666L3.95801 13.5371L3.83789 13.3135C3.61773 12.9057 3.43705 12.4712 3.2998 12.0166L3.22656 11.7734L2.98828 11.6895L1.33496 11.1055V8.89648L2.98828 8.31445L3.22656 8.22949L3.2998 7.9873C3.43707 7.5334 3.61756 7.09831 3.83789 6.68945L3.95801 6.46582L3.84863 6.2373L3.0918 4.6543L4.65332 3.09277L6.23633 3.84961L6.46582 3.95898L6.68945 3.83887C7.09721 3.61871 7.5317 3.43803 7.98633 3.30078L8.22852 3.22754L8.31348 2.98926L8.89648 1.33594H11.1055ZM10 6.16797C7.88552 6.16797 6.16699 7.88748 6.16699 10.002C6.16709 12.1163 7.88558 13.835 10 13.835C12.1144 13.8349 13.8329 12.1163 13.833 10.002C13.833 7.88749 12.1145 6.16799 10 6.16797Z" fill="#B6B6B6" stroke="#B6B6B6"/>
</g>
<defs>
<clipPath id="clip0_11672_272867">
<rect width="20" height="20" fill="white"/>
</clipPath>
</defs>
</svg>
