<svg width="47" height="18" viewBox="0 0 47 18" fill="none" xmlns="http://www.w3.org/2000/svg">
<path d="M22.4404 2.6481V7.19595H25.2461C25.9144 7.19595 26.4669 6.97193 26.9035 6.52262C27.3529 6.07458 27.5769 5.53999 27.5769 4.92139C27.5769 4.30279 27.3529 3.78729 26.9035 3.33798C26.4656 2.87721 25.9131 2.64683 25.2461 2.64683H22.4404V2.6481ZM22.4404 8.79845V14.0744H20.7651V1.04688H25.2091C26.3383 1.04688 27.2956 1.42363 28.0861 2.17461C28.8894 2.92558 29.2891 3.84202 29.2891 4.92139C29.2891 6.00075 28.8894 6.94774 28.0861 7.68599C27.3096 8.42678 26.3497 8.7959 25.2091 8.7959H22.4404V8.79845ZM30.9822 11.3428C30.9822 11.7807 31.1667 12.1435 31.5385 12.4349C31.9089 12.7251 32.343 12.8715 32.8407 12.8715C33.546 12.8715 34.1723 12.6106 34.7247 12.09C35.2772 11.5681 35.5535 10.9559 35.5535 10.2533C35.0315 9.83963 34.3021 9.6347 33.3677 9.6347C32.688 9.6347 32.1202 9.7989 31.6658 10.126C31.2113 10.4531 30.9822 10.8579 30.9822 11.3428ZM33.1501 4.86666C34.3887 4.86666 35.3663 5.19632 36.083 5.8582C36.7997 6.52007 37.1562 7.42506 37.1562 8.57697V14.0718H35.5535V12.8346H35.4809C34.7884 13.8529 33.8667 14.362 32.7134 14.362C31.7294 14.362 30.9058 14.0718 30.2451 13.4901C29.5831 12.9072 29.2522 12.1804 29.2522 11.3059C29.2522 10.3844 29.5997 9.65125 30.2986 9.10647C30.9974 8.56043 31.9293 8.28804 33.094 8.28804C34.0895 8.28804 34.9093 8.47006 35.5522 8.83409V8.45224C35.5522 7.87055 35.3218 7.37669 34.861 6.97066C34.3989 6.56335 33.8604 6.36097 33.2404 6.36097C32.3048 6.36097 31.5652 6.75427 31.0191 7.54343L29.5424 6.61553C30.3571 5.45089 31.5588 4.8692 33.1501 4.8692M46.3548 5.15814L40.7625 18.0011H39.0325L41.1088 13.5079L37.4298 5.15814H39.2515L41.9108 11.5618H41.9464L44.5331 5.15814H46.3548Z" fill="#5F6368"/>
<path d="M15.667 7.65122C15.667 7.12426 15.6225 6.61513 15.5385 6.12891H8.47083V9.01188H12.5177C12.3445 9.95123 11.8188 10.7506 11.0219 11.2864V13.1588H13.438C14.8523 11.8554 15.667 9.9296 15.667 7.65249" fill="#4285F4"/>
<path d="M8.47285 14.9742C10.4956 14.9742 12.1976 14.3111 13.4401 13.1668L11.0239 11.2944C10.3518 11.7463 9.48615 12.011 8.47285 12.011C6.51881 12.011 4.86011 10.6949 4.26562 8.92188H1.7782V10.8502C3.01173 13.2953 5.54625 14.9755 8.47413 14.9755" fill="#34A853"/>
<path d="M4.26525 8.91332C4.11377 8.46147 4.02975 7.97906 4.02975 7.48138C4.02975 6.9837 4.1125 6.5013 4.26525 6.04944V4.12109H1.77656C1.26609 5.13173 0.978394 6.27219 0.978394 7.48138C0.978394 8.69058 1.26609 9.83231 1.77656 10.8417L4.26525 8.91332Z" fill="#FABB05"/>
<path d="M8.47285 2.96189C9.57653 2.96189 10.5669 3.34119 11.3473 4.08453C12.1276 4.82787 13.4859 1.94871 13.4859 1.94871C12.1874 0.742064 10.4944 0 8.47285 0C5.54625 0 3.01173 1.67887 1.7782 4.12399L4.26689 6.05234C4.86011 4.27927 6.51881 2.96316 8.47413 2.96316" fill="#E94235"/>
</svg>
