<svg width="24" height="25" viewBox="0 0 24 25" fill="none" xmlns="http://www.w3.org/2000/svg">
<path d="M21.4546 10.6543C21.5776 11.3133 21.6446 12.0023 21.6446 12.7213C21.6446 18.3453 17.8806 22.3443 12.1956 22.3443C10.9027 22.3448 9.62237 22.0905 8.42781 21.596C7.23324 21.1015 6.14784 20.3764 5.23363 19.4622C4.31943 18.548 3.59434 17.4626 3.09982 16.268C2.6053 15.0734 2.35104 13.7931 2.35156 12.5003C2.35104 11.2074 2.6053 9.92706 3.09982 8.73249C3.59434 7.53793 4.31943 6.45252 5.23363 5.53832C6.14784 4.62411 7.23324 3.89903 8.42781 3.40451C9.62237 2.90999 10.9027 2.65573 12.1956 2.65625C14.8536 2.65625 17.0746 3.63425 18.7786 5.22225L16.0036 7.99725V7.99025C14.9706 7.00625 13.6596 6.50125 12.1956 6.50125C8.94756 6.50125 6.30756 9.24525 6.30756 12.4943C6.30756 15.7433 8.94756 18.4933 12.1956 18.4933C15.1426 18.4933 17.1486 16.8073 17.5606 14.4933H12.1956V10.6543H21.4546Z" fill="white"/>
</svg>
