<svg width="22" height="22" viewBox="0 0 22 22" fill="none" xmlns="http://www.w3.org/2000/svg">
<path d="M11 0.757812C5.35393 0.757812 0.76001 5.35173 0.76001 10.9978C0.76001 16.6439 5.35393 21.2378 11 21.2378C16.6461 21.2378 21.24 16.6439 21.24 10.9978C21.24 5.35173 16.6461 0.757812 11 0.757812ZM16.4835 7.95269L10.4035 15.6327C10.1693 15.9284 9.81729 16.1063 9.43969 16.1178C9.42689 16.1178 9.41281 16.1178 9.40001 16.1178C9.03777 16.1178 8.69089 15.9642 8.44897 15.6941L5.56897 12.4941C5.09665 11.9681 5.13889 11.1591 5.66369 10.6868C6.18849 10.2132 6.99745 10.2567 7.47105 10.7815L9.33729 12.8551L14.4765 6.36421C14.9155 5.81125 15.7194 5.71653 16.2749 6.15429C16.8291 6.59333 16.9226 7.39845 16.4835 7.95269Z" fill="#04BD78"/>
</svg>
