<svg width="21" height="20" viewBox="0 0 21 20" fill="none" xmlns="http://www.w3.org/2000/svg">
<path d="M10.5 8C9.67053 8 9 8.67218 9 9.5V14C9 14.8278 9.67053 15.5 10.5 15.5C11.3295 15.5 12 14.8278 12 14V9.5C12 8.67218 11.3295 8 10.5 8ZM10.5 8C9.53486 8 8.75 7.21514 8.75 6.25C8.75 5.28486 9.53486 4.5 10.5 4.5C11.4651 4.5 12.25 5.28486 12.25 6.25C12.25 7.21514 11.4651 8 10.5 8ZM10.5 2.5C14.6349 2.5 18 5.86514 18 10C18 14.1349 14.6349 17.5 10.5 17.5C6.36514 17.5 3 14.1349 3 10C3 5.86514 6.36514 2.5 10.5 2.5Z" fill="#B6B6B6" stroke="#B6B6B6"/>
</svg>
