<svg width="20" height="21" viewBox="0 0 20 21" fill="none" xmlns="http://www.w3.org/2000/svg">
<path d="M7.08165 13.4185C9.23605 15.5729 12.0731 17.0445 15.2501 17.4905C15.7391 17.5585 16.2021 17.2495 16.3271 16.7715L16.9691 14.2965C17.0881 13.8375 16.8581 13.3595 16.4241 13.1665L14.5381 12.3288C14.1361 12.1498 13.6631 12.2648 13.3881 12.6088L11.3285 14.9545C10.1065 14.2912 8.99255 13.4565 8.01825 12.4821C7.04385 11.5077 6.20915 10.3937 5.54585 9.17179L7.89155 7.11219C8.23555 6.83719 8.35055 6.36419 8.17155 5.96219L7.33385 4.07619C7.14085 3.64219 6.66285 3.41219 6.20385 3.53119L3.72885 4.17319C3.25085 4.29819 2.94185 4.76119 3.00985 5.25019C3.45585 8.42719 4.92725 11.2641 7.08165 13.4185Z" fill="#B6B6B6" stroke="#B6B6B6" stroke-width="2" stroke-linecap="round" stroke-linejoin="round"/>
</svg>
