<svg width="20" height="21" viewBox="0 0 20 21" fill="none" xmlns="http://www.w3.org/2000/svg">
<path d="M13.9995 3.5H5.99951C4.34261 3.5 2.99951 4.8431 2.99951 6.5V8.5H16.9995V6.5C16.9995 4.8431 15.6564 3.5 13.9995 3.5ZM5.99951 6.5C5.44721 6.5 4.99951 6.0522 4.99951 5.5C4.99951 4.9478 5.44721 4.5 5.99951 4.5C6.55181 4.5 6.99951 4.9477 6.99951 5.5C6.99951 6.0523 6.55181 6.5 5.99951 6.5ZM8.99951 6.5C8.44721 6.5 7.99951 6.0522 7.99951 5.5C7.99951 4.9478 8.44721 4.5 8.99951 4.5C9.55181 4.5 9.99951 4.9477 9.99951 5.5C9.99951 6.0523 9.55181 6.5 8.99951 6.5Z" fill="#B6B6B6"/>
<path d="M2.99951 6.5L2.99951 14.5C2.99951 16.1569 4.34266 17.5 5.99951 17.5H13.9995C15.6564 17.5 16.9995 16.1569 16.9995 14.5V6.5C16.9995 4.84315 15.6564 3.5 13.9995 3.5H5.99951C4.34266 3.5 2.99951 4.84315 2.99951 6.5Z" stroke="#B6B6B6" stroke-width="2" stroke-linecap="round" stroke-linejoin="round"/>
</svg>
