<svg width="20" height="20" viewBox="0 0 20 20" fill="none" xmlns="http://www.w3.org/2000/svg">
<g clip-path="url(#clip0_6001_12262)">
<path d="M10.8593 18.7468L11.0638 17.5535L10.2004 16.7113C9.52266 16.0502 9.27488 15.0424 9.56932 14.1446C9.86377 13.2368 10.6371 12.5846 11.5871 12.4468L12.7804 12.2735L13.3127 11.1913C13.7282 10.3535 14.5871 9.83572 15.556 9.83572C16.5127 9.83572 17.3593 10.3446 17.7782 11.1613V7.77239C17.7782 7.16906 17.4915 6.59017 17.0104 6.2235L11.1771 1.79239C10.4838 1.26461 9.51599 1.26572 8.82377 1.79239L2.99043 6.22572C2.50932 6.59128 2.22266 7.17017 2.22266 7.7735V15.8335C2.22266 17.5191 3.59266 18.8891 5.27821 18.8891H10.856C10.8615 18.8413 10.8527 18.7946 10.8604 18.7468H10.8593Z" fill="#949494"/>
<path d="M19.2868 14.0969L17.2257 13.7969L16.3046 11.9291C16.0223 11.3602 15.0912 11.3602 14.809 11.9291L13.8879 13.7969L11.8268 14.0969C11.5123 14.1424 11.2512 14.3624 11.1546 14.6636C11.0557 14.9647 11.1379 15.2969 11.3646 15.518L12.8568 16.9724L12.5046 19.0258C12.4512 19.3391 12.579 19.6547 12.8368 19.8413C13.0912 20.0269 13.4334 20.0513 13.7134 19.9047L15.5579 18.9347L17.4023 19.9047C17.5234 19.9691 17.6568 20.0002 17.7901 20.0002C17.9623 20.0002 18.1357 19.9469 18.279 19.8413C18.5357 19.6547 18.6646 19.3391 18.6112 19.0258L18.259 16.9724L19.7512 15.518C19.9779 15.2969 20.0601 14.9647 19.9612 14.6636C19.8634 14.3624 19.6034 14.1424 19.289 14.0969H19.2868Z" fill="#949494"/>
</g>
<defs>
<clipPath id="clip0_6001_12262">
<rect width="20" height="20" fill="white"/>
</clipPath>
</defs>
</svg>
