<svg width="20" height="20" viewBox="0 0 20 20" fill="none" xmlns="http://www.w3.org/2000/svg">
<path d="M0.416016 14.583V17.9163C0.416016 18.0268 0.459914 18.1328 0.538054 18.211C0.616195 18.2891 0.722175 18.333 0.832682 18.333H1.24935C1.3399 18.3329 1.42796 18.3034 1.50021 18.2488C1.57245 18.1942 1.62496 18.1176 1.64977 18.0305L2.15893 16.2497H17.8398L18.3485 18.0301C18.3733 18.1173 18.4258 18.1941 18.4981 18.2488C18.5705 18.3034 18.6587 18.333 18.7493 18.333H19.166C19.2765 18.333 19.3825 18.2891 19.4606 18.211C19.5388 18.1328 19.5827 18.0268 19.5827 17.9163V14.583H0.416016Z" fill="#949494"/>
<path d="M19.5827 13.7497V11.6663C19.582 11.114 19.3623 10.5845 18.9718 10.1939C18.5812 9.80337 18.0517 9.58367 17.4993 9.58301H2.49935C1.94702 9.58367 1.4175 9.80337 1.02694 10.1939C0.636383 10.5845 0.416677 11.114 0.416016 11.6663V13.7497H19.5827Z" fill="#949494"/>
<path d="M17.082 1.6665H2.91536C2.69435 1.6665 2.48239 1.7543 2.32611 1.91058C2.16983 2.06686 2.08203 2.27882 2.08203 2.49984V8.74984H3.7487V5.83317C3.7487 5.72266 3.7926 5.61668 3.87074 5.53854C3.94888 5.4604 4.05486 5.4165 4.16536 5.4165H9.16536C9.27587 5.4165 9.38185 5.4604 9.45999 5.53854C9.53813 5.61668 9.58203 5.72266 9.58203 5.83317V8.74984H10.4154V5.83317C10.4154 5.72266 10.4593 5.61668 10.5374 5.53854C10.6155 5.4604 10.7215 5.4165 10.832 5.4165H15.832C15.9425 5.4165 16.0485 5.4604 16.1267 5.53854C16.2048 5.61668 16.2487 5.72266 16.2487 5.83317V8.74984H17.9154V2.49984C17.9154 2.27882 17.8276 2.06686 17.6713 1.91058C17.515 1.7543 17.303 1.6665 17.082 1.6665Z" fill="#949494"/>
</svg>
