<svg width="20" height="20" viewBox="0 0 20 20" fill="none" xmlns="http://www.w3.org/2000/svg">
<g clip-path="url(#clip0_6001_7134)">
<path d="M17.7859 8.1949C17.5759 7.76823 17.1409 7.4999 16.6659 7.4999H11.4225L12.2125 1.4099C12.2842 0.849895 11.9709 0.308228 11.4475 0.0932284C10.9242 -0.121772 10.3209 0.039895 9.9792 0.489895L2.3392 10.4916C2.0492 10.8699 2.00087 11.3782 2.21253 11.8049C2.42253 12.2316 2.85753 12.4999 3.33253 12.4999H8.57587L7.78587 18.5899C7.7142 19.1499 8.02753 19.6916 8.55087 19.9066C8.70587 19.9699 8.86587 20.0016 9.02587 20.0016C9.40753 20.0016 9.77753 19.8282 10.0192 19.5099L17.6575 9.5099C17.9475 9.13156 17.9959 8.62323 17.7842 8.19656L17.7859 8.1949Z" fill="#949494"/>
</g>
<defs>
<clipPath id="clip0_6001_7134">
<rect width="20" height="20" fill="white"/>
</clipPath>
</defs>
</svg>
