<svg width="20" height="20" viewBox="0 0 20 20" fill="none" xmlns="http://www.w3.org/2000/svg">
<path d="M16.6667 1.25H3.33333C2.7808 1.25 2.25089 1.46949 1.86019 1.86019C1.46949 2.25089 1.25 2.7808 1.25 3.33333V16.6667C1.25 17.2192 1.46949 17.7491 1.86019 18.1398C2.25089 18.5305 2.7808 18.75 3.33333 18.75H16.6667C17.2192 18.75 17.7491 18.5305 18.1398 18.1398C18.5305 17.7491 18.75 17.2192 18.75 16.6667V3.33333C18.75 2.7808 18.5305 2.25089 18.1398 1.86019C17.7491 1.46949 17.2192 1.25 16.6667 1.25ZM10.8333 11.6667H8.75V14.5833C8.75 14.6938 8.7061 14.7998 8.62796 14.878C8.54982 14.9561 8.44384 15 8.33333 15H7.5C7.38949 15 7.28351 14.9561 7.20537 14.878C7.12723 14.7998 7.08333 14.6938 7.08333 14.5833V5.41667C7.08333 5.30616 7.12723 5.20018 7.20537 5.12204C7.28351 5.0439 7.38949 5 7.5 5H10.7154C11.575 4.98864 12.4072 5.30212 13.0457 5.87777C13.6841 6.45342 14.0818 7.24884 14.1592 8.105C14.1899 8.5608 14.1267 9.01807 13.9736 9.44847C13.8204 9.87886 13.5805 10.2732 13.2687 10.6071C12.9569 10.941 12.5799 11.2074 12.161 11.3896C11.742 11.5719 11.2902 11.6662 10.8333 11.6667Z" fill="#949494"/>
<path d="M10.8333 6.6665H8.75V9.99984H10.8333C11.2754 9.99984 11.6993 9.82424 12.0118 9.51168C12.3244 9.19912 12.5 8.7752 12.5 8.33317C12.5 7.89114 12.3244 7.46722 12.0118 7.15466C11.6993 6.8421 11.2754 6.6665 10.8333 6.6665Z" fill="#949494"/>
</svg>
