<svg width="20" height="20" viewBox="0 0 20 20" fill="none" xmlns="http://www.w3.org/2000/svg">
<path d="M10.0007 0C7.70315 0 5.83398 1.86917 5.83398 4.16667C5.83398 6.08417 7.03898 7.87417 9.51732 9.6375L10.0007 9.98083L10.484 9.6375C12.9623 7.87417 14.1673 6.08417 14.1673 4.16667C14.1673 1.86917 12.2982 0 10.0007 0ZM10.0007 5.41667C9.31065 5.41667 8.75065 4.85667 8.75065 4.16667C8.75065 3.47667 9.31065 2.91667 10.0007 2.91667C10.6907 2.91667 11.2507 3.47667 11.2507 4.16667C11.2507 4.85667 10.6907 5.41667 10.0007 5.41667Z" fill="#949494"/>
<path d="M4.51595 2.17822L0.833984 3.59436V18.2967L5.83398 16.3737V8.52417C4.77928 7.22328 4.16732 5.78144 4.16732 4.1667C4.16732 3.46867 4.29038 2.799 4.51595 2.17822Z" fill="#949494"/>
<path d="M14.168 8.52392V18.3286L19.168 16.4055V1.70312L15.7232 3.02801C15.7963 3.39629 15.8346 3.77698 15.8346 4.16648C15.8346 5.78123 15.2226 7.22307 14.168 8.52392Z" fill="#949494"/>
<path d="M8.55042 10.9955L9.03483 11.3395C9.61275 11.7501 10.3873 11.7501 10.9652 11.3395L11.4496 10.9955C11.8182 10.7331 12.1692 10.4642 12.5 10.1885V18.64L7.5 16.14V10.1885C7.83086 10.4642 8.18172 10.7331 8.55042 10.9955Z" fill="#949494"/>
</svg>
