<svg width="20" height="20" viewBox="0 0 20 20" fill="none" xmlns="http://www.w3.org/2000/svg">
<g clip-path="url(#clip0_6001_35145)">
<path fill-rule="evenodd" clip-rule="evenodd" d="M11.25 14.167V17.0647C11.25 17.192 11.392 17.5113 12.104 17.835C12.7597 18.133 13.7093 18.3337 14.7917 18.3337C15.874 18.3337 16.8237 18.133 17.4793 17.835C18.1914 17.5113 18.3333 17.192 18.3333 17.0647V14.167H19.5833V17.0647C19.5833 17.9835 18.7925 18.6111 17.9966 18.973C17.1442 19.3604 16.0105 19.5837 14.7917 19.5837C13.5729 19.5837 12.4392 19.3604 11.5868 18.973C10.7908 18.6111 10 17.9835 10 17.0647V14.167H11.25Z" fill="#949494"/>
<path fill-rule="evenodd" clip-rule="evenodd" d="M14.7917 11.667C13.5356 11.667 12.378 11.9086 11.5189 12.3177C10.6909 12.712 10 13.3381 10 14.167C10 14.9959 10.6909 15.622 11.5189 16.0163C12.378 16.4254 13.5356 16.667 14.7917 16.667C16.0477 16.667 17.2053 16.4254 18.0644 16.0163C18.8925 15.622 19.5833 14.9959 19.5833 14.167C19.5833 13.3381 18.8925 12.712 18.0644 12.3177C17.2053 11.9086 16.0477 11.667 14.7917 11.667ZM13.3333 13.542V14.792H16.25V13.542H13.3333Z" fill="#949494"/>
<path fill-rule="evenodd" clip-rule="evenodd" d="M10.0007 0.833496C4.93803 0.833496 0.833984 4.93754 0.833984 10.0002C0.833984 14.9487 4.75511 18.9813 9.65982 19.1606C9.15227 18.655 8.75065 17.9681 8.75065 17.0645V14.1668C8.75065 12.5736 10.0507 11.6325 10.9822 11.1889C12.0435 10.6835 13.3925 10.4168 14.7923 10.4168C16.1921 10.4168 17.5412 10.6835 18.6025 11.1889C18.7469 11.2577 18.9002 11.3385 19.0562 11.4317C19.1294 10.9653 19.1673 10.4872 19.1673 10.0002C19.1673 4.93754 15.0633 0.833496 10.0007 0.833496ZM10.6257 10.6252V5.41683H9.37565V9.37516H3.75065V10.6252H10.6257Z" fill="#949494"/>
</g>
<defs>
<clipPath id="clip0_6001_35145">
<rect width="20" height="20" fill="white"/>
</clipPath>
</defs>
</svg>
