<svg width="48" height="48" viewBox="0 0 48 48" fill="none" xmlns="http://www.w3.org/2000/svg">
<path d="M35.1107 22.2223H28.444C27.708 22.2223 27.1107 21.625 27.1107 20.889C27.1107 20.153 27.708 19.5557 28.444 19.5557H34.6662V14.6668C34.6662 12.9512 33.2707 11.5557 31.5551 11.5557H20.444V19.5557H22.6662C23.4022 19.5557 23.9996 20.153 23.9996 20.889C23.9996 21.625 23.4022 22.2223 22.6662 22.2223H20.444V27.1112C20.444 27.8472 19.8467 28.4446 19.1107 28.4446C18.3747 28.4446 17.7773 27.8472 17.7773 27.1112V11.5557H12.8885C11.1729 11.5557 9.77734 12.9512 9.77734 14.6668V33.3334C9.77734 35.049 11.1729 36.4446 12.8885 36.4446H17.7773V32.889C17.7773 32.153 18.3747 31.5557 19.1107 31.5557C19.8467 31.5557 20.444 32.153 20.444 32.889V36.4446H35.1107C36.8262 36.4446 38.2218 35.049 38.2218 33.3334V25.3334C38.2218 23.6179 36.8262 22.2223 35.1107 22.2223Z" fill="#B6B6B6"/>
</svg>
