<svg width="48" height="48" viewBox="0 0 48 48" fill="none" xmlns="http://www.w3.org/2000/svg">
<g clip-path="url(#clip0_1907_131966)">
<path d="M39 20H15C14.2044 20 13.4413 19.6839 12.8787 19.1213C12.3161 18.5587 12 17.7956 12 17C12 16.2044 12.3161 15.4413 12.8787 14.8787C13.4413 14.3161 14.2044 14 15 14H39C39.2652 14 39.5196 14.1054 39.7071 14.2929C39.8946 14.4804 40 14.7348 40 15V19C40 19.2652 39.8946 19.5196 39.7071 19.7071C39.5196 19.8946 39.2652 20 39 20Z" fill="#B6B6B6"/>
<path d="M15 12H22V10C22 9.46957 21.7893 8.96086 21.4142 8.58579C21.0391 8.21071 20.5304 8 20 8H10C9.46957 8 8.96086 8.21071 8.58579 8.58579C8.21071 8.96086 8 9.46957 8 10V38C8 38.5304 8.21071 39.0391 8.58579 39.4142C8.96086 39.7893 9.46957 40 10 40H20C20.5304 40 21.0391 39.7893 21.4142 39.4142C21.7893 39.0391 22 38.5304 22 38V22H15C13.6739 22 12.4021 21.4732 11.4645 20.5355C10.5268 19.5979 10 18.3261 10 17C10 15.6739 10.5268 14.4021 11.4645 13.4645C12.4021 12.5268 13.6739 12 15 12ZM15 28C15.5734 28.0012 16.129 28.1995 16.5736 28.5616C17.0182 28.9237 17.3248 29.4277 17.442 29.989C17.5592 30.5503 17.4799 31.1348 17.2174 31.6446C16.9548 32.1544 16.525 32.5584 16 32.789V35C16 35.2652 15.8946 35.5196 15.7071 35.7071C15.5196 35.8946 15.2652 36 15 36C14.7348 36 14.4804 35.8946 14.2929 35.7071C14.1054 35.5196 14 35.2652 14 35V32.789C13.475 32.5584 13.0452 32.1544 12.7826 31.6446C12.5201 31.1348 12.4408 30.5503 12.558 29.989C12.6752 29.4277 12.9818 28.9237 13.4264 28.5616C13.871 28.1995 14.4266 28.0012 15 28Z" fill="#B6B6B6"/>
</g>
<defs>
<clipPath id="clip0_1907_131966">
<rect width="32" height="32" fill="white" transform="translate(8 8)"/>
</clipPath>
</defs>
</svg>
