<svg width="48" height="48" viewBox="0 0 48 48" fill="none" xmlns="http://www.w3.org/2000/svg">
<path d="M24 10.5C31.4559 10.5 37.5 16.5442 37.5 24C37.5 31.4559 31.4559 37.5 24 37.5C16.5442 37.5 10.5 31.4559 10.5 24C10.5 16.5442 16.5442 10.5 24 10.5ZM22.5 16.5283C20.2501 16.7771 18.5 18.6838 18.5 21C18.5 23.4852 20.5148 25.5 23 25.5H25C25.8285 25.5 26.5 26.1715 26.5 27C26.5 27.8285 25.8285 28.5 25 28.5H19.833V31.5H22.5V33.5H25.5V31.4707C27.7498 31.2219 29.5 29.3162 29.5 27C29.5 24.5148 27.4852 22.5 25 22.5H23C22.1715 22.5 21.5 21.8285 21.5 21C21.5 20.1715 22.1715 19.5 23 19.5H28.167V16.5H25.5V14.5H22.5V16.5283Z" fill="#B6B6B6" stroke="#B6B6B6"/>
</svg>
