<svg width="48" height="48" viewBox="0 0 48 48" fill="none" xmlns="http://www.w3.org/2000/svg">
<g clip-path="url(#clip0_1907_131978)">
<path d="M23.9993 30.7187L33.3327 23.252L37.3327 26.452V9.33333C37.3327 8.97971 37.1922 8.64057 36.9422 8.39052C36.6921 8.14048 36.353 8 35.9993 8H11.9993C11.6457 8 11.3066 8.14048 11.0565 8.39052C10.8065 8.64057 10.666 8.97971 10.666 9.33333V38.6667C10.666 39.0203 10.8065 39.3594 11.0565 39.6095C11.3066 39.8595 11.6457 40 11.9993 40H23.9993V30.7187ZM15.9993 16H31.9367V18.6667H15.9993V16ZM21.3327 32H15.9993V29.3333H21.3327V32ZM15.9993 25.3333V22.6667H26.666V25.3333H15.9993Z" fill="#B6B6B6"/>
<path d="M39.9993 32.0003L33.3327 26.667L26.666 32.0003V38.667C26.666 39.0206 26.8065 39.3598 27.0565 39.6098C27.3066 39.8599 27.6457 40.0003 27.9993 40.0003H31.9993V36.0003H34.666V40.0003H38.666C39.0196 40.0003 39.3588 39.8599 39.6088 39.6098C39.8589 39.3598 39.9993 39.0206 39.9993 38.667V32.0003Z" fill="#B6B6B6"/>
</g>
<defs>
<clipPath id="clip0_1907_131978">
<rect width="32" height="32" fill="white" transform="translate(8 8)"/>
</clipPath>
</defs>
</svg>
