<svg width="48" height="48" viewBox="0 0 48 48" fill="none" xmlns="http://www.w3.org/2000/svg">
<path d="M36.2056 22.3221L25.9833 12.0999C25.0589 11.1754 23.8322 10.667 22.5273 10.667H13.7771C12.0616 10.667 10.666 12.0625 10.666 13.7781V22.5265C10.666 23.8332 11.1745 25.0599 12.0989 25.9843L22.3211 36.2066C23.274 37.1594 24.5256 37.6359 25.7771 37.6359C27.0287 37.6359 28.2802 37.1594 29.2331 36.2066L36.2056 29.2341C37.13 28.3114 37.6385 27.0848 37.6385 25.7781C37.6385 24.4714 37.13 23.2448 36.2056 22.3221ZM19.1105 21.3337C17.8856 21.3337 16.8882 20.3363 16.8882 19.1114C16.8882 17.8865 17.8856 16.8892 19.1105 16.8892C20.3353 16.8892 21.3327 17.8865 21.3327 19.1114C21.3327 20.3363 20.3353 21.3337 19.1105 21.3337Z" fill="#B6B6B6"/>
</svg>
