<svg width="48" height="48" viewBox="0 0 48 48" fill="none" xmlns="http://www.w3.org/2000/svg">
<path fill-rule="evenodd" clip-rule="evenodd" d="M26.334 30.6673C26.334 34.1651 29.1695 37.0007 32.6673 37.0007C36.1651 37.0007 39.0007 34.1651 39.0007 30.6673C39.0007 27.1695 36.1651 24.334 32.6673 24.334C29.1695 24.334 26.334 27.1695 26.334 30.6673ZM33.1673 32.6673C33.4435 32.6673 33.6673 32.4435 33.6673 32.1673C33.6673 31.8912 33.4435 31.6673 33.1673 31.6673H32.1673C30.7866 31.6673 29.6673 30.5481 29.6673 29.1673C29.6673 27.9579 30.5262 26.949 31.6673 26.7173L32.0007 26.0007H33.334L33.6673 26.6673H35.0007V28.6673H32.1673C31.8912 28.6673 31.6673 28.8912 31.6673 29.1673C31.6673 29.4435 31.8912 29.6673 32.1673 29.6673H33.1673C34.5481 29.6673 35.6673 30.7866 35.6673 32.1673C35.6673 33.3768 34.8085 34.3856 33.6673 34.6173L33.334 35.334H32.0007L31.6673 34.6673H30.334V32.6673H33.1673Z" fill="#B6B6B6"/>
<path d="M9.33398 14.667C9.33398 12.4579 11.1248 10.667 13.334 10.667H20.8895L26.2228 14.667H34.6673C36.8764 14.667 38.6673 16.4579 38.6673 18.667V24.8839C37.1516 23.3117 35.0236 22.3337 32.6673 22.3337C28.0649 22.3337 24.334 26.0646 24.334 30.667C24.334 32.6957 25.0589 34.5551 26.2639 36.0003H13.334C11.1248 36.0003 9.33398 34.2095 9.33398 32.0003V14.667Z" fill="#B6B6B6"/>
</svg>
