<svg width="48" height="48" viewBox="0 0 48 48" fill="none" xmlns="http://www.w3.org/2000/svg">
<path d="M22.6152 11.3174C25.0107 8.92196 28.9251 8.90193 31.3428 11.2754L39.2041 19.6816L34.502 24.3838L22.2686 11.6631L22.6152 11.3174Z" fill="#B6B6B6" stroke="#B6B6B6"/>
<path d="M18.5 12.6904V17.793L22.374 21.667L21.667 22.374L17.793 18.5H12.6904L9.3916 11.9014L11.9014 9.3916L18.5 12.6904Z" fill="#B6B6B6" stroke="#B6B6B6"/>
<path d="M37.2627 31.8252V31.8262C37.9903 32.4989 38.4212 33.3978 38.4883 34.3779L38.4961 34.5752V34.5762C38.516 35.5669 38.1668 36.4996 37.5068 37.2285L37.3711 37.3721H37.3701C36.641 38.1019 35.6796 38.499 34.6523 38.499H34.5742C33.5848 38.4807 32.6662 38.0948 31.9619 37.4072L31.8242 37.2666L26.043 31.0215L30.8213 25.8604L37.2627 31.8252Z" fill="#B6B6B6" stroke="#B6B6B6"/>
<path d="M29.1982 23.1982L16.1729 37.2676C15.454 38.0431 14.4792 38.4814 13.4229 38.501H13.3457L13.1543 38.4961C12.2621 38.4529 11.4295 38.1083 10.7666 37.5059L10.6279 37.373H10.627C9.92602 36.6729 9.53171 35.7581 9.50195 34.7754L9.50098 34.5781C9.51924 33.5877 9.90461 32.6682 10.5918 31.9648L10.7334 31.8271L24.8906 18.7188L29.1982 23.1982Z" fill="#B6B6B6" stroke="#B6B6B6"/>
</svg>
