<svg width="12" height="12" viewBox="0 0 12 12" fill="none" xmlns="http://www.w3.org/2000/svg">
<path d="M6.20898 0.841797C6.85023 1.05595 7.23131 1.7684 7.02734 2.43164L6.51855 4.08594L6.38574 4.51758H9.83203C10.2435 4.51758 10.6074 4.80992 10.6582 5.20605C10.6836 5.40457 10.6336 5.5892 10.5342 5.73926L10.3633 5.99707L10.6084 6.18652C10.7954 6.33113 10.915 6.55567 10.915 6.80957C10.9149 7.11715 10.739 7.38158 10.4805 7.51172L10.1826 7.66113L10.332 7.95898C10.3848 8.06417 10.415 8.18299 10.415 8.30957C10.4149 8.607 10.2509 8.86567 10.0068 9.00098L9.74219 9.14746L9.86133 9.42383C9.8906 9.49197 9.90932 9.56643 9.91406 9.64453C9.93647 10.0239 9.59906 10.3505 9.20117 10.3506H6.24805C5.25889 10.3506 4.5114 10.1634 4.0127 9.97754C3.98756 9.96817 3.95622 9.95973 3.92285 9.94922C3.61663 8.05599 3.63846 6.18716 3.98926 4.29004C4.00339 4.21392 4.03149 4.14157 4.07227 4.07715C4.26481 3.77321 4.47206 3.47322 4.67773 3.17676L4.7373 3.09082C5.24661 2.35714 5.75288 1.63096 5.99805 0.949219C6.03103 0.857752 6.12527 0.813989 6.20898 0.841797Z" fill="white" stroke="white" stroke-width="0.666667"/>
<path d="M1.86523 4.7666H2.47559C2.19488 6.71582 2.23547 8.64712 2.59766 10.6006H1.86523C1.6815 10.6004 1.51851 10.4815 1.46777 10.3096C0.957575 8.57674 0.952708 6.809 1.46777 5.05859C1.51846 4.88643 1.68151 4.7668 1.86523 4.7666Z" fill="white" stroke="white" stroke-width="0.666667"/>
</svg>
