<svg width="24" height="25" viewBox="0 0 24 25" fill="none" xmlns="http://www.w3.org/2000/svg">
<path d="M0 12.0508C0 5.42336 5.37258 0.0507812 12 0.0507812C18.6274 0.0507812 24 5.42336 24 12.0508C24 18.6782 18.6274 24.0508 12 24.0508C5.37258 24.0508 0 18.6782 0 12.0508Z" fill="white"/>
<path d="M16.2005 12.0492C16.2005 9.72966 14.32 7.84928 12.0005 7.84922C10.8249 7.84922 9.76363 8.33069 9.00017 9.10977L8.50047 8.61963L8.00008 8.13018C9.01602 7.09345 10.4335 6.44922 12.0005 6.44922C15.0932 6.44928 17.6005 8.95646 17.6005 12.0492C17.6005 15.142 15.0932 17.6492 12.0005 17.6492C9.76584 17.6492 7.83752 16.3398 6.93982 14.4493C6.77409 14.1001 6.92286 13.6827 7.27205 13.5169C7.59931 13.3616 7.98645 13.4823 8.17029 13.7855L8.20447 13.8491L8.33982 14.1103C9.06075 15.3882 10.431 16.2492 12.0005 16.2492C14.32 16.2492 16.2005 14.3688 16.2005 12.0492ZM9.00017 9.10977C8.7296 9.38586 8.28645 9.39057 8.01033 9.12002C7.7343 8.84952 7.72974 8.40631 8.00008 8.13018L9.00017 9.10977Z" fill="#949494"/>
<path d="M8.05725 7.18002L7.64005 9.80782L10.2615 9.35072L8.05725 7.18002Z" fill="#949494"/>
<path d="M7.83829 6.51488C8.08734 6.43295 8.36171 6.49706 8.54854 6.681L10.7524 8.85209C10.9393 9.03609 11.0076 9.30928 10.9295 9.55961C10.8513 9.80969 10.6401 9.9951 10.3819 10.0402L7.76036 10.4975C7.53768 10.5363 7.30959 10.4654 7.14854 10.3068C6.98759 10.1482 6.9136 9.92152 6.94893 9.69838L7.36593 7.06996L7.3878 6.97562C7.45361 6.75995 7.62034 6.58663 7.83829 6.51488ZM8.48497 8.94984L8.80079 8.89447L8.53487 8.63334L8.48497 8.94984Z" fill="#949494"/>
</svg>
