<svg width="15" height="14" viewBox="0 0 15 14" fill="none" xmlns="http://www.w3.org/2000/svg">
<path d="M11.7001 7.00039C11.7001 4.68083 9.81965 2.80046 7.5001 2.80039C6.32451 2.80039 5.26327 3.28186 4.49981 4.06094L4.0001 3.5708L3.49971 3.08135C4.51565 2.04462 5.93309 1.40039 7.5001 1.40039C10.5928 1.40046 13.1001 3.90763 13.1001 7.00039C13.1001 10.0932 10.5928 12.6003 7.5001 12.6004C5.26547 12.6004 3.33716 11.291 2.43946 9.40049C2.27373 9.05129 2.4225 8.63387 2.77168 8.46807C3.09894 8.31275 3.48608 8.43352 3.66993 8.73672L3.70411 8.80029L3.83946 9.06143C4.56038 10.3394 5.93064 11.2004 7.5001 11.2004C9.81965 11.2003 11.7001 9.31995 11.7001 7.00039ZM4.49981 4.06094C4.22923 4.33703 3.78608 4.34174 3.50996 4.07119C3.23393 3.80069 3.22938 3.35749 3.49971 3.08135L4.49981 4.06094Z" fill="#FF603F"/>
<path d="M3.55688 2.13119L3.13968 4.75899L5.76118 4.30189L3.55688 2.13119Z" fill="#FF603F"/>
<path d="M3.33792 1.46605C3.58698 1.38412 3.86135 1.44823 4.04818 1.63217L6.25208 3.80326C6.43893 3.98726 6.50727 4.26045 6.42913 4.51078C6.35093 4.76086 6.13971 4.94627 5.88158 4.99135L3.25999 5.44867C3.03731 5.4875 2.80922 5.41656 2.64818 5.25795C2.48722 5.0994 2.41323 4.87269 2.44857 4.64955L2.86556 2.02113L2.88744 1.9268C2.95324 1.71113 3.11998 1.5378 3.33792 1.46605ZM3.9846 3.90102L4.30042 3.84564L4.03451 3.58451L3.9846 3.90102Z" fill="#FF603F"/>
</svg>
