<svg width="116" height="31" viewBox="0 0 116 31" fill="none" xmlns="http://www.w3.org/2000/svg">
<path d="M30.0113 24.4826C32.1284 23.6532 33.8902 22.1102 34.9926 20.1198C36.0951 18.1293 36.4692 15.8162 36.0505 13.5792C35.6318 11.3422 34.4464 9.32158 32.6989 7.86574C30.9513 6.40991 28.7511 5.61012 26.4776 5.60428C24.2041 5.59844 21.9998 6.38692 20.2448 7.83376C18.4898 9.28059 17.2941 11.2951 16.8639 13.5299C16.4337 15.7647 16.796 18.0798 17.8882 20.0758C18.9805 22.0719 20.7343 23.6239 22.8472 24.4642L24.3414 20.699C23.1042 20.207 22.0773 19.2982 21.4378 18.1294C20.7982 16.9606 20.5861 15.6051 20.838 14.2965C21.0899 12.9879 21.79 11.8084 22.8176 10.9612C23.8452 10.114 25.136 9.6523 26.4672 9.65572C27.7984 9.65913 29.0868 10.1274 30.11 10.9799C31.1333 11.8324 31.8274 13.0155 32.0725 14.3254C32.3177 15.6352 32.0987 16.9897 31.4531 18.1551C30.8076 19.3206 29.776 20.2241 28.5363 20.7098L30.0113 24.4826Z" fill="#949494"/>
<path d="M22.5356 29.6499C23.7731 30.1923 25.1095 30.4719 26.4604 30.4708C27.8114 30.4697 29.1474 30.188 30.384 29.6436L28.4971 25.3489C27.854 25.632 27.1593 25.7785 26.4567 25.779C25.7542 25.7796 25.0591 25.6342 24.4156 25.3521L22.5356 29.6499Z" fill="#949494"/>
<path d="M0 6.50513H4.19737V13.0734H10.5658V6.50513H14.7632V23.4089H10.5658V16.5991H4.19737V23.4089H0V6.50513Z" fill="#949494"/>
<path d="M106.183 10.0308H105.338L100.659 23.4089H96.3164L102.492 6.50513H109.15L115.277 23.4089H110.935L106.183 10.0308ZM100.827 16.5025H110.669V20.0281H100.827V16.5025Z" fill="#949494"/>
<path d="M79.1875 14.9569C79.1875 13.7011 79.3885 12.5501 79.7906 11.5037C80.2087 10.4411 80.7876 9.5235 81.5274 8.75076C82.2833 7.97802 83.1838 7.38236 84.2292 6.96379C85.2745 6.54522 86.4243 6.33594 87.6787 6.33594C89.5764 6.33594 91.2007 6.81085 92.5515 7.76068C93.9024 8.69442 94.8673 9.98232 95.4463 11.6244L91.8037 12.4213C91.5143 11.8256 91.1685 11.3427 90.7665 10.9724C90.3644 10.586 89.9061 10.3043 89.3915 10.1272C88.8768 9.95012 88.3059 9.86158 87.6787 9.86158C86.7781 9.86158 86.0062 10.087 85.3629 10.5377C84.7197 10.9885 84.2292 11.6003 83.8915 12.373C83.5537 13.1296 83.3849 13.9909 83.3849 14.9569C83.3849 15.9389 83.5537 16.8163 83.8915 17.589C84.2292 18.3457 84.7197 18.9494 85.3629 19.4001C86.0062 19.8348 86.7781 20.0521 87.6787 20.0521C88.3059 20.0521 88.8929 19.9636 89.4397 19.7865C89.9865 19.5933 90.477 19.2874 90.9112 18.8689C91.3454 18.4342 91.7153 17.8707 92.0208 17.1785L95.5669 17.9029C94.988 19.706 94.015 21.1066 92.648 22.1047C91.2811 23.0868 89.6246 23.5778 87.6787 23.5778C86.4243 23.5778 85.2745 23.3685 84.2292 22.9499C83.1838 22.5314 82.2833 21.9437 81.5274 21.1871C80.7876 20.4144 80.2087 19.5048 79.7906 18.4583C79.3885 17.3958 79.1875 16.2287 79.1875 14.9569Z" fill="#949494"/>
<path d="M76.4541 23.6019C75.6982 23.6019 75.0871 23.3845 74.6208 22.9499C74.1705 22.4991 73.9453 21.9598 73.9453 21.3319C73.9453 20.688 74.1705 20.1487 74.6208 19.714C75.0871 19.2632 75.6982 19.0378 76.4541 19.0378C77.2099 19.0378 77.813 19.2632 78.2633 19.714C78.7297 20.1487 78.9629 20.688 78.9629 21.3319C78.9629 21.9598 78.7297 22.4991 78.2633 22.9499C77.813 23.3845 77.2099 23.6019 76.4541 23.6019Z" fill="#949494"/>
<path d="M72.3754 10.0308H63.9083V13.1942H70.2285V16.4783H63.9083V19.8832H72.3754V23.4089H59.7109V6.50513H72.3754V10.0308Z" fill="#949494"/>
<path d="M42.3107 23.4089H38.1133V6.50513H43.0826L47.7142 17.9755L52.3458 6.50513H57.3151V23.4089H53.1177V13.7254L49.4269 23.4089H46.0014L42.3107 13.7254V23.4089Z" fill="#949494"/>
</svg>
