<svg width="14" height="14" viewBox="0 0 14 14" fill="none" xmlns="http://www.w3.org/2000/svg">
<path d="M4.45842 3.65566C4.73336 3.43142 5.13867 3.44723 5.39495 3.70352C5.65123 3.9598 5.66704 4.3651 5.4428 4.64004L5.39495 4.69336L3.08987 6.99844L5.39495 9.30352L5.4428 9.35684C5.66704 9.63178 5.65123 10.0371 5.39495 10.2934C5.13867 10.5496 4.73336 10.5655 4.45842 10.3412L4.4051 10.2934L1.6051 7.49336C1.33174 7.21999 1.33174 6.77688 1.6051 6.50352L4.4051 3.70352L4.45842 3.65566Z" fill="#1F1F1F"/>
<path d="M8.40002 6.29844C8.78662 6.29844 9.10003 6.61184 9.10003 6.99844C9.10003 7.38504 8.78662 7.69844 8.40002 7.69844H2.10002C1.71343 7.69844 1.40002 7.38504 1.40002 6.99844C1.40002 6.61184 1.71343 6.29844 2.10002 6.29844H8.40002Z" fill="#1F1F1F"/>
<path d="M11.2 9.79844V4.19844C11.2 3.42514 10.5733 2.79844 9.80002 2.79844H7.70002C7.31343 2.79844 7.00002 2.48504 7.00002 2.09844C7.00002 1.71184 7.31343 1.39844 7.70002 1.39844H9.80002C11.3465 1.39844 12.6 2.65194 12.6 4.19844V9.79844C12.6 11.3449 11.3465 12.5984 9.80002 12.5984H7.70002C7.31343 12.5984 7.00002 12.285 7.00002 11.8984C7.00002 11.5118 7.31343 11.1984 7.70002 11.1984H9.80002C10.5733 11.1984 11.2 10.5717 11.2 9.79844Z" fill="#1F1F1F"/>
</svg>
