<svg width="112" height="24" viewBox="0 0 112 24" fill="none" xmlns="http://www.w3.org/2000/svg">
<path d="M28.9495 18.1905C30.9917 17.3913 32.691 15.9046 33.7544 13.9867C34.8179 12.0687 35.1787 9.83987 34.7748 7.68438C34.3709 5.5289 33.2276 3.58189 31.5419 2.1791C29.8563 0.776309 27.734 0.00565758 25.541 3.10022e-05C23.348 -0.00559557 21.2218 0.754156 19.5289 2.14828C17.8361 3.5424 16.6828 5.48351 16.2678 7.6369C15.8529 9.79029 16.2023 12.021 17.2559 13.9443C18.3094 15.8677 20.0011 17.3631 22.0391 18.1728L23.4805 14.5448C22.2871 14.0707 21.2966 13.195 20.6797 12.0688C20.0628 10.9426 19.8582 9.63647 20.1011 8.37557C20.3441 7.11467 21.0194 5.97807 22.0106 5.16175C23.0019 4.34543 24.2469 3.90056 25.531 3.90386C26.8151 3.90715 28.0577 4.3584 29.0448 5.17979C30.0318 6.00119 30.7013 7.14124 30.9378 8.40337C31.1743 9.6655 30.963 10.9706 30.3403 12.0936C29.7176 13.2166 28.7226 14.0872 27.5268 14.5552L28.9495 18.1905Z" fill="#FF603F"/>
<path d="M21.7612 23.2193C22.9562 23.7389 24.246 24.0048 25.5491 24.0004C26.8522 23.9959 28.1401 23.7211 29.3315 23.1934L27.5006 19.06C26.8811 19.3344 26.2113 19.4773 25.5336 19.4796C24.8559 19.482 24.1852 19.3437 23.5637 19.0735L21.7612 23.2193Z" fill="#FF603F"/>
<path d="M0.00195312 0.867188H4.04505V7.18744H10.1794V0.867188H14.2225V17.1325H10.1794V10.5799H4.04505V17.1325H0.00195312V0.867188Z" fill="#1F1F1F"/>
<path d="M102.281 4.25968H101.468L96.9599 17.1325H92.7773L98.7258 0.867188H105.139L111.041 17.1325H106.858L102.281 4.25968ZM97.1225 10.487H106.603V13.8795H97.1225V10.487Z" fill="#1F1F1F"/>
<path d="M76.2773 8.99943C76.2773 7.79115 76.471 6.68355 76.8582 5.67665C77.261 4.65426 77.8187 3.77128 78.5313 3.02772C79.2593 2.28416 80.1268 1.711 81.1337 1.30824C82.1406 0.905482 83.2482 0.704102 84.4565 0.704102C86.2844 0.704102 87.849 1.16108 89.1502 2.07504C90.4514 2.97351 91.3809 4.21277 91.9385 5.79283L88.4299 6.55963C88.151 5.98647 87.818 5.52174 87.4307 5.16545C87.0435 4.79367 86.602 4.52259 86.1063 4.35219C85.6106 4.18179 85.0606 4.09659 84.4565 4.09659C83.589 4.09659 82.8454 4.31346 82.2258 4.7472C81.6062 5.18095 81.1337 5.7696 80.8084 6.51316C80.4831 7.24122 80.3204 8.06998 80.3204 8.99943C80.3204 9.94437 80.4831 10.7886 80.8084 11.5322C81.1337 12.2602 81.6062 12.8412 82.2258 13.2749C82.8454 13.6931 83.589 13.9023 84.4565 13.9023C85.0606 13.9023 85.626 13.8171 86.1527 13.6467C86.6794 13.4608 87.1519 13.1665 87.5701 12.7637C87.9884 12.3454 88.3447 11.8033 88.639 11.1372L92.0547 11.8342C91.4971 13.5692 90.5599 14.9169 89.2431 15.8774C87.9264 16.8223 86.3309 17.2948 84.4565 17.2948C83.2482 17.2948 82.1406 17.0934 81.1337 16.6906C80.1268 16.2879 79.2593 15.7224 78.5313 14.9944C77.8187 14.2508 77.261 13.3756 76.8582 12.3687C76.471 11.3463 76.2773 10.2232 76.2773 8.99943Z" fill="#1F1F1F"/>
<path d="M73.647 17.3184C72.919 17.3184 72.3303 17.1093 71.8811 16.691C71.4473 16.2573 71.2305 15.7383 71.2305 15.1342C71.2305 14.5146 71.4473 13.9956 71.8811 13.5774C72.3303 13.1436 72.919 12.9268 73.647 12.9268C74.3751 12.9268 74.956 13.1436 75.3897 13.5774C75.839 13.9956 76.0636 14.5146 76.0636 15.1342C76.0636 15.7383 75.839 16.2573 75.3897 16.691C74.956 17.1093 74.3751 17.3184 73.647 17.3184Z" fill="#1F1F1F"/>
<path d="M69.7146 4.25968H61.5587V7.30362H67.6466V10.4637H61.5587V13.7401H69.7146V17.1325H57.5156V0.867188H69.7146V4.25968Z" fill="#1F1F1F"/>
<path d="M40.756 17.1325H36.7129V0.867188H41.4995L45.9609 11.9044L50.4223 0.867188H55.2089V17.1325H51.1658V7.81482L47.6107 17.1325H44.3111L40.756 7.81482V17.1325Z" fill="#1F1F1F"/>
</svg>
