<svg width="116" height="31" viewBox="0 0 116 31" fill="none" xmlns="http://www.w3.org/2000/svg">
<path d="M29.9486 24.4147C32.0614 23.5875 33.8195 22.0488 34.9197 20.0639C36.0199 18.0789 36.3932 15.7722 35.9753 13.5414C35.5575 11.3105 34.3746 9.29551 32.6307 7.84369C30.8867 6.39188 28.691 5.5943 26.4222 5.58847C24.1534 5.58265 21.9536 6.36895 20.2023 7.81179C18.4509 9.25463 17.2577 11.2636 16.8284 13.4922C16.3991 15.7209 16.7606 18.0295 17.8506 20.0201C18.9406 22.0106 20.6907 23.5583 22.7993 24.3963L24.2905 20.6415C23.0558 20.1508 22.031 19.2446 21.3928 18.079C20.7546 16.9135 20.5429 15.5617 20.7942 14.2567C21.0456 12.9517 21.7443 11.7754 22.7698 10.9306C23.7953 10.0857 25.0833 9.62531 26.4118 9.62872C27.7403 9.63213 29.026 10.0991 30.0472 10.9492C31.0683 11.7993 31.7609 12.9792 32.0056 14.2855C32.2503 15.5917 32.0317 16.9424 31.3875 18.1047C30.7433 19.2669 29.7138 20.1679 28.4767 20.6523L29.9486 24.4147Z" fill="#FF603F"/>
<path d="M22.5118 29.6189C23.7481 30.1566 25.0825 30.4318 26.4306 30.4272C27.7787 30.4226 29.1112 30.1382 30.3438 29.592L28.4496 25.3142C27.8086 25.5982 27.1157 25.7461 26.4146 25.7485C25.7135 25.7509 25.0195 25.6078 24.3766 25.3281L22.5118 29.6189Z" fill="#FF603F"/>
<path d="M0 6.4856H4.18291V13.0267H10.5294V6.4856H14.7123V23.3194H10.5294V16.5378H4.18291V23.3194H0V6.4856Z" fill="white"/>
<path d="M105.817 9.99673H104.975L100.312 23.3194H95.9844L102.139 6.48569H108.773L114.88 23.3194H110.552L105.817 9.99673ZM100.48 16.4417H110.288V19.9527H100.48V16.4417Z" fill="white"/>
<path d="M78.9141 14.9027C78.9141 13.6522 79.1144 12.5059 79.5151 11.4638C79.9317 10.4056 80.5087 9.49181 81.2459 8.72227C81.9992 7.95272 82.8966 7.35953 83.9384 6.9427C84.9801 6.52586 86.126 6.31744 87.376 6.31744C89.2671 6.31744 90.8858 6.79039 92.232 7.73629C93.5783 8.66615 94.5399 9.94873 95.1168 11.584L91.4868 12.3776C91.1983 11.7844 90.8538 11.3034 90.4531 10.9347C90.0524 10.5499 89.5957 10.2694 89.0828 10.093C88.57 9.91666 88.0011 9.82849 87.376 9.82849C86.4785 9.82849 85.7093 10.0529 85.0682 10.5018C84.4272 10.9507 83.9384 11.56 83.6018 12.3295C83.2652 13.083 83.097 13.9407 83.097 14.9027C83.097 15.8806 83.2652 16.7544 83.6018 17.5239C83.9384 18.2774 84.4272 18.8786 85.0682 19.3275C85.7093 19.7604 86.4785 19.9768 87.376 19.9768C88.0011 19.9768 88.586 19.8887 89.1309 19.7123C89.6758 19.5199 90.1646 19.2153 90.5973 18.7985C91.0301 18.3656 91.3987 17.8045 91.7032 17.1151L95.237 17.8365C94.6601 19.6321 93.6905 21.0269 92.3282 22.0209C90.966 22.9989 89.3152 23.4879 87.376 23.4879C86.126 23.4879 84.9801 23.2795 83.9384 22.8626C82.8966 22.4458 81.9992 21.8606 81.2459 21.1071C80.5087 20.3376 79.9317 19.4317 79.5151 18.3897C79.1144 17.3315 78.9141 16.1692 78.9141 14.9027Z" fill="white"/>
<path d="M76.1915 23.512C75.4383 23.512 74.8293 23.2956 74.3645 22.8627C73.9158 22.4138 73.6914 21.8768 73.6914 21.2515C73.6914 20.6102 73.9158 20.0731 74.3645 19.6403C74.8293 19.1914 75.4383 18.9669 76.1915 18.9669C76.9448 18.9669 77.5458 19.1914 77.9945 19.6403C78.4593 20.0731 78.6917 20.6102 78.6917 21.2515C78.6917 21.8768 78.4593 22.4138 77.9945 22.8627C77.5458 23.2956 76.9448 23.512 76.1915 23.512Z" fill="white"/>
<path d="M72.1247 9.99673H63.6868V13.147H69.9852V16.4176H63.6868V19.8084H72.1247V23.3194H59.5039V6.48569H72.1247V9.99673Z" fill="white"/>
<path d="M42.1634 23.3194H37.9805V6.48569H42.9326L47.5483 17.9086L52.1639 6.48569H57.1161V23.3194H52.9332V13.6761L49.2551 23.3194H45.8414L42.1634 13.6761V23.3194Z" fill="white"/>
</svg>
