<svg width="64" height="64" viewBox="0 0 64 64" fill="none" xmlns="http://www.w3.org/2000/svg">
<g clip-path="url(#clip0_9002_349596)">
<path d="M42.666 53.3333C42.666 48.2667 50.666 40 50.666 40C50.666 40 58.666 48.2667 58.666 53.3333C58.666 55.4551 57.8232 57.4899 56.3229 58.9902C54.8226 60.4905 52.7877 61.3333 50.666 61.3333C48.5443 61.3333 46.5095 60.4905 45.0092 58.9902C43.5089 57.4899 42.666 55.4551 42.666 53.3333Z" fill="#B6B6B6"/>
<path d="M56 13.3333H5.33333V8C5.33333 7.29276 5.61428 6.61448 6.11438 6.11438C6.61448 5.61428 7.29276 5.33333 8 5.33333H40C40.7072 5.33333 41.3855 5.05238 41.8856 4.55229C42.3857 4.05219 42.6667 3.37391 42.6667 2.66667C42.6667 1.95942 42.3857 1.28115 41.8856 0.781049C41.3855 0.280952 40.7072 0 40 0L8 0C5.87827 0 3.84344 0.842855 2.34315 2.34315C0.842855 3.84344 0 5.87827 0 8L0 61.3333C0 62.0406 0.280952 62.7189 0.781049 63.219C1.28115 63.7191 1.95942 64 2.66667 64H18.6667C19.3739 64 20.0522 63.7191 20.5523 63.219C21.0524 62.7189 21.3333 62.0406 21.3333 61.3333V34.6667C21.3333 33.9594 21.6143 33.2811 22.1144 32.7811C22.6145 32.281 23.2928 32 24 32H61.3333C62.0406 32 62.7189 31.719 63.219 31.219C63.7191 30.7189 64 30.0406 64 29.3333V21.3333C64 19.2116 63.1571 17.1768 61.6569 15.6765C60.1566 14.1762 58.1217 13.3333 56 13.3333Z" fill="#B6B6B6"/>
</g>
<defs>
<clipPath id="clip0_9002_349596">
<rect width="64" height="64" fill="white"/>
</clipPath>
</defs>
</svg>
