<svg width="128" height="32" viewBox="0 0 128 32" fill="none" xmlns="http://www.w3.org/2000/svg">
<path d="M0 14.2216C0 12.2579 1.59188 10.666 3.55556 10.666H124.444C126.408 10.666 128 12.2579 128 14.2216V21.9253C128 23.889 126.408 25.4808 124.444 25.4808H3.55556C1.59188 25.4808 0 23.889 0 21.9253V14.2216Z" fill="#D62C26"/>
<path d="M5.96888 21.4434H4.84059V14.8063H6.10162L8.33925 19.9642L10.5769 14.8063H11.8284V21.4434H10.7096V16.9586L8.76592 21.4434H7.91259L5.96888 16.9586V21.4434ZM16.0931 15.745H15.7518L13.7607 21.4434H12.6039L14.9553 14.8063H16.8706L19.2315 21.4434H18.0747L16.0931 15.745ZM13.8934 18.8928H17.7618V19.822H13.8934V18.8928ZM22.3591 14.8063C23.0734 14.8063 23.6897 14.9422 24.208 15.214C24.7326 15.4858 25.1372 15.8746 25.4216 16.3802C25.7124 16.8796 25.8578 17.4706 25.8578 18.1533C25.8578 18.8296 25.7124 19.4143 25.4216 19.9074C25.1372 20.4004 24.7326 20.7797 24.208 21.0451C23.6897 21.3106 23.0734 21.4434 22.3591 21.4434H19.9887V14.8063H22.3591ZM22.3591 20.5047C23.1176 20.5047 23.6992 20.2993 24.1037 19.8884C24.5146 19.4712 24.72 18.8928 24.72 18.1533C24.72 17.4074 24.5146 16.8196 24.1037 16.3897C23.6992 15.9599 23.1176 15.745 22.3591 15.745H21.117V20.5047H22.3591ZM31.4468 15.745H28.043V17.6128H30.5935V18.5515H28.043V20.5047H31.4468V21.4434H26.9147V14.8063H31.4468V15.745ZM35.3128 14.8063H36.4411V21.4434H35.3128V14.8063ZM43.1978 14.8063V21.4434H42.0506L38.9596 16.5794V21.4434H37.8313V14.8063H38.9881L42.079 19.6514V14.8063H43.1978Z" fill="white"/>
<path d="M82.5236 18.1248C82.5236 17.6255 82.609 17.1704 82.7796 16.7595C82.9566 16.3423 83.1968 15.9852 83.5002 15.6881C83.81 15.3847 84.1671 15.1508 84.5716 14.9865C84.9825 14.8221 85.4218 14.74 85.8896 14.74C86.5406 14.74 87.1285 14.8948 87.6531 15.2045C88.1841 15.5143 88.5886 15.9599 88.8667 16.5414L87.947 16.8543C87.8017 16.5762 87.6152 16.3518 87.3876 16.1811C87.1601 16.0105 86.9199 15.8872 86.667 15.8114C86.4142 15.7355 86.1645 15.6976 85.918 15.6976C85.4882 15.6976 85.1026 15.7987 84.7613 16.001C84.4199 16.1969 84.1513 16.4782 83.9553 16.8448C83.7657 17.2051 83.6709 17.6318 83.6709 18.1248C83.6709 18.6116 83.7657 19.0382 83.9553 19.4048C84.1513 19.7651 84.4199 20.0464 84.7613 20.2487C85.1026 20.451 85.4882 20.5521 85.918 20.5521C86.1708 20.5521 86.4268 20.5142 86.686 20.4383C86.9515 20.3561 87.2012 20.2171 87.435 20.0211C87.6752 19.8189 87.8743 19.5502 88.0324 19.2152L88.9426 19.5091C88.6518 20.1918 88.2378 20.6975 87.7005 21.0262C87.1632 21.3485 86.5596 21.5097 85.8896 21.5097C85.4218 21.5097 84.9825 21.4276 84.5716 21.2632C84.1671 21.0989 83.81 20.865 83.5002 20.5616C83.1968 20.2582 82.9566 19.901 82.7796 19.4902C82.609 19.073 82.5236 18.6179 82.5236 18.1248ZM92.9601 15.745H92.6187L90.6276 21.4434H89.4709L91.8223 14.8063H93.7376L96.0984 21.4434H94.9417L92.9601 15.745ZM90.7604 18.8928H94.6288V19.822H90.7604V18.8928ZM102.222 14.8063V21.4434H101.075L97.984 16.5794V21.4434H96.8557V14.8063H98.0124L101.103 19.6514V14.8063H102.222ZM106.488 15.745H106.147L104.155 21.4434H102.999L105.35 14.8063H107.265L109.626 21.4434H108.469L106.488 15.745ZM104.288 18.8928H108.157V19.822H104.288V18.8928ZM112.754 14.8063C113.468 14.8063 114.084 14.9422 114.603 15.214C115.127 15.4858 115.532 15.8746 115.816 16.3802C116.107 16.8796 116.253 17.4706 116.253 18.1533C116.253 18.8296 116.107 19.4143 115.816 19.9074C115.532 20.4004 115.127 20.7797 114.603 21.0451C114.084 21.3106 113.468 21.4434 112.754 21.4434H110.383V14.8063H112.754ZM112.754 20.5047C113.512 20.5047 114.094 20.2993 114.498 19.8884C114.909 19.4712 115.115 18.8928 115.115 18.1533C115.115 17.4074 114.909 16.8196 114.498 16.3897C114.094 15.9599 113.512 15.745 112.754 15.745H111.512V20.5047H112.754ZM120.182 15.745H119.841L117.85 21.4434H116.693L119.045 14.8063H120.96L123.321 21.4434H122.164L120.182 15.745ZM117.983 18.8928H121.851V19.822H117.983V18.8928Z" fill="white"/>
<circle cx="63.4082" cy="16" r="15.1111" fill="white" stroke="#D62C26" stroke-width="1.77778"/>
<path d="M63.3025 6.64105L64.9187 9.91466L66.8751 8.79474L65.8754 14.2465C65.8445 14.4156 66.0506 14.5213 66.1668 14.3957L68.3211 12.0684L69.0016 13.4467L71.8086 12.8437L70.7879 15.8589L72.1489 16.4619L67.8724 19.9423C67.5827 20.1781 67.4776 20.5772 67.6131 20.9278L68.151 22.3199L64.5784 21.4647C64.026 21.3325 63.5031 21.7751 63.5334 22.3492L63.7278 26.0243H62.7921L62.9865 22.3492C63.0169 21.7751 62.494 21.3325 61.9415 21.4647L58.369 22.3199L58.9069 20.9278C59.0424 20.5772 58.9373 20.1781 58.6476 19.9423L54.3711 16.4619L55.7321 15.8589L54.7113 12.8437L57.5184 13.4467L58.1988 12.0684L60.3531 14.3957C60.4693 14.5213 60.6755 14.4156 60.6445 14.2465L59.6449 8.79474L61.6013 9.91466L63.2175 6.64105V6.46875L63.26 6.5549L63.3025 6.46875V6.64105Z" fill="#D72D27"/>
</svg>
