<svg width="42" height="20" viewBox="0 0 42 20" fill="none" xmlns="http://www.w3.org/2000/svg">
<path d="M33.5783 10C33.5783 14.4197 30.0372 18 25.67 18C21.3028 18 17.7617 14.4197 17.7617 10C17.7617 5.58026 21.2973 2 25.6645 2C30.0317 2 33.5783 5.58026 33.5783 10Z" fill="#F79F1A"/>
<path d="M23.8166 10C23.8166 14.4197 20.2755 18 15.9083 18C11.5411 18 8 14.4197 8 10C8 5.58026 11.5411 2 15.9083 2C20.2755 2 23.8166 5.58026 23.8166 10Z" fill="#EA001B"/>
<path d="M20.7867 3.70312C18.9419 5.16525 17.7578 7.44461 17.7578 10.0019C17.7578 12.5593 18.9419 14.8386 20.7867 16.3008C22.6316 14.8386 23.8157 12.5593 23.8157 10.0019C23.8157 7.44461 22.6316 5.17081 20.7867 3.70312Z" fill="#FF5F01"/>
</svg>
