<svg width="27" height="16" viewBox="0 0 27 16" fill="none" xmlns="http://www.w3.org/2000/svg">
<g clip-path="url(#clip0_7667_236772)">
<path d="M26.6225 8C26.6225 12.4197 23.0814 16 18.7142 16C14.347 16 10.8059 12.4197 10.8059 8C10.8059 3.58026 14.3415 0 18.7087 0C23.0759 0 26.6225 3.58026 26.6225 8Z" fill="#F79F1A"/>
<path d="M16.8607 8C16.8607 12.4197 13.3196 16 8.95247 16C4.58529 16 1.04419 12.4197 1.04419 8C1.04419 3.58026 4.58529 0 8.95247 0C13.3196 0 16.8607 3.58026 16.8607 8Z" fill="#EA001B"/>
<path d="M13.8309 1.70312C11.986 3.16525 10.802 5.44461 10.802 8.00194C10.802 10.5593 11.986 12.8386 13.8309 14.3008C15.6758 12.8386 16.8599 10.5593 16.8599 8.00194C16.8599 5.44461 15.6758 3.17081 13.8309 1.70312Z" fill="#FF5F01"/>
</g>
<defs>
<clipPath id="clip0_7667_236772">
<rect width="26" height="16" fill="white" transform="translate(0.833252)"/>
</clipPath>
</defs>
</svg>
