<svg width="48" height="48" viewBox="0 0 48 48" fill="none" xmlns="http://www.w3.org/2000/svg">
<path fill-rule="evenodd" clip-rule="evenodd" d="M34 10C36.2091 10 38 11.7909 38 14V34C38 36.2091 36.2091 38 34 38H14C11.7909 38 10 36.2091 10 34V14C10 11.7909 11.7909 10 14 10H34ZM19 26H17V29H14V31H17V34H19V31H22V29H19V26ZM33.9142 15.5L32.5 14.0858L30 16.5858L27.5 14.0858L26.0858 15.5L28.5858 18L26.0858 20.5L27.5 21.9142L30 19.4142L32.5 21.9142L33.9142 20.5L31.4142 18L33.9142 15.5ZM14 17V19H22V17H14ZM26 27H34V29H26V27ZM26 31V33H34V31H26Z" fill="white"/>
</svg>
