<svg xmlns="http://www.w3.org/2000/svg" style="display: none">
      <symbol id="home-dashboard-icon" viewBox="0 0 20 20">
        <path
          d="M6.5 3H4.5C3.67157 3 3 3.67157 3 4.5V6.5C3 7.32843 3.67157 8 4.5 8H6.5C7.32843 8 8 7.32843 8 6.5V4.5C8 3.67157 7.32843 3 6.5 3Z"
        />
        <path
          d="M15.5 3H13.5C12.6716 3 12 3.67157 12 4.5V6.5C12 7.32843 12.6716 8 13.5 8H15.5C16.3284 8 17 7.32843 17 6.5V4.5C17 3.67157 16.3284 3 15.5 3Z"
        />
        <path
          d="M6.5 12H4.5C3.67157 12 3 12.6716 3 13.5V15.5C3 16.3284 3.67157 17 4.5 17H6.5C7.32843 17 8 16.3284 8 15.5V13.5C8 12.6716 7.32843 12 6.5 12Z"
        />
        <path
          d="M15.5 12H13.5C12.6716 12 12 12.6716 12 13.5V15.5C12 16.3284 12.6716 17 13.5 17H15.5C16.3284 17 17 16.3284 17 15.5V13.5C17 12.6716 16.3284 12 15.5 12Z"
        />
      </symbol>

      <symbol id="know-your-home-icon" viewBox="0 0 20 20">
        <path
          d="M17.0104 6.22523L11.1771 1.7919C10.4838 1.26412 9.51599 1.26523 8.82377 1.7919L2.99043 6.22523C2.50932 6.59079 2.22266 7.16968 2.22266 7.77301V15.833C2.22266 17.5186 3.59266 18.8886 5.27821 18.8886H8.33377V14.4441C8.33377 13.5241 9.08043 12.7775 10.0004 12.7775C10.9204 12.7775 11.6671 13.5241 11.6671 14.4441V18.8886H14.7227C16.4082 18.8886 17.7782 17.5186 17.7782 15.833V7.77301C17.7782 7.16968 17.4915 6.5919 17.0104 6.22523Z"
        />
      </symbol>

      <symbol id="manage-finances-icon" viewBox="0 0 20 20">
        <path
          fill-rule="evenodd"
          clip-rule="evenodd"
          d="M18.75 10C18.75 14.8325 14.8325 18.75 10 18.75C5.16751 18.75 1.25 14.8325 1.25 10C1.25 5.16751 5.16751 1.25 10 1.25C14.8325 1.25 18.75 5.16751 18.75 10ZM10.625 4.375H9.375V5.625C7.99431 5.625 6.875 6.74431 6.875 8.125C6.875 9.50569 7.99431 10.625 9.375 10.625H10.625C11.3154 10.625 11.875 11.1846 11.875 11.875C11.875 12.5654 11.3154 13.125 10.625 13.125H7.70831V14.375H9.375V15.625H10.625V14.375C12.0057 14.375 13.125 13.2557 13.125 11.875C13.125 10.4943 12.0057 9.375 10.625 9.375H9.375C8.68463 9.375 8.125 8.81537 8.125 8.125C8.125 7.43463 8.68463 6.875 9.375 6.875H12.2917V5.625H10.625V4.375Z"
        />
      </symbol>

      <symbol id="mortgage-management-icon" viewBox="0 0 20 20">
        <path
          fill-rule="evenodd"
          clip-rule="evenodd"
          d="M13.1016 1.22461L18.9766 5.63086L18.2266 6.63086L13.1016 2.78711L7.97656 6.63086L7.22656 5.63086L13.1016 1.22461Z"
        />
        <path
          d="M8.93359 7.47461V10.1309C8.93359 10.9363 9.58651 11.5892 10.3919 11.5892H11.8503V8.67253H14.3503V11.5892H15.8086C16.614 11.5892 17.2669 10.9363 17.2669 10.1309V7.47461L13.1003 4.34961L8.93359 7.47461Z"
        />
        <path
          d="M15.8007 15.9279L9.62643 18.3562C9.06384 18.5635 8.4558 18.6151 7.8663 18.5059L2.93359 17.5911V13.5687L3.36793 13.2011C3.96184 12.6986 4.71468 12.4229 5.49268 12.4229C6.26218 12.4229 7.00734 12.6926 7.59847 13.1853L7.93359 13.4645H9.18359C10.1035 13.4645 10.8494 14.2098 10.8503 15.1296V15.3395H7.30859V15.5479L10.7234 15.8893C11.15 15.932 11.5394 15.644 11.6235 15.2236L11.6836 14.9229L15.5149 14.548C15.9233 14.5253 16.2669 14.8504 16.2669 15.2594C16.2669 15.5579 16.0808 15.8247 15.8007 15.9279Z"
        />
        <path d="M1.68424 11.4229V17.6729H0.0175781V11.4229H1.68424Z" />
      </symbol>

      <symbol id="discover-neighborhood-icon" viewBox="0 0 20 20">
        <path
          fill-rule="evenodd"
          clip-rule="evenodd"
          d="M9.83268 0V2.5H8.16602V0H9.83268Z"
        />
        <path
          fill-rule="evenodd"
          clip-rule="evenodd"
          d="M17.3333 18.3337V6.66699H9V18.3337H17.3333ZM14.0083 10.0003H12.3333V11.667H14.0083V10.0003ZM12.3333 15.0003V13.3337H14.0083V15.0003H12.3333Z"
        />
        <path
          d="M4.83203 2.68294L13.1654 0.599609V5.00024H8.9987C8.0782 5.00024 7.33203 5.74644 7.33203 6.66691V10.1427L4.83203 9.30941V2.68294Z"
        />
        <path
          fill-rule="evenodd"
          clip-rule="evenodd"
          d="M0.666016 9.67676L7.33268 11.899V18.333H0.666016V9.67676ZM4.84102 13.333V14.9997H3.16602V13.333H4.84102Z"
        />
      </symbol>

      <symbol id="mortgage-management-icon" viewBox="0 0 20 20">
        <g clip-path="url(#clip0-mortgage-management)">
          <path
            d="M14.8155 1.82816C13.1824 0.219411 10.5355 0.231285 8.91555 1.85129L8.48242 2.28441L16.5618 10.6857L19.9399 7.30754L14.8155 1.82816Z"
            fill="currentColor"
          />
          <path
            d="M9.42648 8.54176L6.87586 5.99113V2.73863L2.37773 0.489258L0.490234 2.37676L2.73961 6.87488H5.99211L8.54273 9.42551L9.42648 8.54176Z"
            fill="currentColor"
          />
          <path
            d="M18.5034 14.662L14.2472 10.7207L10.8516 14.3876L14.6616 18.5032C15.1691 19.0501 15.8591 19.3601 16.6041 19.3738C16.6222 19.3738 16.6403 19.3738 16.6584 19.3738C17.3834 19.3738 18.0641 19.0926 18.5784 18.5776C19.1059 18.0501 19.3884 17.3488 19.3734 16.6032C19.3597 15.8576 19.0497 15.1676 18.5022 14.6613L18.5034 14.662Z"
            fill="currentColor"
          />
          <path
            d="M10.5699 6.26074L1.49615 14.662C0.949273 15.1689 0.639273 15.8589 0.625523 16.6045C0.611148 17.3501 0.893648 18.0514 1.42115 18.5782C1.93552 19.0932 2.61552 19.3745 3.34115 19.3745C3.35865 19.3745 3.37677 19.3745 3.3949 19.3745C4.14052 19.3607 4.83052 19.0507 5.3374 18.5039L13.6793 9.49449L10.5699 6.26137V6.26074Z"
            fill="currentColor"
          />
        </g>
        <defs>
          <clipPath id="clip0-mortgage-management">
            <rect width="20" height="20" fill="white" />
          </clipPath>
        </defs>
      </symbol>

      <symbol id="plan-emergencies-icon" viewBox="0 0 20 20">
        <path
          d="M17.4382 5.65366L14.3471 2.56255C13.7693 1.98477 13.0027 1.66699 12.186 1.66699H7.81379C6.99713 1.66699 6.23046 1.98477 5.65268 2.56255L2.56157 5.65366C1.98379 6.23144 1.66602 6.9981 1.66602 7.81477V12.187C1.66602 13.0037 1.98379 13.7703 2.56157 14.3481L5.65268 17.4392C6.23046 18.017 6.99713 18.3348 7.81379 18.3348H12.186C13.0027 18.3348 13.7693 18.017 14.3471 17.4392L17.4382 14.3481C18.016 13.7703 18.3338 13.0037 18.3338 12.187V7.81477C18.3338 6.9981 18.016 6.23144 17.4382 5.65366ZM9.16713 6.03477C9.16713 5.57477 9.54046 5.20144 10.0005 5.20144C10.4605 5.20144 10.8338 5.57477 10.8338 6.03477V10.6337C10.8338 11.0937 10.4605 11.467 10.0005 11.467C9.54046 11.467 9.16713 11.0937 9.16713 10.6337V6.03477ZM10.0005 14.9081C9.38824 14.9081 8.88935 14.4092 8.88935 13.797C8.88935 13.1848 9.38824 12.6859 10.0005 12.6859C10.6127 12.6859 11.1116 13.1848 11.1116 13.797C11.1116 14.4092 10.6127 14.9081 10.0005 14.9081Z"
        />
      </symbol>

      <symbol id="maintenance-upkeep-icon" viewBox="0 0 20 20">
        <path
          d="M14.8155 1.82816C13.1824 0.219411 10.5355 0.231285 8.91555 1.85129L8.48242 2.28441L16.5618 10.6857L19.9399 7.30754L14.8155 1.82816Z"
        />
        <path
          d="M9.42648 8.54176L6.87586 5.99113V2.73863L2.37773 0.489258L0.490234 2.37676L2.73961 6.87488H5.99211L8.54273 9.42551L9.42648 8.54176Z"
        />
        <path
          d="M18.5034 14.662L14.2472 10.7207L10.8516 14.3876L14.6616 18.5032C15.1691 19.0501 15.8591 19.3601 16.6041 19.3738C16.6222 19.3738 16.6403 19.3738 16.6584 19.3738C17.3834 19.3738 18.0641 19.0926 18.5784 18.5776C19.1059 18.0501 19.3884 17.3488 19.3734 16.6032C19.3597 15.8576 19.0497 15.1676 18.5022 14.6613L18.5034 14.662Z"
        />
        <path
          d="M10.5699 6.26074L1.49615 14.662C0.949273 15.1689 0.639273 15.8589 0.625523 16.6045C0.611148 17.3501 0.893648 18.0514 1.42115 18.5782C1.93552 19.0932 2.61552 19.3745 3.34115 19.3745C3.35865 19.3745 3.37677 19.3745 3.3949 19.3745C4.14052 19.3607 4.83052 19.0507 5.3374 18.5039L13.6793 9.49449L10.5699 6.26137V6.26074Z"
        />
      </symbol>

      <symbol id="improvements-ideas-icon" viewBox="0 0 20 20">
        <g clip-path="url(#clip0-smart-home-monitoring)">
          <path
            d="M10.8593 18.7463L11.0638 17.553L10.2004 16.7108C9.52266 16.0497 9.27488 15.0419 9.56932 14.1441C9.86377 13.2363 10.6371 12.5841 11.5871 12.4463L12.7804 12.273L13.3127 11.1908C13.7282 10.353 14.5871 9.83524 15.556 9.83524C16.5127 9.83524 17.3593 10.3441 17.7782 11.1608V7.7719C17.7782 7.16857 17.4915 6.58968 17.0104 6.22301L11.1771 1.7919C10.4838 1.26412 9.51599 1.26523 8.82377 1.7919L2.99043 6.22523C2.50932 6.59079 2.22266 7.16968 2.22266 7.77301V15.833C2.22266 17.5186 3.59266 18.8886 5.27821 18.8886H10.856C10.8615 18.8408 10.8527 18.7941 10.8604 18.7463H10.8593Z"
          />
          <path
            d="M19.2868 14.0964L17.2257 13.7964L16.3046 11.9286C16.0223 11.3597 15.0912 11.3597 14.809 11.9286L13.8879 13.7964L11.8268 14.0964C11.5123 14.142 11.2512 14.362 11.1546 14.6631C11.0557 14.9642 11.1379 15.2964 11.3646 15.5175L12.8568 16.972L12.5046 19.0253C12.4512 19.3386 12.579 19.6542 12.8368 19.8408C13.0912 20.0264 13.4334 20.0508 13.7134 19.9042L15.5579 18.9342L17.4023 19.9042C17.5234 19.9686 17.6568 19.9997 17.7901 19.9997C17.9623 19.9997 18.1357 19.9464 18.279 19.8408C18.5357 19.6542 18.6646 19.3386 18.6112 19.0253L18.259 16.972L19.7512 15.5175C19.9779 15.2964 20.0601 14.9642 19.9612 14.6631C19.8634 14.362 19.6034 14.142 19.289 14.0964H19.2868Z"
          />
        </g>
        <defs>
          <clipPath id="clip0-smart-home-monitoring">
            <rect width="20" height="20" fill="white" />
          </clipPath>
        </defs>
      </symbol>

      <symbol id="opportunities-incentives-icon" viewBox="0 0 20 20">
        <path
          d="M15.2782 17.2218H13.056C12.596 17.2218 12.2227 16.8485 12.2227 16.3885C12.2227 15.9285 12.596 15.5551 13.056 15.5551H15.2782C15.4315 15.5551 15.556 15.4307 15.556 15.2773V4.72179C15.556 4.56845 15.4315 4.44401 15.2782 4.44401H13.056C12.596 4.44401 12.2227 4.07068 12.2227 3.61068C12.2227 3.15068 12.596 2.77734 13.056 2.77734H15.2782C16.3504 2.77734 17.2227 3.64957 17.2227 4.72179V15.2773C17.2227 16.3496 16.3504 17.2218 15.2782 17.2218Z"
        />
        <path
          d="M10.4929 1.06661C10.1051 0.80883 9.61845 0.761052 9.18734 0.939941L3.97401 3.11216C3.24734 3.41439 2.77734 4.11994 2.77734 4.90661V15.0922C2.77734 15.8788 3.24734 16.5844 3.97401 16.8866L9.18846 19.0588C9.36068 19.1299 9.54179 19.1655 9.7229 19.1655C9.9929 19.1655 10.2607 19.0866 10.4929 18.9322C10.8796 18.6744 11.1107 18.2422 11.1107 17.7766V2.22216C11.1107 1.75661 10.8796 1.32439 10.4929 1.06661ZM8.3329 10.5555C8.3329 11.0155 7.95957 11.3888 7.49957 11.3888C7.03957 11.3888 6.66623 11.0155 6.66623 10.5555V9.44439C6.66623 8.98439 7.03957 8.61105 7.49957 8.61105C7.95957 8.61105 8.3329 8.98439 8.3329 9.44439V10.5555Z"
        />
      </symbol>

      <symbol id="smart-home-monitoring-icon" viewBox="0 0 20 20">
        <g clip-path="url(#clip0-insurance-management)">
          <path
            d="M9.44488 17.6386C9.44488 15.7341 10.8493 14.0875 12.6571 13.6986C13.5893 12.4397 15.0749 11.6663 16.6671 11.6663C17.0504 11.6663 17.4193 11.7186 17.7782 11.8008V7.77301C17.7782 7.16968 17.4915 6.59079 17.0104 6.22412L11.1771 1.7919C10.4838 1.26412 9.51599 1.26523 8.82377 1.7919L2.99043 6.22523C2.50932 6.59079 2.22266 7.16968 2.22266 7.77301V15.833C2.22266 17.5186 3.59266 18.8886 5.27821 18.8886H9.66377C9.53377 18.493 9.44488 18.0775 9.44488 17.6386Z"
          />
          <path
            d="M16.6669 13.333C15.3491 13.333 14.1769 14.1263 13.6447 15.2841C12.3147 15.183 11.1113 16.2797 11.1113 17.6386C11.1113 18.9408 12.1702 19.9997 13.4724 19.9997H16.6669C18.5047 19.9997 20.0002 18.5041 20.0002 16.6663C20.0002 14.8286 18.5047 13.333 16.6669 13.333Z"
          />
        </g>
        <defs>
          <clipPath id="clip0-insurance-management">
            <rect width="20" height="20" fill="white" />
          </clipPath>
        </defs>
      </symbol>

      <symbol id="insurance-management-icon" viewBox="0 0 20 20">
        <g clip-path="url(#clip0_shm)">
          <path
            d="M10.556 16.5997V13.333C10.556 12.3552 11.1315 11.4619 12.0215 11.0575L15.0771 9.66857C15.4027 9.51968 15.7515 9.44412 16.1115 9.44412C16.4715 9.44412 16.8204 9.51968 17.1471 9.66857L17.7782 9.95523V7.77301C17.7782 7.16968 17.4915 6.59079 17.0104 6.22412L11.1771 1.7919C10.4838 1.26412 9.51599 1.26523 8.82377 1.7919L2.99043 6.22523C2.50932 6.59079 2.22266 7.16968 2.22266 7.77301V15.833C2.22266 17.5186 3.59266 18.8886 5.27821 18.8886H11.2738C10.8427 18.2597 10.556 17.5052 10.556 16.5997Z"
          />
          <path
            d="M19.5135 12.5742L16.4579 11.1854C16.2391 11.0854 15.9868 11.0854 15.7679 11.1854L12.7124 12.5742C12.4146 12.7098 12.2246 13.0065 12.2246 13.3331V16.5998C12.2246 18.8776 15.5135 19.8642 15.8891 19.9687C15.9624 19.9898 16.0379 19.9998 16.1135 19.9998C16.1891 19.9998 16.2646 19.9898 16.3379 19.9687C16.7124 19.8642 20.0024 18.8776 20.0024 16.5998V13.3331C20.0024 13.0065 19.8102 12.7098 19.5135 12.5742Z"
          />
        </g>
        <defs>
          <clipPath id="clip0_shm">
            <rect width="20" height="20" fill="white" />
          </clipPath>
        </defs>
      </symbol>

      <symbol id="pet-friendly-icon" viewBox="0 0 20 20">
        <path
          fill-rule="evenodd"
          clip-rule="evenodd"
          d="M7.95202 9.42908C8.60818 9.01683 9.31397 8.75 9.99935 8.75C10.6847 8.75 11.3905 9.01683 12.0467 9.42908C12.7067 9.84371 13.3434 10.4219 13.8982 11.0873C14.9992 12.4077 15.8327 14.1398 15.8327 15.7292C15.8327 16.4281 15.5378 17.093 15.0218 17.5792C14.5067 18.0646 13.8131 18.3333 13.0946 18.3333C12.4738 18.3333 11.9199 18.1884 11.3627 17.9259C11.0021 17.7559 10.68 17.6042 9.99935 17.6042C9.50406 17.6042 9.07339 17.7197 8.62931 17.929C8.21889 18.1224 7.76693 18.3333 6.9041 18.3333C6.18564 18.3333 5.49202 18.0646 4.97685 17.5792C4.46089 17.093 4.16602 16.4281 4.16602 15.7292C4.16602 14.1398 4.99952 12.4077 6.10047 11.0873C6.65531 10.4219 7.29197 9.84371 7.95202 9.42908Z"
        />
        <path
          fill-rule="evenodd"
          clip-rule="evenodd"
          d="M15.416 8.75033C15.416 7.66733 16.105 6.66699 17.0827 6.66699C18.0603 6.66699 18.7493 7.66733 18.7493 8.75033C18.7493 9.83333 18.0603 10.8337 17.0827 10.8337C16.105 10.8337 15.416 9.83333 15.416 8.75033Z"
        />
        <path
          fill-rule="evenodd"
          clip-rule="evenodd"
          d="M1.25 8.75033C1.25 7.66733 1.93901 6.66699 2.91667 6.66699C3.89433 6.66699 4.58333 7.66733 4.58333 8.75033C4.58333 9.83333 3.89433 10.8337 2.91667 10.8337C1.93901 10.8337 1.25 9.83333 1.25 8.75033Z"
        />
        <path
          fill-rule="evenodd"
          clip-rule="evenodd"
          d="M4.58398 4.37533C4.58398 2.9486 5.54773 1.66699 6.87565 1.66699C8.20357 1.66699 9.16732 2.9486 9.16732 4.37533C9.16732 5.80203 8.20357 7.08366 6.87565 7.08366C5.54773 7.08366 4.58398 5.80203 4.58398 4.37533Z"
        />
        <path
          fill-rule="evenodd"
          clip-rule="evenodd"
          d="M10.834 4.37533C10.834 2.9486 11.7977 1.66699 13.1257 1.66699C14.4536 1.66699 15.4173 2.9486 15.4173 4.37533C15.4173 5.80203 14.4536 7.08366 13.1257 7.08366C11.7977 7.08366 10.834 5.80203 10.834 4.37533Z"
        />
      </symbol>

      <symbol id="explore-top-places-icon" viewBox="0 0 20 20">
        <g clip-path="url(#clip0-explore-top-places)">
          <path
            fill-rule="evenodd"
            clip-rule="evenodd"
            d="M16.25 7.06792C16.25 9.58992 14.7057 11.9836 13.2332 13.7041C12.4892 14.5734 11.7464 15.2906 11.1899 15.7904C10.8062 16.1349 10.4097 16.461 10 16.7738C9.58996 16.4606 9.1935 16.1338 8.80987 15.7886C8.25337 15.2879 7.51062 14.5697 6.76667 13.6998C5.29446 11.9781 3.75 9.58447 3.75 7.06792C3.75 3.08756 6.9695 0.833008 10 0.833008C13.0305 0.833008 16.25 3.08756 16.25 7.06792ZM10 4.58301C8.61929 4.58301 7.5 5.7023 7.5 7.08301C7.5 8.46372 8.61929 9.58301 10 9.58301C11.3807 9.58301 12.5 8.46372 12.5 7.08301C12.5 5.7023 11.3807 4.58301 10 4.58301Z"
          />
          <path
            d="M17.2624 13.7394C17.7913 13.9823 18.2463 14.2653 18.5785 14.5916C18.909 14.9162 19.1673 15.3355 19.1673 15.8329C19.1673 16.4733 18.7456 16.9783 18.2635 17.3418C17.7648 17.7178 17.0794 18.0393 16.2788 18.3023C14.6707 18.8308 12.4669 19.1662 10.0007 19.1662C7.53498 19.1662 5.33128 18.8336 3.72297 18.3064C2.92233 18.044 2.23648 17.7228 1.73743 17.346C1.25402 16.981 0.833984 16.4746 0.833984 15.8329V15.8147L0.835043 15.7966C0.863747 15.3035 1.12691 14.8897 1.46764 14.5637C1.80861 14.2375 2.26835 13.9574 2.79946 13.7183C3.36032 13.4659 4.03215 13.2454 4.79232 13.0633L5.1344 14.2669C4.41673 14.436 3.80344 14.6373 3.3125 14.8582C2.85667 15.0634 2.53435 15.2731 2.33178 15.4669C2.1465 15.6442 2.09555 15.7734 2.08493 15.8492C2.09287 15.9212 2.15627 16.0959 2.49068 16.3484C2.8381 16.6108 3.38158 16.8791 4.1123 17.1186C5.56669 17.5953 7.63386 17.9162 10.0007 17.9162C12.3669 17.9162 14.434 17.5928 15.8885 17.1148C16.6193 16.8747 17.1632 16.606 17.511 16.3438C17.8754 16.0691 17.9173 15.8879 17.9173 15.8329C17.9173 15.7918 17.8967 15.674 17.7026 15.4833C17.5101 15.2943 17.1948 15.0838 16.7409 14.8754C16.2407 14.6458 15.6076 14.4347 14.8611 14.2588L15.209 13.0566C15.9982 13.2459 16.6906 13.4769 17.2624 13.7394Z"
          />
        </g>
        <defs>
          <clipPath id="clip0-explore-top-places">
            <rect width="20" height="20" fill="white" />
          </clipPath>
        </defs>
      </symbol>
    </svg>