<svg width="64" height="64" viewBox="0 0 64 64" fill="none" xmlns="http://www.w3.org/2000/svg">
<path d="M32.5264 4.68652C33.6876 5.63202 34.7989 6.64472 35.9033 7.67676C37.9196 9.56097 40.61 12.239 43.3027 15.4121C45.9934 18.583 48.7015 22.2646 50.7393 26.1572C52.7745 30.0447 54.167 34.1921 54.167 38.2783C54.1668 52.6524 42.7915 60.8328 32.001 60.833C21.2103 60.833 9.83413 52.6526 9.83398 38.2783C9.83398 33.074 10.8695 27.6945 11.8916 22.3936C12.1737 20.9306 12.4526 19.4734 12.709 18.0322L18.709 21.3662L19.0957 21.5801L19.3555 21.2236L31.8447 4.13281L32.5264 4.68652ZM31.626 27.6689L30.1543 29.335C24.7684 35.4259 20.834 39.8431 20.834 46.7295C20.834 51.1091 22.8976 53.9597 25.3555 55.6514C27.7208 57.2794 30.4315 57.833 32.001 57.833C33.5702 57.8329 36.2803 57.2799 38.6455 55.6523C41.1036 53.9608 43.167 51.1098 43.167 46.7295C43.1669 39.8432 39.2334 35.4257 33.8477 29.335L32.375 27.6689L32.001 27.2441L31.626 27.6689Z" fill="#FF603F" stroke="#FF603F"/>
</svg>
