<svg width="64" height="64" viewBox="0 0 64 64" fill="none" xmlns="http://www.w3.org/2000/svg">
<path d="M40.8662 50.4326C41.1043 52.6779 42.627 54.6091 44.8018 55.3428L55.3584 58.9043C56.2 59.1882 56.7781 59.9545 56.8281 60.833H7.1709C7.22095 59.9547 7.79838 59.1883 8.63965 58.9043L19.1973 55.3428C21.348 54.6172 22.8616 52.7204 23.125 50.5068C25.8101 51.7337 28.7894 52.416 31.916 52.416C35.1047 52.416 38.1399 51.7059 40.8662 50.4326Z" fill="#FF603F" stroke="#FF603F"/>
<path fill-rule="evenodd" clip-rule="evenodd" d="M44.0764 32.4561L44.668 21.8057L48.6618 22.0275L48.0703 32.6781C47.5952 41.2274 40.5241 47.9166 31.9615 47.9166C23.3557 47.9166 16.2648 41.1621 15.8469 32.5665L15.334 22.0137L19.3293 21.8195L19.8423 32.3722C20.1565 38.8367 25.4893 43.9166 31.9615 43.9166C38.4012 43.9166 43.7192 38.8859 44.0764 32.4561Z" fill="#FF603F"/>
<path fill-rule="evenodd" clip-rule="evenodd" d="M33.6233 1.68581C32.5904 1.21571 31.4062 1.21484 30.3736 1.6866L12.277 10.2202C10.0938 11.2212 9.32453 13.9334 10.6583 15.9295L14.6932 20.8625L15.43 23.9895C26.9832 27.8045 37.2013 28.6683 48.552 24.0101L49.3065 20.8625L53.3404 15.931C54.6797 13.9323 53.9038 11.2203 51.7226 10.2202L33.6233 1.68581ZM31.9998 9.33301C29.7906 9.33301 27.9998 11.1239 27.9998 13.333C27.9998 15.5422 29.7906 17.333 31.9998 17.333C34.209 17.333 35.9998 15.5422 35.9998 13.333C35.9998 11.1239 34.209 9.33301 31.9998 9.33301Z" fill="#FF603F"/>
</svg>
