<svg width="24" height="25" viewBox="0 0 24 25" fill="none" xmlns="http://www.w3.org/2000/svg">
<path fill-rule="evenodd" clip-rule="evenodd" d="M11.0784 1.5C10.2828 1.5 9.51972 1.81607 8.95711 2.37868L3.87868 7.45711C3.31607 8.01972 3 8.78278 3 9.57843V12.5H21V4.5C21 2.84315 19.6569 1.5 18 1.5H11.0784ZM11 9.5H5L11 3.5V9.5Z" fill="#B6B6B6"/>
<path fill-rule="evenodd" clip-rule="evenodd" d="M1 14.5H4.5C6.433 14.5 8 16.067 8 18C8 19.933 6.433 21.5 4.5 21.5H3V23.5H1V14.5ZM3 19.5H4.5C5.32843 19.5 6 18.8284 6 18C6 17.1716 5.32843 16.5 4.5 16.5H3V19.5Z" fill="#B6B6B6"/>
<path fill-rule="evenodd" clip-rule="evenodd" d="M9 14.5H11.5C13.9853 14.5 16 16.5147 16 19C16 21.4853 13.9853 23.5 11.5 23.5H9V14.5ZM11 16.5V21.5H11.5C12.8807 21.5 14 20.3807 14 19C14 17.6193 12.8807 16.5 11.5 16.5H11Z" fill="#B6B6B6"/>
<path fill-rule="evenodd" clip-rule="evenodd" d="M17 14.5H23V16.5H19V18H22V20H19V23.5H17V14.5Z" fill="#B6B6B6"/>
</svg>
