<svg width="25" height="26" viewBox="0 0 25 26" fill="none" xmlns="http://www.w3.org/2000/svg">
<path d="M12.4995 2.75098C18.0199 2.75122 22.513 7.2442 22.5132 12.7646C22.5132 18.2852 18.0201 22.7791 12.4995 22.7793C7.03137 22.7793 2.63793 18.5053 2.48877 13.0439C2.4875 12.9626 2.55142 12.8968 2.63037 12.8945H2.64209C2.68503 12.8928 2.71395 12.9067 2.73584 12.9277C2.7479 12.9393 2.75897 12.9542 2.76709 12.9727L2.78076 13.0371C2.92443 18.3336 7.1989 22.4873 12.4995 22.4873C17.8606 22.4871 22.2209 18.1267 22.2212 12.7656C22.2212 7.4043 17.8608 3.04321 12.4995 3.04297C9.26395 3.04297 6.31961 4.65181 4.52881 7.23242L3.39209 8.87012L5.36768 8.59766L7.33252 8.3252L7.3335 8.32617C7.39207 8.31934 7.43529 8.3353 7.46338 8.35645C7.49053 8.37696 7.51021 8.4062 7.51611 8.44824C7.52423 8.50696 7.49506 8.56419 7.4458 8.59375L7.39014 8.61328L3.39404 9.16504C3.37723 9.16714 3.36705 9.16797 3.36182 9.16797C3.30955 9.16783 3.26129 9.13773 3.23584 9.0918L3.21826 9.04102L2.66357 5.03418C2.65249 4.95401 2.70777 4.88117 2.7876 4.87012L2.79248 4.86914C2.8203 4.86514 2.85708 4.87151 2.89307 4.89844C2.91075 4.91174 2.92524 4.92698 2.93506 4.94336L2.95264 4.99512L3.10986 6.12988L3.39014 8.15918L4.6626 6.55371C6.53393 4.19074 9.39003 2.75098 12.4995 2.75098ZM12.4995 6.83398C12.5797 6.83423 12.645 6.90023 12.645 6.98047V12.6885L13.022 12.9492L17.0054 15.707V15.708C17.0719 15.754 17.0879 15.8438 17.0425 15.9092L17.0415 15.9102C17.0138 15.9502 16.9708 15.9736 16.9214 15.9736C16.8928 15.9736 16.8652 15.9648 16.8413 15.9482L16.8394 15.9473L12.4165 12.8848C12.3767 12.857 12.353 12.8117 12.353 12.7646V6.98047C12.353 6.90008 12.4191 6.83398 12.4995 6.83398Z" fill="#212121" stroke="#1F1F1F" stroke-width="1.75"/>
</svg>
