<svg width="25" height="26" viewBox="0 0 25 26" fill="none" xmlns="http://www.w3.org/2000/svg">
<path d="M12.5029 2.98633C18.0233 2.98657 22.5164 7.47955 22.5166 13C22.5166 18.5206 18.0235 23.0144 12.5029 23.0146C7.03478 23.0146 2.64134 18.7406 2.49219 13.2793C2.49092 13.1979 2.55484 13.1322 2.63379 13.1299H2.64551C2.68845 13.1282 2.71736 13.1421 2.73926 13.1631C2.75132 13.1747 2.76239 13.1896 2.77051 13.208L2.78418 13.2725C2.92785 18.569 7.20231 22.7227 12.5029 22.7227C17.864 22.7224 22.2243 18.3621 22.2246 13.001C22.2246 7.63966 17.8642 3.27857 12.5029 3.27832C9.26737 3.27832 6.32303 4.88716 4.53223 7.46777L3.39551 9.10547L5.37109 8.83301L7.33594 8.56055L7.33691 8.56152C7.39549 8.55469 7.43871 8.57065 7.4668 8.5918C7.49395 8.61231 7.51363 8.64155 7.51953 8.68359C7.52765 8.74231 7.49848 8.79954 7.44922 8.8291L7.39355 8.84863L3.39746 9.40039C3.38065 9.40249 3.37047 9.40332 3.36523 9.40332C3.31296 9.40318 3.26471 9.37308 3.23926 9.32715L3.22168 9.27637L2.66699 5.26953C2.65591 5.18936 2.71119 5.11652 2.79102 5.10547L2.7959 5.10449C2.82372 5.10049 2.8605 5.10687 2.89648 5.13379C2.91417 5.14709 2.92866 5.16233 2.93848 5.17871L2.95605 5.23047L3.11328 6.36523L3.39355 8.39453L4.66602 6.78906C6.53735 4.42609 9.39345 2.98633 12.5029 2.98633ZM12.5029 7.06934C12.5831 7.06958 12.6484 7.13558 12.6484 7.21582V12.9238L13.0254 13.1846L17.0088 15.9424V15.9434C17.0753 15.9894 17.0913 16.0791 17.0459 16.1445L17.0449 16.1455C17.0172 16.1856 16.9742 16.209 16.9248 16.209C16.8962 16.209 16.8686 16.2002 16.8447 16.1836L16.8428 16.1826L12.4199 13.1201C12.3801 13.0924 12.3564 13.047 12.3564 13V7.21582C12.3564 7.13543 12.4225 7.06934 12.5029 7.06934Z" fill="#212121" stroke="#1F1F1F" stroke-width="1.75"/>
</svg>
