<svg width="40" height="40" viewBox="0 0 40 40" fill="none" xmlns="http://www.w3.org/2000/svg">
<path d="M30.0007 9.9974C32.3018 9.9974 34.1673 8.13191 34.1673 5.83073C34.1673 3.52955 32.3018 1.66406 30.0007 1.66406C27.6995 1.66406 25.834 3.52955 25.834 5.83073C25.834 8.13191 27.6995 9.9974 30.0007 9.9974Z" fill="#B6B6B6"/>
<path d="M10.0007 9.9974C7.69947 9.9974 5.83398 8.13191 5.83398 5.83073C5.83398 3.52955 7.69947 1.66406 10.0007 1.66406C12.3018 1.66406 14.1673 3.52955 14.1673 5.83073C14.1673 8.13191 12.3018 9.9974 10.0007 9.9974Z" fill="#B6B6B6"/>
<path d="M1.66602 19.9974C1.66602 15.395 5.39697 11.6641 9.99935 11.6641C13.2692 11.6641 16.0976 13.5475 17.4618 16.2848L19.4323 20.04C17.6303 20.3133 16.2493 21.8691 16.2493 23.7474C16.2493 25.8185 17.9283 27.4974 19.9993 27.4974C22.0704 27.4974 23.7493 25.8185 23.7493 23.7474C23.7493 21.876 22.3784 20.3246 20.5861 20.0431L22.5918 16.2822C23.9566 13.5462 26.7843 11.6641 30.0531 11.6641C34.6554 11.6641 38.3327 15.3951 38.3327 19.9974V29.9531L34.9993 30.8307V38.3307H24.9993V34.4014L30.225 27.4701C30.581 26.9978 30.5653 26.3427 30.187 25.8882C29.6948 25.297 28.7977 25.2761 28.2505 25.8169C26.0549 27.9872 23.2851 29.9974 19.9993 29.9974C16.7106 29.9974 13.9367 27.9777 11.7372 25.8027C11.1836 25.2553 10.2732 25.2846 9.78593 25.8917C9.42127 26.3461 9.41135 26.9898 9.76168 27.4552L14.9993 34.4112V38.3307H4.99935V30.7331L1.66602 29.9974V19.9974Z" fill="#B6B6B6"/>
</svg>
