<svg width="40" height="40" viewBox="0 0 40 40" fill="none" xmlns="http://www.w3.org/2000/svg">
<path d="M20.0007 30.8307V33.3307H16.6673V22.7474L19.3757 14.9974H33.959L36.6673 22.7474V33.3307H33.334V30.8307H20.0007ZM20.0007 20.8307H33.334L32.1673 17.4974H21.1673L20.0007 20.8307ZM21.6673 27.4974C22.1395 27.4974 22.5357 27.3374 22.8557 27.0174C23.1757 26.6974 23.3351 26.3018 23.334 25.8307C23.3329 25.3596 23.1729 24.9641 22.854 24.6441C22.5351 24.3241 22.1395 24.1641 21.6673 24.1641C21.1951 24.1641 20.7995 24.3241 20.4807 24.6441C20.1618 24.9641 20.0018 25.3596 20.0007 25.8307C19.9995 26.3018 20.1595 26.6979 20.4807 27.0191C20.8018 27.3402 21.1973 27.4996 21.6673 27.4974ZM31.6673 27.4974C32.1395 27.4974 32.5357 27.3374 32.8557 27.0174C33.1757 26.6974 33.3351 26.3018 33.334 25.8307C33.3329 25.3596 33.1729 24.9641 32.854 24.6441C32.5351 24.3241 32.1395 24.1641 31.6673 24.1641C31.1951 24.1641 30.7995 24.3241 30.4807 24.6441C30.1618 24.9641 30.0018 25.3596 30.0007 25.8307C29.9995 26.3018 30.1595 26.6979 30.4807 27.0191C30.8018 27.3402 31.1973 27.4996 31.6673 27.4974ZM6.66732 33.3307V31.6641L8.33398 29.9974C6.9451 29.9974 5.76454 29.5113 4.79232 28.5391C3.8201 27.5668 3.33398 26.3863 3.33398 24.9974V11.6641C3.33398 9.83073 4.15343 8.53906 5.79232 7.78906C7.43121 7.03906 10.2229 6.66406 14.1673 6.66406C18.2784 6.66406 21.1118 7.02517 22.6673 7.7474C24.2229 8.46962 25.0007 9.77517 25.0007 11.6641V13.3307H21.6673V11.6641H6.66732V21.6641H15.0007V33.3307H6.66732ZM8.33398 26.6641C8.80621 26.6641 9.20232 26.5041 9.52232 26.1841C9.84232 25.8641 10.0018 25.4685 10.0007 24.9974C9.99954 24.5263 9.83954 24.1307 9.52065 23.8107C9.20176 23.4907 8.80621 23.3307 8.33398 23.3307C7.86176 23.3307 7.46621 23.4907 7.14732 23.8107C6.82843 24.1307 6.66843 24.5263 6.66732 24.9974C6.66621 25.4685 6.82621 25.8646 7.14732 26.1857C7.46843 26.5068 7.86398 26.6663 8.33398 26.6641Z" fill="#B6B6B6"/>
</svg>
