<svg width="40" height="40" viewBox="0 0 40 40" fill="none" xmlns="http://www.w3.org/2000/svg">
<g clip-path="url(#clip0_3504_280000)">
<path d="M38.75 22.5H30V17.5C30 17.0962 29.805 16.7175 29.4762 16.4825L21.25 10.6062V6.25H27.5C28.19 6.25 28.75 5.69 28.75 5V1.25C28.75 0.56 28.19 0 27.5 0H20C19.31 0 18.75 0.56 18.75 1.25V10.6062L10.5237 16.4825C10.195 16.7175 10 17.0962 10 17.5V22.5H1.25C0.56 22.5 0 23.06 0 23.75V38.75C0 39.44 0.56 40 1.25 40H16.25V31.25C16.25 30.56 16.81 30 17.5 30H22.5C23.19 30 23.75 30.56 23.75 31.25V40H38.75C39.44 40 40 39.44 40 38.75V23.75C40 23.06 39.44 22.5 38.75 22.5ZM10 31.25C10 31.94 9.44 32.5 8.75 32.5H6.25C5.56 32.5 5 31.94 5 31.25V28.75C5 28.06 5.56 27.5 6.25 27.5H8.75C9.44 27.5 10 28.06 10 28.75V31.25ZM22.5 23.75C22.5 24.44 21.94 25 21.25 25H18.75C18.06 25 17.5 24.44 17.5 23.75V21.25C17.5 20.56 18.06 20 18.75 20H21.25C21.94 20 22.5 20.56 22.5 21.25V23.75ZM35 31.25C35 31.94 34.44 32.5 33.75 32.5H31.25C30.56 32.5 30 31.94 30 31.25V28.75C30 28.06 30.56 27.5 31.25 27.5H33.75C34.44 27.5 35 28.06 35 28.75V31.25Z" fill="#B6B6B6"/>
</g>
<defs>
<clipPath id="clip0_3504_280000">
<rect width="40" height="40" fill="white"/>
</clipPath>
</defs>
</svg>
