<svg width="40" height="40" viewBox="0 0 40 40" fill="none" xmlns="http://www.w3.org/2000/svg">
<g clip-path="url(#clip0_3504_280004)">
<path d="M18.75 10.0578V2.5C18.75 2.16848 18.6183 1.85054 18.3839 1.61612C18.1495 1.3817 17.8315 1.25 17.5 1.25C17.1685 1.25 16.8506 1.3817 16.6161 1.61612C16.3817 1.85054 16.25 2.16848 16.25 2.5V10.0578C12.7263 10.3795 9.46214 12.0472 7.13663 14.7141C4.81113 17.381 3.60325 20.8418 3.76425 24.3765C3.92526 27.9113 5.44275 31.2479 8.00107 33.6923C10.5594 36.1368 13.9616 37.5009 17.5 37.5009C21.0384 37.5009 24.4406 36.1368 26.999 33.6923C29.5573 31.2479 31.0748 27.9113 31.2358 24.3765C31.3968 20.8418 30.1889 17.381 27.8634 14.7141C25.5379 12.0472 22.2738 10.3795 18.75 10.0578ZM28.6781 22.5H23.7141C23.4781 18.0687 22.0281 14.9438 20.6766 12.9594C22.7998 13.5882 24.6909 14.8283 26.1138 16.5249C27.5368 18.2216 28.4287 20.2997 28.6781 22.5ZM21.2125 25C20.9 30.2375 18.6922 33.2734 17.5 34.5438C16.3063 33.2703 14.0985 30.2359 13.7875 25H21.2125ZM14.3235 12.9594C12.9688 14.9438 11.5219 18.0687 11.286 22.5H6.32189C6.57136 20.2997 7.46322 18.2216 8.88618 16.5249C10.3091 14.8283 12.2002 13.5882 14.3235 12.9594ZM6.32189 25H11.286C11.5219 29.4313 12.9719 32.5562 14.3235 34.5406C12.2002 33.9118 10.3091 32.6717 8.88618 30.9751C7.46322 29.2784 6.57136 27.2003 6.32189 25ZM40 13.75C40 14.0815 39.8683 14.3995 39.6339 14.6339C39.3995 14.8683 39.0815 15 38.75 15H37.5V16.25C37.5 16.5815 37.3683 16.8995 37.1339 17.1339C36.8995 17.3683 36.5815 17.5 36.25 17.5C35.9185 17.5 35.6005 17.3683 35.3661 17.1339C35.1317 16.8995 35 16.5815 35 16.25V15H33.75C33.4185 15 33.1005 14.8683 32.8661 14.6339C32.6317 14.3995 32.5 14.0815 32.5 13.75C32.5 13.4185 32.6317 13.1005 32.8661 12.8661C33.1005 12.6317 33.4185 12.5 33.75 12.5H35V11.25C35 10.9185 35.1317 10.6005 35.3661 10.3661C35.6005 10.1317 35.9185 10 36.25 10C36.5815 10 36.8995 10.1317 37.1339 10.3661C37.3683 10.6005 37.5 10.9185 37.5 11.25V12.5H38.75C39.0815 12.5 39.3995 12.6317 39.6339 12.8661C39.8683 13.1005 40 13.4185 40 13.75ZM23.75 6.25C23.75 5.91848 23.8817 5.60054 24.1161 5.36612C24.3505 5.1317 24.6685 5 25 5H27.5V2.5C27.5 2.16848 27.6317 1.85054 27.8661 1.61612C28.1005 1.3817 28.4185 1.25 28.75 1.25C29.0815 1.25 29.3995 1.3817 29.6339 1.61612C29.8683 1.85054 30 2.16848 30 2.5V5H32.5C32.8315 5 33.1495 5.1317 33.3839 5.36612C33.6183 5.60054 33.75 5.91848 33.75 6.25C33.75 6.58152 33.6183 6.89946 33.3839 7.13388C33.1495 7.3683 32.8315 7.5 32.5 7.5H30V10C30 10.3315 29.8683 10.6495 29.6339 10.8839C29.3995 11.1183 29.0815 11.25 28.75 11.25C28.4185 11.25 28.1005 11.1183 27.8661 10.8839C27.6317 10.6495 27.5 10.3315 27.5 10V7.5H25C24.6685 7.5 24.3505 7.3683 24.1161 7.13388C23.8817 6.89946 23.75 6.58152 23.75 6.25Z" fill="#B6B6B6"/>
</g>
<defs>
<clipPath id="clip0_3504_280004">
<rect width="40" height="40" fill="white"/>
</clipPath>
</defs>
</svg>
