<svg width="40" height="40" viewBox="0 0 40 40" fill="none" xmlns="http://www.w3.org/2000/svg">
<path d="M1.66602 31.6641V26.6641C1.66602 25.7196 1.99268 24.928 2.64602 24.2891C3.29935 23.6502 4.08379 23.3307 4.99935 23.3307H10.4577C11.0132 23.3307 11.541 23.4696 12.041 23.7474C12.541 24.0252 12.9438 24.4002 13.2493 24.8724C14.0549 25.9557 15.0482 26.803 16.2293 27.4141C17.4105 28.0252 18.6671 28.3307 19.9993 28.3307C21.3605 28.3307 22.6316 28.0252 23.8127 27.4141C24.9938 26.803 25.9727 25.9557 26.7493 24.8724C27.1105 24.4002 27.5343 24.0252 28.021 23.7474C28.5077 23.4696 29.0143 23.3307 29.541 23.3307H34.9993C35.9438 23.3307 36.7355 23.6502 37.3743 24.2891C38.0132 24.928 38.3327 25.7196 38.3327 26.6641V31.6641C38.3327 32.1363 38.1727 32.5324 37.8527 32.8524C37.5327 33.1724 37.1371 33.3318 36.666 33.3307H28.3327C27.8605 33.3307 27.4649 33.1707 27.146 32.8507C26.8271 32.5307 26.6671 32.1352 26.666 31.6641V29.5391C25.6938 30.2335 24.6449 30.7613 23.5194 31.1224C22.3938 31.4835 21.2205 31.6641 19.9993 31.6641C18.8049 31.6641 17.6382 31.4768 16.4993 31.1024C15.3605 30.728 14.3049 30.193 13.3327 29.4974V31.6641C13.3327 32.1363 13.1727 32.5324 12.8527 32.8524C12.5327 33.1724 12.1371 33.3318 11.666 33.3307H3.33268C2.86046 33.3307 2.4649 33.1707 2.14602 32.8507C1.82713 32.5307 1.66713 32.1352 1.66602 31.6641ZM19.9993 26.6641C18.9438 26.6641 17.9438 26.4213 16.9993 25.9357C16.0549 25.4502 15.2632 24.7763 14.6243 23.9141C14.1521 23.2196 13.5621 22.6713 12.8543 22.2691C12.1466 21.8668 11.3755 21.6652 10.541 21.6641C11.1521 20.6363 12.4438 19.8235 14.416 19.2257C16.3882 18.628 18.2493 18.3296 19.9993 18.3307C21.7493 18.3318 23.6105 18.6307 25.5827 19.2274C27.5549 19.8241 28.8466 20.6363 29.4577 21.6641C28.6521 21.6641 27.8882 21.8657 27.166 22.2691C26.4438 22.6724 25.8466 23.2207 25.3743 23.9141C24.7632 24.803 23.9855 25.4835 23.041 25.9557C22.0966 26.428 21.0827 26.6641 19.9993 26.6641ZM6.66602 21.6641C5.27713 21.6641 4.09657 21.178 3.12435 20.2057C2.15213 19.2335 1.66602 18.053 1.66602 16.6641C1.66602 15.2474 2.15213 14.0602 3.12435 13.1024C4.09657 12.1446 5.27713 11.6652 6.66602 11.6641C8.08268 11.6641 9.27046 12.1435 10.2293 13.1024C11.1882 14.0613 11.6671 15.2485 11.666 16.6641C11.666 18.053 11.1871 19.2335 10.2293 20.2057C9.27157 21.178 8.08379 21.6641 6.66602 21.6641ZM33.3327 21.6641C31.9438 21.6641 30.7632 21.178 29.791 20.2057C28.8188 19.2335 28.3327 18.053 28.3327 16.6641C28.3327 15.2474 28.8188 14.0602 29.791 13.1024C30.7632 12.1446 31.9438 11.6652 33.3327 11.6641C34.7493 11.6641 35.9371 12.1435 36.896 13.1024C37.8549 14.0613 38.3338 15.2485 38.3327 16.6641C38.3327 18.053 37.8538 19.2335 36.896 20.2057C35.9382 21.178 34.7505 21.6641 33.3327 21.6641ZM19.9993 16.6641C18.6105 16.6641 17.4299 16.178 16.4577 15.2057C15.4855 14.2335 14.9993 13.053 14.9993 11.6641C14.9993 10.2474 15.4855 9.06017 16.4577 8.1024C17.4299 7.14462 18.6105 6.66517 19.9993 6.66406C21.416 6.66406 22.6038 7.14351 23.5627 8.1024C24.5216 9.06128 25.0005 10.2485 24.9993 11.6641C24.9993 13.053 24.5205 14.2335 23.5627 15.2057C22.6049 16.178 21.4171 16.6641 19.9993 16.6641Z" fill="#B6B6B6"/>
</svg>
