<svg width="40" height="40" viewBox="0 0 40 40" fill="none" xmlns="http://www.w3.org/2000/svg">
<g clip-path="url(#clip0_3504_280032)">
<path d="M25 31.6641H0V34.9974H3.33333V39.9974H6.66667V34.9974H18.3333V39.9974H21.6667V34.9974H25V31.6641Z" fill="#B6B6B6"/>
<path d="M5.00065 18.3359H20.0006C20.4427 18.3359 20.8666 18.5115 21.1792 18.8241C21.4917 19.1367 21.6673 19.5606 21.6673 20.0026V28.3359H3.33398V20.0026C3.33398 19.5606 3.50958 19.1367 3.82214 18.8241C4.1347 18.5115 4.55862 18.3359 5.00065 18.3359Z" fill="#B6B6B6"/>
<path d="M37.7974 11.6C38.153 10.5476 38.3337 9.44414 38.3324 8.33333C38.3324 3.73833 35.3424 0 31.6657 0C27.9891 0 24.9991 3.73833 24.9991 8.33333C24.9978 9.44414 25.1785 10.5476 25.5341 11.6C24.0854 13.5442 23.3123 15.9088 23.3324 18.3333C23.3324 23.1667 26.2007 27.2017 29.9991 28.1317V40H33.3324V28.1317C37.1307 27.2017 39.9991 23.1633 39.9991 18.3333C40.0192 15.9088 39.2461 13.5442 37.7974 11.6Z" fill="#B6B6B6"/>
</g>
<defs>
<clipPath id="clip0_3504_280032">
<rect width="40" height="40" fill="white"/>
</clipPath>
</defs>
</svg>
