<svg width="18" height="18" viewBox="0 0 18 18" fill="none" xmlns="http://www.w3.org/2000/svg">
<path d="M17.3975 8.79075C17.2997 8.54663 14.9377 2.8125 8.99998 2.8125C3.06223 2.8125 0.70029 8.54719 0.602415 8.79075L0.519165 9L0.602415 9.20925C0.70029 9.45337 3.06223 15.1875 8.99998 15.1875C14.9377 15.1875 17.2997 9.45281 17.3975 9.20925L17.4808 9L17.3975 8.79075ZM8.99998 12.375C7.13585 12.375 5.62498 10.8641 5.62498 9C5.62498 7.13588 7.13585 5.625 8.99998 5.625C10.8641 5.625 12.375 7.13588 12.375 9C12.375 10.8641 10.8641 12.375 8.99998 12.375Z" fill="#FF603F"/>
</svg>
