<svg width="24" height="24" viewBox="0 0 24 24" fill="none" xmlns="http://www.w3.org/2000/svg">
<path d="M14.4004 3.60039H9.60039V6.00039H14.4004V3.60039Z" fill="#E8E8E8"/>
<path fill-rule="evenodd" clip-rule="evenodd" d="M8.40039 3.60039C8.40039 2.93765 8.93765 2.40039 9.60039 2.40039H14.4004C15.0631 2.40039 15.6004 2.93765 15.6004 3.60039V6.00039C15.6004 6.66313 15.0631 7.20039 14.4004 7.20039H9.60039C8.93765 7.20039 8.40039 6.66313 8.40039 6.00039V3.60039Z" fill="#E8E8E8"/>
<path d="M5.15919 9.60039L5.58879 18.1792C5.68359 20.098 7.26399 21.6004 9.18399 21.6004H14.818C16.7392 21.6004 18.3184 20.098 18.4132 18.1792L18.8428 9.60039H5.15919Z" fill="#E8E8E8"/>
<path fill-rule="evenodd" clip-rule="evenodd" d="M2.40039 6.00039C2.40039 5.33765 2.93765 4.80039 3.60039 4.80039H20.4004C21.0631 4.80039 21.6004 5.33765 21.6004 6.00039C21.6004 6.66313 21.0631 7.20039 20.4004 7.20039H3.60039C2.93765 7.20039 2.40039 6.66313 2.40039 6.00039Z" fill="#E8E8E8"/>
</svg>
