<svg width="24" height="24" viewBox="0 0 24 24" fill="none" xmlns="http://www.w3.org/2000/svg">
<path d="M20.333 10.666H15.333C14.781 10.666 14.333 10.218 14.333 9.66602C14.333 9.11402 14.781 8.66602 15.333 8.66602H19.9997V4.99935C19.9997 3.71268 18.953 2.66602 17.6663 2.66602H9.33301V8.66602H10.9997C11.5517 8.66602 11.9997 9.11402 11.9997 9.66602C11.9997 10.218 11.5517 10.666 10.9997 10.666H9.33301V14.3327C9.33301 14.8847 8.88501 15.3327 8.33301 15.3327C7.78101 15.3327 7.33301 14.8847 7.33301 14.3327V2.66602H3.66634C2.37967 2.66602 1.33301 3.71268 1.33301 4.99935V18.9993C1.33301 20.286 2.37967 21.3327 3.66634 21.3327H7.33301V18.666C7.33301 18.114 7.78101 17.666 8.33301 17.666C8.88501 17.666 9.33301 18.114 9.33301 18.666V21.3327H20.333C21.6197 21.3327 22.6663 20.286 22.6663 18.9993V12.9993C22.6663 11.7127 21.6197 10.666 20.333 10.666Z" fill="#B6B6B6"/>
</svg>
