<svg width="65" height="64" viewBox="0 0 65 64" fill="none" xmlns="http://www.w3.org/2000/svg">
<path fill-rule="evenodd" clip-rule="evenodd" d="M61.8327 15.9974C61.8327 23.3611 55.8631 29.3307 48.4993 29.3307C41.1356 29.3307 35.166 23.3611 35.166 15.9974C35.166 8.6336 41.1356 2.66406 48.4993 2.66406C55.8631 2.66406 61.8327 8.6336 61.8327 15.9974ZM50.4993 8.66406V13.9974H55.8327V17.9974H50.4993V23.3307H46.4993V17.9974H41.166V13.9974H46.4993V8.66406H50.4993Z" fill="#949494"/>
<path d="M51.7459 33.0273C50.6941 33.2265 49.6089 33.3307 48.4993 33.3307C38.9264 33.3307 31.166 25.5703 31.166 15.9974C31.166 10.9141 33.3541 6.3419 36.84 3.17133C35.4471 2.83965 33.9937 2.66406 32.4993 2.66406C22.1896 2.66406 13.8327 11.021 13.8327 21.3307V26.6641C13.8327 33.0973 12.2271 37.5418 10.6671 40.3499C9.75488 41.9919 8.63803 43.5122 7.16602 44.6899V50.4003C23.8928 54.1178 41.0981 54.1195 57.8327 50.4003V44.6899C56.3607 43.5123 55.2437 41.9919 54.3316 40.3499C53.3509 38.5847 52.3524 36.173 51.7459 33.0273Z" fill="#949494"/>
<path d="M24.3945 55.7422C25.6359 59.0097 28.7967 61.3323 32.4991 61.3323C36.2016 61.3323 39.3624 59.0097 40.6037 55.7422C35.2045 56.0846 29.7931 56.0846 24.3945 55.7422Z" fill="#949494"/>
</svg>
