<svg width="17" height="16" viewBox="0 0 17 16" fill="none" xmlns="http://www.w3.org/2000/svg">
<path d="M4.5 8L12.5 4" stroke="#212121" stroke-linecap="round" stroke-linejoin="round"/>
<path d="M12.5 12L4.5 8" stroke="#212121" stroke-linecap="round" stroke-linejoin="round"/>
<path d="M4.50002 9.59844C5.38368 9.59844 6.10002 8.88209 6.10002 7.99844C6.10002 7.11478 5.38368 6.39844 4.50002 6.39844C3.61637 6.39844 2.90002 7.11478 2.90002 7.99844C2.90002 8.88209 3.61637 9.59844 4.50002 9.59844Z" fill="#212121" stroke="#212121" stroke-linecap="round" stroke-linejoin="round"/>
<path d="M12.5 13.5984C13.3837 13.5984 14.1 12.8821 14.1 11.9984C14.1 11.1148 13.3837 10.3984 12.5 10.3984C11.6164 10.3984 10.9 11.1148 10.9 11.9984C10.9 12.8821 11.6164 13.5984 12.5 13.5984Z" fill="#212121" stroke="#212121" stroke-linecap="round" stroke-linejoin="round"/>
<path d="M12.5 5.59844C13.3837 5.59844 14.1 4.88209 14.1 3.99844C14.1 3.11478 13.3837 2.39844 12.5 2.39844C11.6164 2.39844 10.9 3.11478 10.9 3.99844C10.9 4.88209 11.6164 5.59844 12.5 5.59844Z" fill="#212121" stroke="#212121" stroke-linecap="round" stroke-linejoin="round"/>
</svg>
