<svg width="16" height="16" viewBox="0 0 16 16" fill="none" xmlns="http://www.w3.org/2000/svg">
<path d="M5.55554 2.48438V11.8177" stroke="white" stroke-linecap="round" stroke-linejoin="round"/>
<path d="M10.4445 4.1875V13.5208" stroke="white" stroke-linecap="round" stroke-linejoin="round"/>
<path d="M2.25154 3.17984L5.30221 2.50161C5.46754 2.46517 5.63999 2.47584 5.7991 2.53361L10.2009 4.1345C10.36 4.19228 10.5324 4.20384 10.6978 4.1665L13.3627 3.5745C13.9182 3.45095 14.4444 3.87317 14.4444 4.44206V11.9549C14.4444 12.3718 14.1547 12.7327 13.7484 12.8225L10.6978 13.5007C10.5324 13.5372 10.36 13.5265 10.2009 13.4687L5.7991 11.8678C5.63999 11.8101 5.46754 11.7985 5.30221 11.8358L2.63732 12.4278C2.08176 12.5514 1.55554 12.1292 1.55554 11.5603V4.04739C1.55554 3.6305 1.84532 3.26961 2.25154 3.17984Z" stroke="white" stroke-linecap="round" stroke-linejoin="round"/>
</svg>
