<svg width="48" height="48" viewBox="0 0 48 48" fill="none" xmlns="http://www.w3.org/2000/svg">
<g clip-path="url(#clip0_7396_111537)">
<path d="M25.9993 10.668V9.33464C25.9993 9.15782 25.9291 8.98826 25.8041 8.86323C25.6791 8.73821 25.5095 8.66797 25.3327 8.66797H22.666C22.4892 8.66797 22.3196 8.73821 22.1946 8.86323C22.0696 8.98826 21.9993 9.15782 21.9993 9.33464V10.668H25.9993Z" fill="#B6B6B6"/>
<path d="M21.9993 28.0013V38.668C21.9993 38.8448 22.0696 39.0144 22.1946 39.1394C22.3196 39.2644 22.4892 39.3346 22.666 39.3346H25.3327C25.5095 39.3346 25.6791 39.2644 25.8041 39.1394C25.9291 39.0144 25.9993 38.8448 25.9993 38.668V28.0013H21.9993Z" fill="#B6B6B6"/>
<path d="M21.7388 17.0243H22.044L22.9708 19.6782H20.8075L21.7388 17.0243Z" fill="#B6B6B6"/>
<path fill-rule="evenodd" clip-rule="evenodd" d="M9.33268 12.0013H38.666C38.8428 12.0013 39.0124 12.0715 39.1374 12.1966C39.2624 12.3216 39.3327 12.4912 39.3327 12.668V26.0013C39.3327 26.1781 39.2624 26.3477 39.1374 26.4727C39.0124 26.5977 38.8428 26.668 38.666 26.668H9.33268C9.15587 26.668 8.9863 26.5977 8.86128 26.4727C8.73625 26.3477 8.66602 26.1781 8.66602 26.0013V12.668C8.66602 12.4912 8.73625 12.3216 8.86128 12.1966C8.9863 12.0715 9.15587 12.0013 9.33268 12.0013ZM15.5933 20.738C15.4972 20.6193 15.4351 20.4808 15.4068 20.3225L14.347 20.6193C14.4092 20.9189 14.542 21.1789 14.7455 21.3993C14.949 21.6141 15.2061 21.778 15.517 21.8911C15.8336 22.0041 16.184 22.0607 16.5684 22.0607C17.0375 22.0607 17.4275 21.9815 17.7384 21.8233C18.0493 21.665 18.2811 21.453 18.4337 21.1874C18.5919 20.9217 18.6711 20.6249 18.6711 20.2971C18.6711 19.9862 18.6089 19.729 18.4845 19.5255C18.3658 19.3221 18.2076 19.1553 18.0097 19.0253C17.8119 18.8896 17.5915 18.7794 17.3484 18.6946C17.111 18.6042 16.8764 18.5251 16.6447 18.4572C16.4468 18.3951 16.2688 18.3329 16.1105 18.2707C15.9523 18.2029 15.8251 18.1237 15.729 18.0333C15.6329 17.9372 15.5849 17.81 15.5849 17.6518C15.5849 17.5105 15.6272 17.3861 15.712 17.2787C15.7968 17.1713 15.9099 17.0893 16.0512 17.0328C16.1925 16.9763 16.3479 16.9509 16.5175 16.9565C16.6701 16.9565 16.8143 16.9848 16.9499 17.0413C17.0912 17.0922 17.2099 17.1628 17.306 17.2533C17.4021 17.3437 17.4643 17.4511 17.4925 17.5755L18.5524 17.2872C18.4619 17.0102 18.3206 16.7785 18.1284 16.5919C17.9419 16.3998 17.7102 16.2556 17.4332 16.1595C17.1562 16.0578 16.8453 16.0069 16.5005 16.0069C16.0936 16.0069 15.7346 16.0719 15.4238 16.2019C15.1129 16.3319 14.867 16.5241 14.6861 16.7785C14.5109 17.0328 14.4233 17.3409 14.4233 17.7026C14.4233 17.9909 14.4742 18.2311 14.5759 18.4233C14.6833 18.6098 14.8246 18.7625 14.9998 18.8812C15.1807 18.9999 15.3814 19.0988 15.6018 19.1779C15.8279 19.2571 16.054 19.3305 16.2801 19.3984C16.5232 19.4718 16.7351 19.5482 16.916 19.6273C17.1025 19.7064 17.2467 19.8025 17.3484 19.9156C17.4502 20.0286 17.501 20.1699 17.501 20.3395C17.501 20.5543 17.4191 20.738 17.2551 20.8906C17.0912 21.0376 16.8425 21.111 16.509 21.111C16.3055 21.111 16.1247 21.08 15.9664 21.0178C15.8138 20.95 15.6894 20.8567 15.5933 20.738ZM20.4713 20.6362L19.9922 22.0013H18.8137L20.9418 16.0663H22.8326L24.9607 22.0013H23.7822L23.3054 20.6362H20.4713ZM26.4808 21.0432V16.0663H25.3361V22.0013H29.1176V21.0432H26.4808ZM30.7804 17.0243H33.8072V16.0663H29.6357V22.0013H33.8072V21.0432H30.7804V19.4577H33.0441V18.5335H30.7804V17.0243Z" fill="#B6B6B6"/>
</g>
<defs>
<clipPath id="clip0_7396_111537">
<rect width="32" height="32" fill="white" transform="translate(8 8)"/>
</clipPath>
</defs>
</svg>
