<svg width="48" height="48" viewBox="0 0 48 48" fill="none" xmlns="http://www.w3.org/2000/svg">
<g clip-path="url(#clip0_7396_111505)">
<path d="M22.4209 11.2646C23.2918 10.602 24.4896 10.5599 25.4023 11.1406L25.5811 11.2646V11.2656L34.9141 18.3535V18.3545C35.5598 18.8466 35.9452 19.6257 35.9453 20.4346V24.3955C35.1343 23.6591 34.0536 23.2363 32.8896 23.2363C31.2672 23.2364 29.8006 24.0518 29.0029 25.4053L28.8525 25.6826L28.8516 25.6846L28.1162 27.1787L26.4678 27.4189C24.8666 27.6512 23.5414 28.6992 22.9453 30.1758L22.8359 30.4746C22.3384 31.9917 22.6991 33.6792 23.752 34.8652L23.9717 35.0947L25.165 36.2588L24.915 37.7217H16.4453C14.0247 37.7216 12.0567 35.7536 12.0566 33.333V20.4365C12.0567 19.6781 12.3959 18.9465 12.9697 18.4541L13.0879 18.3584L22.4209 11.2646Z" fill="#B6B6B6" stroke="#B6B6B6"/>
<path d="M32.8906 26.9023C33.2338 26.9023 33.5165 27.0611 33.6387 27.3057V27.3066L35.1123 30.2949L35.2285 30.5303L35.4893 30.5684L38.7871 31.0479L38.8027 31.0498C39.1111 31.099 39.3651 31.3167 39.4619 31.6133V31.6143L39.4629 31.6162C39.549 31.8784 39.4974 32.1659 39.3311 32.3818L39.2529 32.4688L36.8652 34.7959L36.6768 34.9795L36.7217 35.2393L37.2852 38.5244C37.3316 38.7987 37.2391 39.0748 37.043 39.2646L36.9521 39.3398L36.9502 39.3418C36.8108 39.4444 36.6379 39.499 36.4639 39.499C36.3623 39.499 36.263 39.4806 36.1699 39.4453L36.0781 39.4043L36.0762 39.4033L33.125 37.8516L32.8926 37.7285L32.6602 37.8516L29.709 39.4033C29.4634 39.5317 29.1699 39.5284 28.9316 39.4023L28.833 39.3408L28.832 39.3398L28.7422 39.2637C28.5462 39.0745 28.4534 38.7996 28.5 38.5244L29.0635 35.2393L29.1084 34.9795L28.9199 34.7959L26.5322 32.4688H26.5312C26.3334 32.2752 26.2467 31.9965 26.2939 31.7295L26.3223 31.6162L26.3232 31.6133C26.4071 31.352 26.6166 31.1501 26.8789 31.0732L26.9941 31.0479H26.9951L30.293 30.5684L30.5527 30.5303L30.6689 30.2949L32.1426 27.3076C32.2643 27.0622 32.5468 26.9024 32.8906 26.9023Z" fill="#B6B6B6" stroke="#B6B6B6"/>
</g>
<defs>
<clipPath id="clip0_7396_111505">
<rect width="32" height="32" fill="white" transform="translate(8 8)"/>
</clipPath>
</defs>
</svg>
