<svg width="32" height="32" viewBox="0 0 32 32" fill="none" xmlns="http://www.w3.org/2000/svg">
<path d="M16 16.625C16.3452 16.625 16.625 16.3452 16.625 16C16.625 15.6548 16.3452 15.375 16 15.375C15.6548 15.375 15.375 15.6548 15.375 16C15.375 16.3452 15.6548 16.625 16 16.625Z" fill="white" stroke="white" stroke-width="2" stroke-miterlimit="10" stroke-linecap="square"/>
<path d="M22.875 16.625C23.2202 16.625 23.5 16.3452 23.5 16C23.5 15.6548 23.2202 15.375 22.875 15.375C22.5298 15.375 22.25 15.6548 22.25 16C22.25 16.3452 22.5298 16.625 22.875 16.625Z" fill="white" stroke="white" stroke-width="2" stroke-miterlimit="10" stroke-linecap="square"/>
<path d="M9.125 16.625C9.47018 16.625 9.75 16.3452 9.75 16C9.75 15.6548 9.47018 15.375 9.125 15.375C8.77982 15.375 8.5 15.6548 8.5 16C8.5 16.3452 8.77982 16.625 9.125 16.625Z" fill="white" stroke="white" stroke-width="2" stroke-miterlimit="10" stroke-linecap="square"/>
</svg>
