<svg width="55" height="55" viewBox="0 0 55 55" fill="none" xmlns="http://www.w3.org/2000/svg">
<path d="M35.4893 41.6866C40.1693 39.8551 44.0635 36.448 46.5005 32.0527C48.9376 27.6575 49.7646 22.5497 48.839 17.61C47.9134 12.6704 45.2932 8.2085 41.4302 4.99377C37.5673 1.77904 32.7037 0.0129653 27.678 7.10467e-05C22.6524 -0.0128232 17.7798 1.72827 13.9004 4.92314C10.021 8.118 7.37797 12.5664 6.42704 17.5012C5.47611 22.4361 6.2769 27.5481 8.69132 31.9557C11.1057 36.3634 14.9825 39.7905 19.653 41.646L22.9561 33.3318C20.2213 32.2453 17.9513 30.2386 16.5376 27.6577C15.1238 25.0769 14.6549 22.0836 15.2117 19.194C15.7685 16.3044 17.3161 13.6997 19.5877 11.829C21.8593 9.95827 24.7124 8.93879 27.6551 8.94634C30.5978 8.95389 33.4457 9.988 35.7076 11.8704C37.9695 13.7527 39.5037 16.3653 40.0457 19.2577C40.5877 22.1501 40.1034 25.1409 38.6765 27.7145C37.2495 30.2881 34.9692 32.2831 32.2289 33.3556L35.4893 41.6866Z" fill="#FF603F"/>
<path d="M18.9643 53.0933C21.6997 54.2912 24.654 54.9084 27.6402 54.906C30.6264 54.9036 33.5797 54.2817 36.3132 53.0794L32.1423 43.5959C30.7207 44.2212 29.1849 44.5446 27.6319 44.5459C26.0789 44.5471 24.5426 44.2261 23.12 43.6032L18.9643 53.0933Z" fill="#FF603F"/>
</svg>
