<svg width="18" height="19" viewBox="0 0 18 19" fill="none" xmlns="http://www.w3.org/2000/svg">
<path d="M9.68769 3.23353L11.2888 6.47713L14.8699 6.99733C15.4981 7.08823 15.7492 7.86043 15.2947 8.30413L12.7036 10.8295L13.3156 14.3953C13.4227 15.0208 12.7666 15.4978 12.2041 15.2026L9.00189 13.5196L5.79969 15.2026C5.23809 15.4978 4.58109 15.0208 4.68819 14.3953L5.30019 10.8295L2.70909 8.30413C2.25459 7.86133 2.50569 7.08913 3.13389 6.99733L6.71499 6.47713L8.31609 3.23353C8.59689 2.66382 9.40869 2.66382 9.68949 3.23353H9.68769Z" fill="#C6C6C6"/>
<path fill-rule="evenodd" clip-rule="evenodd" d="M10.519 2.88426C10.5121 2.86789 10.5047 2.85168 10.4968 2.83563C9.88606 1.59661 8.12005 1.59646 7.50906 2.83516L6.11739 5.65449L3.00451 6.10667C1.64037 6.30602 1.0911 7.98411 2.08092 8.94864L4.33311 11.1437L3.80116 14.2431C3.56815 15.604 4.99692 16.6413 6.2184 15.9993L9.00189 14.5364L11.7854 15.9993C13.0075 16.6407 14.4357 15.6043 14.2027 14.2434L13.6707 11.1437L15.9229 8.94864C16.91 7.98497 16.3667 6.30492 14.9993 6.10667L11.8864 5.65449L10.519 2.88426ZM9.00189 3.8775L7.52203 6.87549C7.39092 7.1411 7.1375 7.3252 6.84437 7.36778L3.53158 7.849L5.92837 10.185C6.14053 10.3918 6.23734 10.6898 6.18722 10.9818L5.6212 14.2797L8.58318 12.723C8.84532 12.5852 9.15846 12.5852 9.4206 12.723L12.3826 14.2797L11.8166 10.9818C11.7664 10.6898 11.8633 10.3918 12.0754 10.185L14.4722 7.849L11.1594 7.36778C10.8663 7.3252 10.6129 7.1411 10.4818 6.87549L9.00189 3.8775Z" fill="#C6C6C6"/>
</svg>
