<svg width="18" height="19" viewBox="0 0 18 19" fill="none" xmlns="http://www.w3.org/2000/svg">
<path fill-rule="evenodd" clip-rule="evenodd" d="M0.75 9.5C0.75 4.94364 4.44364 1.25 9 1.25C13.5564 1.25 17.25 4.94364 17.25 9.5C17.25 14.0564 13.5564 17.75 9 17.75C4.44364 17.75 0.75 14.0564 0.75 9.5ZM10.875 7.25C10.875 6.62866 11.3787 6.125 12 6.125C12.6213 6.125 13.125 6.62866 13.125 7.25C13.125 7.87134 12.6213 8.375 12 8.375C11.3787 8.375 10.875 7.87134 10.875 7.25ZM6 6.125C5.37866 6.125 4.875 6.62866 4.875 7.25C4.875 7.87134 5.37866 8.375 6 8.375C6.62134 8.375 7.125 7.87134 7.125 7.25C7.125 6.62866 6.62134 6.125 6 6.125ZM5.625 10.625V11.75H12.375V10.625H5.625Z" fill="#C6C6C6"/>
</svg>
