<svg width="18" height="19" viewBox="0 0 18 19" fill="none" xmlns="http://www.w3.org/2000/svg">
<path fill-rule="evenodd" clip-rule="evenodd" d="M0.5625 9.5C0.5625 4.8401 4.3401 1.0625 9 1.0625C13.6599 1.0625 17.4375 4.8401 17.4375 9.5C17.4375 14.1599 13.6599 17.9375 9 17.9375C4.3401 17.9375 0.5625 14.1599 0.5625 9.5ZM5.76467 13.598L5.60423 14.1371L4.52597 13.8162L4.68642 13.2771C5.23952 11.4186 6.96066 10.0625 9 10.0625C11.0393 10.0625 12.7605 11.4186 13.3136 13.2771L13.474 13.8162L12.3958 14.1371L12.2353 13.598C11.8203 12.2034 10.528 11.1875 9 11.1875C7.47197 11.1875 6.17974 12.2034 5.76467 13.598ZM11.8125 6.6875C11.1912 6.6875 10.6875 7.19116 10.6875 7.8125C10.6875 8.43384 11.1912 8.9375 11.8125 8.9375C12.4338 8.9375 12.9375 8.43384 12.9375 7.8125C12.9375 7.19116 12.4338 6.6875 11.8125 6.6875ZM6.1875 6.6875C5.56618 6.6875 5.0625 7.19116 5.0625 7.8125C5.0625 8.43384 5.56618 8.9375 6.1875 8.9375C6.80884 8.9375 7.3125 8.43384 7.3125 7.8125C7.3125 7.19116 6.80884 6.6875 6.1875 6.6875Z" fill="#C6C6C6"/>
</svg>
