<svg width="20" height="21" viewBox="0 0 20 21" fill="none" xmlns="http://www.w3.org/2000/svg">
<path d="M19.4546 8.65425C19.5776 9.31325 19.6446 10.0023 19.6446 10.7213C19.6446 16.3453 15.8806 20.3443 10.1956 20.3443C8.90268 20.3448 7.62237 20.0905 6.42781 19.596C5.23324 19.1015 4.14784 18.3764 3.23363 17.4622C2.31943 16.548 1.59434 15.4626 1.09982 14.268C0.605302 13.0734 0.351038 11.7931 0.351563 10.5003C0.351038 9.20737 0.605302 7.92706 1.09982 6.73249C1.59434 5.53793 2.31943 4.45252 3.23363 3.53832C4.14784 2.62411 5.23324 1.89903 6.42781 1.40451C7.62237 0.909989 8.90268 0.655725 10.1956 0.656251C12.8536 0.656251 15.0746 1.63425 16.7786 3.22225L14.0036 5.99725V5.99025C12.9706 5.00625 11.6596 4.50125 10.1956 4.50125C6.94756 4.50125 4.30756 7.24525 4.30756 10.4943C4.30756 13.7433 6.94756 16.4933 10.1956 16.4933C13.1426 16.4933 15.1486 14.8073 15.5606 12.4933H10.1956V8.65425H19.4546Z" fill="white"/>
</svg>
