<svg width="44" height="20" viewBox="0 0 44 20" fill="none" xmlns="http://www.w3.org/2000/svg">
<path d="M27.3561 3C24.374 3 21.709 4.55395 21.709 7.425C21.709 10.7175 26.4354 10.9449 26.4354 12.599C26.4354 13.2955 25.6415 13.9189 24.2855 13.9189C22.3612 13.9189 20.9229 13.0478 20.9229 13.0478L20.3074 15.945C20.3074 15.945 21.9643 16.6808 24.1641 16.6808C27.4246 16.6808 29.9901 15.0506 29.9901 12.1305C29.9901 8.65131 25.244 8.43064 25.244 6.89541C25.244 6.34975 25.8957 5.75198 27.2478 5.75198C28.7734 5.75198 30.0181 6.38555 30.0181 6.38555L30.6204 3.58737C30.6204 3.58737 29.2661 3 27.3561 3ZM0.0722282 3.2112L0 3.63357C0 3.63357 1.25462 3.86438 2.38458 4.32487C3.83949 4.85286 3.94317 5.16026 4.18819 6.11497L6.85828 16.463H10.4377L15.9519 3.2112H12.3808L8.83753 12.2212L7.39171 4.58388C7.25911 3.70982 6.58744 3.2112 5.76531 3.2112H0.0722282ZM17.3879 3.2112L14.5864 16.463H17.9918L20.7834 3.21116H17.3879V3.2112ZM36.3807 3.2112C35.5596 3.2112 35.1245 3.65318 34.8053 4.42551L29.8162 16.463H33.3873L34.0782 14.4567H38.4289L38.849 16.463H42L39.2511 3.2112H36.3807ZM36.8452 6.79143L37.9037 11.7642H35.0678L36.8452 6.79143Z" fill="#1434CB"/>
</svg>
