<svg width="92" height="41" viewBox="0 0 92 41" fill="none" xmlns="http://www.w3.org/2000/svg">
<path d="M85.1843 34.9837L84.3218 30.6595H74.6848L73.1515 34.9529L65.4273 34.9683C70.3928 23.004 74.0779 14.1416 76.4827 8.38108C77.1113 6.87433 78.2268 6.10558 79.8713 6.11711C81.1287 6.12736 83.1808 6.12864 86.0277 6.12095L92 34.9721L85.1843 34.9837ZM76.8507 24.7362H83.0645L80.7453 13.8969L76.8507 24.7362ZM27.071 6.11326L34.8373 6.12095L22.8313 34.9875L14.9692 34.9798C12.9921 27.3551 11.0397 19.7239 9.11183 12.0865C8.7285 10.5643 7.9695 9.49961 6.509 8.99608C5.20311 8.54764 3.03344 7.85448 0 6.91661V6.12095H12.4085C14.5552 6.12095 15.8087 7.16261 16.2112 9.29973C16.6175 11.442 17.6397 16.8924 19.2778 25.651L27.071 6.11326ZM45.5093 6.12095L39.3722 34.9837L31.9777 34.9721L38.1033 6.11326L45.5093 6.12095ZM60.4977 5.58667C62.7095 5.58667 65.4963 6.27854 67.0987 6.91661L65.803 12.8975C64.354 12.3132 61.9697 11.5253 59.9648 11.5522C57.0515 11.6021 55.2498 12.8283 55.2498 14.0045C55.2498 15.9187 58.3778 16.8835 61.5978 18.9745C65.2702 21.3576 65.757 23.4985 65.711 25.8279C65.6612 30.6518 61.5978 35.4142 53.0265 35.4142C49.1165 35.3565 47.7058 35.0298 44.5165 33.892L45.8658 27.6498C49.1127 29.0105 50.4888 29.4448 53.2642 29.4448C55.8057 29.4448 57.9868 28.4147 58.006 26.6197C58.0213 25.3435 57.2393 24.7093 54.3873 23.1334C51.5353 21.5575 47.5333 19.3704 47.587 14.977C47.6522 9.35739 52.9613 5.58667 60.4977 5.58667Z" fill="#949494"/>
</svg>
