<svg width="469" height="330" viewBox="0 0 469 330" fill="none" xmlns="http://www.w3.org/2000/svg">
<path opacity="0.3" d="M0.278851 259.845C27.0871 328.466 76.9576 385.566 141.291 421.298C205.624 457.031 280.387 469.157 352.69 455.586C424.992 442.014 490.301 403.596 537.355 346.955C584.409 290.314 610.259 219.001 610.448 145.312C610.637 71.6236 585.152 0.178542 538.389 -56.7036C491.625 -113.586 426.514 -152.34 354.282 -166.283C282.051 -180.226 207.226 -168.484 142.711 -133.082C78.1952 -97.6807 28.033 -40.838 0.873587 27.6442L122.569 76.076C138.472 35.9767 167.844 2.69288 205.621 -18.0363C243.397 -38.7655 287.21 -45.6407 329.505 -37.4764C371.8 -29.3122 409.925 -6.62016 437.307 26.6867C464.689 59.9936 479.611 101.828 479.501 144.975C479.39 188.123 464.254 229.88 436.702 263.046C409.15 296.211 370.908 318.707 328.572 326.654C286.236 334.601 242.459 327.5 204.789 306.577C167.12 285.654 137.918 252.22 122.221 212.039L0.278851 259.845Z" fill="#D9D9D9"/>
</svg>
