<svg width="234" height="320" viewBox="0 0 234 320" fill="none" xmlns="http://www.w3.org/2000/svg">
<path opacity="0.3" d="M184.909 326.173C225.415 310.349 259.12 280.911 280.212 242.937C301.305 204.962 308.462 160.831 300.451 118.152C292.44 75.4738 269.763 36.9232 236.329 9.14804C202.895 -18.6272 160.8 -33.886 117.303 -33.9974C73.8061 -34.1088 31.6336 -19.0658 -1.94282 8.53776C-35.5192 36.1413 -58.3948 74.5752 -66.6251 117.212C-74.8555 159.849 -67.9246 204.017 -47.0277 242.099C-26.1308 280.181 7.42231 309.791 47.846 325.822L76.4343 253.988C52.7645 244.601 33.1177 227.263 20.8817 204.964C8.64568 182.665 4.58738 156.803 9.40658 131.838C14.2258 106.872 27.6204 84.3673 47.2808 68.2043C66.9412 52.0412 91.6351 43.2329 117.104 43.2981C142.574 43.3633 167.222 52.2981 186.799 68.5616C206.376 84.8252 219.655 107.398 224.345 132.388C229.036 157.378 224.845 183.219 212.495 205.455C200.144 227.691 180.408 244.928 156.691 254.193L184.909 326.173Z" fill="#D9D9D9"/>
</svg>
