<svg width="58" height="26" viewBox="0 0 58 26" fill="none" xmlns="http://www.w3.org/2000/svg">
<path d="M53.7032 22.1845L53.1594 19.4423H47.0839L46.1173 22.165L41.2477 22.1747C44.3781 14.5876 46.7013 8.96754 48.2173 5.31454C48.6137 4.35904 49.3169 3.87154 50.3537 3.87886C51.1463 3.88536 52.4401 3.88617 54.2348 3.88129L58 22.1772L53.7032 22.1845ZM48.4493 15.6861H52.3668L50.9047 8.81235L48.4493 15.6861ZM17.0665 3.87642L21.9627 3.88129L14.3937 22.1869L9.43708 22.182C8.19069 17.3468 6.95979 12.5075 5.74442 7.66429C5.50275 6.69904 5.02425 6.02386 4.1035 5.70454C3.28022 5.42017 1.91239 4.9806 0 4.38585V3.88129H7.82275C9.17608 3.88129 9.96633 4.54186 10.2201 5.89711C10.4763 7.25561 11.1207 10.712 12.1534 16.2662L17.0665 3.87642ZM28.6907 3.88129L24.8216 22.1845L20.1598 22.1772L24.0217 3.87642L28.6907 3.88129ZM38.1398 3.54248C39.5343 3.54248 41.2912 3.98123 42.3013 4.38585L41.4845 8.17861C40.571 7.80811 39.0678 7.30842 37.8039 7.32548C35.9673 7.35717 34.8314 8.13473 34.8314 8.88061C34.8314 10.0945 36.8034 10.7063 38.8334 12.0323C41.1486 13.5435 41.4555 14.9012 41.4265 16.3784C41.3951 19.4374 38.8334 22.4575 33.4298 22.4575C30.9648 22.4209 30.0754 22.2137 28.0648 21.4922L28.9154 17.5337C30.9623 18.3966 31.8299 18.672 33.5796 18.672C35.1818 18.672 36.5569 18.0188 36.569 16.8805C36.5787 16.0712 36.0857 15.669 34.2877 14.6697C32.4897 13.6703 29.9667 12.2834 30.0005 9.49729C30.0416 5.93367 33.3887 3.54248 38.1398 3.54248Z" fill="white"/>
</svg>
