<svg width="24" height="26" viewBox="0 0 24 26" fill="none" xmlns="http://www.w3.org/2000/svg">
<path d="M6.32019 21.824L6.71234 22.0201C8.31135 22.9712 10.1394 23.4683 11.9999 23.458C17.7273 23.4449 22.4331 18.7279 22.4331 13.0005C22.4331 10.2326 21.3338 7.57441 19.3789 5.61493C17.4266 3.63521 14.7594 2.51953 11.9796 2.51953C6.27836 2.51953 1.58752 7.21102 1.58752 12.9116C1.58752 12.9567 1.58752 13.0012 1.58818 13.0463C1.60535 14.9844 2.14744 16.8817 3.15681 18.5364L3.41823 18.9286L2.37249 22.7848L6.32019 21.824Z" fill="#00E676"/>
<path d="M20.5424 4.43972C18.3169 2.16913 15.2639 0.895299 12.0849 0.910287H12.0646C5.51763 0.910308 0.130077 6.29788 0.130077 12.8449C0.130077 12.8756 0.130733 12.9057 0.130733 12.9364C0.155393 15.018 0.694253 17.0611 1.69936 18.8841L0 25.0932L6.33331 23.4592C8.08289 24.4197 10.0498 24.9149 12.0457 24.8971C18.6169 24.8612 24.0038 19.4429 23.9999 12.871C24.0155 9.71353 22.7705 6.67695 20.5424 4.43972ZM12.0849 22.871C10.3157 22.8802 8.5777 22.4056 7.05878 21.4984L6.66662 21.3024L2.8954 22.2828L3.87578 18.5573L3.61436 18.1651C2.64325 16.5971 2.12877 14.7893 2.12874 12.9449C2.12874 7.50572 6.60454 3.02989 12.0437 3.02989C17.4829 3.02989 21.9587 7.50572 21.9587 12.9449C21.9587 16.3697 20.1842 19.5605 17.2744 21.3677C15.7355 22.3535 13.9452 22.8754 12.1176 22.871M17.8627 15.6161L17.1437 15.2893C17.1437 15.2893 16.0979 14.8318 15.4444 14.505C15.379 14.505 15.3136 14.4397 15.2483 14.4397C15.0871 14.4436 14.9297 14.4886 14.7908 14.5704C14.6515 14.6521 14.7254 14.6357 13.8104 15.6815C13.7483 15.8037 13.6208 15.8802 13.4836 15.8776H13.4182C13.32 15.8611 13.2289 15.8156 13.1568 15.7468L12.83 15.6161C12.1288 15.3193 11.4867 14.8986 10.9346 14.3743C10.8039 14.2436 10.6078 14.1128 10.4771 13.9821C9.9932 13.5186 9.57536 12.9908 9.23525 12.4135L9.16987 12.2828C9.11309 12.2029 9.069 12.1147 9.03916 12.0214C9.02207 11.9081 9.04519 11.7925 9.10451 11.6946C9.16399 11.5965 9.36596 11.3678 9.56203 11.1717C9.75811 10.9756 9.75811 10.8449 9.88883 10.7142C9.95601 10.6209 10.0024 10.5143 10.025 10.4015C10.0475 10.2888 10.0457 10.1725 10.0195 10.0606C9.71494 9.21486 9.36588 8.38583 8.9738 7.57695C8.86871 7.41351 8.70498 7.29656 8.51629 7.25015H7.79733C7.66662 7.25015 7.53591 7.31551 7.40517 7.31551L7.33982 7.38086C7.20911 7.44622 7.07839 7.57695 6.94766 7.64231C6.81695 7.70766 6.75159 7.90375 6.62088 8.03446C6.16396 8.61186 5.91115 9.32433 5.90192 10.0606C5.90916 10.5785 6.02029 11.0897 6.2287 11.5639L6.29408 11.7599C6.88095 13.0147 7.70171 14.146 8.71238 15.0932L8.9738 15.3547C9.16405 15.5123 9.3391 15.6873 9.49667 15.8776C10.8509 17.056 12.4594 17.9056 14.196 18.3612C14.3921 18.4266 14.6535 18.4266 14.8496 18.4919H15.5032C15.8448 18.4751 16.1789 18.386 16.4836 18.2305C16.6437 18.1579 16.7966 18.0704 16.9411 17.9691L17.0718 17.8383C17.2025 17.7076 17.3332 17.6423 17.4639 17.5115C17.5917 17.3977 17.7018 17.2656 17.7907 17.1194C17.9162 16.8266 18.0045 16.5194 18.0522 16.2044V15.7468C17.9935 15.6941 17.9274 15.65 17.8561 15.6161" fill="white"/>
</svg>
