<svg width="20" height="20" viewBox="0 0 20 20" fill="none" xmlns="http://www.w3.org/2000/svg">
<path d="M10 2C5.589 2 2 5.589 2 10C2 14.411 5.589 18 10 18C14.411 18 18 14.411 18 10C18 5.589 14.411 2 10 2ZM14.284 7.621L9.534 13.621C9.351 13.852 9.076 13.991 8.781 14C8.771 14 8.76 14 8.75 14C8.467 14 8.196 13.88 8.007 13.669L5.757 11.169C5.388 10.758 5.421 10.126 5.831 9.757C6.241 9.387 6.873 9.421 7.243 9.831L8.701 11.451L12.716 6.38C13.059 5.948 13.687 5.874 14.121 6.216C14.554 6.559 14.627 7.188 14.284 7.621Z" fill="#FFF7F3"/>
</svg>
