<svg width="40" height="40" viewBox="0 0 40 40" fill="none" xmlns="http://www.w3.org/2000/svg">
<path fill-rule="evenodd" clip-rule="evenodd" d="M26.75 31.25H13.25C11.5931 31.25 10.25 29.9068 10.25 28.25V11.75C10.25 10.0931 11.5931 8.75 13.25 8.75H26.75C28.4068 8.75 29.75 10.0931 29.75 11.75V28.25C29.75 29.9068 28.4068 31.25 26.75 31.25ZM20 27.5C23.3137 27.5 26 24.8137 26 21.5C26 18.1863 23.3137 15.5 20 15.5C16.6863 15.5 14 18.1863 14 21.5C14 24.8137 16.6863 27.5 20 27.5ZM17.75 13.25V11.75H13.25V13.25H17.75ZM26.76 13.25H25.25V11.75H26.76V13.25ZM23.76 13.25V11.75H22.25V13.25H23.76Z" fill="#B6B6B6"/>
<path fill-rule="evenodd" clip-rule="evenodd" d="M20 18.5C18.3432 18.5 17 19.8432 17 21.5V22.25H15.5V21.5C15.5 19.0147 17.5147 17 20 17H20.75V18.5H20Z" fill="#B6B6B6"/>
</svg>
