<svg width="40" height="40" viewBox="0 0 40 40" fill="none" xmlns="http://www.w3.org/2000/svg">
<path fill-rule="evenodd" clip-rule="evenodd" d="M20.75 14.25V20.75H19.25V14.25H20.75Z" fill="#B6B6B6"/>
<path d="M28.2075 19.25H11.793L12.7727 21.8626C13.0885 22.7046 13.2502 23.5967 13.2502 24.496V25.25H26.7502V24.496C26.7502 23.5967 26.912 22.7047 27.2277 21.8626L28.2075 19.25Z" fill="#B6B6B6"/>
<path d="M26.75 26.75H13.25V28.25C13.25 29.4927 14.2574 30.5 15.5 30.5H24.5C25.7426 30.5 26.75 29.4927 26.75 28.25V26.75Z" fill="#B6B6B6"/>
<path fill-rule="evenodd" clip-rule="evenodd" d="M28.6294 10.0241C28.2579 9.87727 27.8903 9.72713 27.5062 9.61576C27.1675 9.51756 26.6915 9.40086 26.1394 9.32666C25.0558 9.18103 23.5725 9.18491 22.2725 9.93543C20.9726 10.6859 20.2277 11.9686 19.8119 12.9798C19.6001 13.4951 19.4632 13.9656 19.3789 14.3081C19.2839 14.6942 19.2301 15.0854 19.1719 15.4784C19.5412 15.6247 19.907 15.7735 20.2889 15.8842C20.6276 15.9825 21.1036 16.0992 21.6557 16.1734C22.7393 16.319 24.2226 16.3151 25.5226 15.5646C26.8043 14.8246 27.5487 13.5404 27.9676 12.5309C28.1815 12.0155 28.322 11.544 28.4093 11.2008C28.508 10.8127 28.5665 10.4192 28.6294 10.0241Z" fill="#B6B6B6"/>
<path fill-rule="evenodd" clip-rule="evenodd" d="M11.3711 10.0241C12.1832 9.70315 12.9918 9.4435 13.8612 9.32666C14.9448 9.18103 16.4281 9.18491 17.728 9.93543C19.028 10.6859 19.7729 11.9686 20.1887 12.9798C20.5212 13.789 20.7009 14.6169 20.8287 15.4784C20.0189 15.7993 19.2137 16.0566 18.3449 16.1734C17.2612 16.319 15.7779 16.3151 14.478 15.5646C13.1962 14.8246 12.4519 13.5404 12.0329 12.5309C11.6963 11.7198 11.508 10.888 11.3711 10.0241Z" fill="#B6B6B6"/>
</svg>
